<svg width="319" height="190" viewBox="0 0 319 190" fill="none" xmlns="http://www.w3.org/2000/svg">
<rect width="318.049" height="190" rx="21" fill="#EE4540"/>
<path d="M285.112 0H297.049C308.647 0 318.049 9.40202 318.049 21V169C318.049 180.598 308.647 190 297.049 190H285.112V0Z" fill="#C72C41"/>
<path d="M89.015 130.512V156H81.059V143.292L77.135 156H70.295L66.371 143.292V156H58.379V130.512H68.171L73.787 145.812L79.259 130.512H89.015ZM119.765 152.148H111.269L110.009 156H101.621L110.945 130.512H120.161L129.449 156H121.025L119.765 152.148ZM117.821 146.136L115.517 139.044L113.213 146.136H117.821ZM152.037 156.252C148.989 156.252 146.469 155.544 144.477 154.128C142.509 152.688 141.441 150.588 141.273 147.828H149.769C149.889 149.292 150.537 150.024 151.713 150.024C152.145 150.024 152.505 149.928 152.793 149.736C153.105 149.52 153.261 149.196 153.261 148.764C153.261 148.164 152.937 147.684 152.289 147.324C151.641 146.94 150.633 146.508 149.265 146.028C147.633 145.452 146.277 144.888 145.197 144.336C144.141 143.784 143.229 142.98 142.461 141.924C141.693 140.868 141.321 139.512 141.345 137.856C141.345 136.2 141.765 134.796 142.605 133.644C143.469 132.468 144.633 131.58 146.097 130.98C147.585 130.38 149.253 130.08 151.101 130.08C154.221 130.08 156.693 130.8 158.517 132.24C160.365 133.68 161.337 135.708 161.433 138.324H152.829C152.805 137.604 152.625 137.088 152.289 136.776C151.953 136.464 151.545 136.308 151.065 136.308C150.729 136.308 150.453 136.428 150.237 136.668C150.021 136.884 149.913 137.196 149.913 137.604C149.913 138.18 150.225 138.66 150.849 139.044C151.497 139.404 152.517 139.848 153.909 140.376C155.517 140.976 156.837 141.552 157.869 142.104C158.925 142.656 159.837 143.424 160.605 144.408C161.373 145.392 161.757 146.628 161.757 148.116C161.757 149.676 161.373 151.08 160.605 152.328C159.837 153.552 158.721 154.512 157.257 155.208C155.793 155.904 154.053 156.252 152.037 156.252ZM195.381 130.512V136.848H188.613V156H180.621V136.848H173.925V130.512H195.381ZM216.341 136.884V140.016H224.261V146.028H216.341V149.628H225.341V156H208.349V130.512H225.341V136.884H216.341ZM251.968 156L247.18 146.856H247.144V156H239.152V130.512H251.032C253.096 130.512 254.86 130.884 256.324 131.628C257.788 132.348 258.88 133.344 259.6 134.616C260.344 135.864 260.716 137.28 260.716 138.864C260.716 140.568 260.236 142.08 259.276 143.4C258.34 144.72 256.984 145.668 255.208 146.244L260.752 156H251.968ZM247.144 141.528H250.312C251.08 141.528 251.656 141.36 252.04 141.024C252.424 140.664 252.616 140.112 252.616 139.368C252.616 138.696 252.412 138.168 252.004 137.784C251.62 137.4 251.056 137.208 250.312 137.208H247.144V141.528Z" fill="white"/>
<path d="M48.8378 112V107.76C51.2405 107.689 53.1485 107.477 54.5618 107.124C56.0458 106.771 57.1765 106.17 57.9538 105.322C58.8018 104.474 59.3672 103.273 59.6498 101.718C59.9325 100.163 60.0738 98.1493 60.0738 95.676V46.704C60.0738 44.2307 59.9678 42.252 59.7558 40.768C59.5438 39.2133 59.0845 38.012 58.3778 37.164C57.7418 36.2453 56.8232 35.6447 55.6218 35.362C54.4912 35.0087 52.9718 34.7613 51.0638 34.62V30.38H85.0898C95.7605 30.38 103.958 32.1113 109.682 35.574C115.477 38.966 118.374 43.842 118.374 50.202C118.374 58.6113 112.332 64.5473 100.248 68.01V68.434C104.135 68.434 107.633 68.9993 110.742 70.13C113.922 71.19 116.607 72.7093 118.798 74.688C120.989 76.6667 122.685 78.9987 123.886 81.684C125.087 84.3693 125.688 87.302 125.688 90.482C125.688 94.086 124.805 97.2307 123.038 99.916C121.342 102.601 118.869 104.863 115.618 106.7C109.329 110.233 100.672 112 89.6478 112H48.8378ZM90.3898 105.534C101.767 105.534 107.456 100.411 107.456 90.164C107.456 83.8747 105.407 79.2813 101.308 76.384C99.1878 74.9 96.4318 73.84 93.0398 73.204C89.7185 72.568 85.6198 72.25 80.7438 72.25H75.6558V93.45C75.6558 97.8313 76.7865 100.941 79.0478 102.778C81.3092 104.615 85.0898 105.534 90.3898 105.534ZM81.9098 65.89C85.0898 65.89 87.8458 65.6073 90.1778 65.042C92.5098 64.406 94.4885 63.5227 96.1138 62.392C99.5058 60.06 101.202 56.4207 101.202 51.474C101.202 46.3153 99.9298 42.6053 97.3858 40.344C94.8418 38.012 90.7432 36.846 85.0898 36.846H77.5638C76.2918 36.846 75.6558 37.4467 75.6558 38.648V65.89H81.9098ZM171.467 112H133.625V107.76C136.027 107.689 137.935 107.477 139.349 107.124C140.833 106.7 141.963 105.958 142.741 104.898C143.518 103.838 144.048 102.354 144.331 100.446C144.613 98.4673 144.755 95.8173 144.755 92.496V49.884C144.755 46.916 144.613 44.478 144.331 42.57C144.119 40.5913 143.659 39.0367 142.953 37.906C142.246 36.7753 141.221 35.998 139.879 35.574C138.607 35.0793 136.875 34.7613 134.685 34.62V30.38H170.407V34.62C168.216 34.7613 166.449 35.0793 165.107 35.574C163.835 35.998 162.845 36.7753 162.139 37.906C161.432 39.0367 160.937 40.5913 160.655 42.57C160.443 44.478 160.337 46.916 160.337 49.884V92.496C160.337 95.8173 160.443 98.4673 160.655 100.446C160.937 102.354 161.467 103.838 162.245 104.898C163.093 105.958 164.223 106.7 165.637 107.124C167.121 107.477 169.064 107.689 171.467 107.76V112ZM178.962 112V107.76C181.294 107.689 183.167 107.513 184.58 107.23C186.064 106.877 187.195 106.276 187.972 105.428C188.82 104.509 189.385 103.308 189.668 101.824C189.951 100.269 190.092 98.22 190.092 95.676V46.704C190.092 44.2307 189.986 42.252 189.774 40.768C189.562 39.2133 189.103 38.012 188.396 37.164C187.689 36.2453 186.7 35.6447 185.428 35.362C184.227 35.0087 182.637 34.7613 180.658 34.62V30.38H220.938C227.722 30.38 233.976 31.44 239.7 33.56C245.424 35.68 250.371 38.6127 254.54 42.358C258.709 46.1033 261.96 50.5553 264.292 55.714C266.624 60.8727 267.79 66.4907 267.79 72.568C267.79 78.3627 266.695 83.698 264.504 88.574C262.313 93.3793 259.239 97.5133 255.282 100.976C251.395 104.439 246.696 107.159 241.184 109.138C235.743 111.046 229.736 112 223.164 112H178.962ZM207.476 36.846C206.275 36.846 205.674 37.4467 205.674 38.648V93.45C205.674 97.5487 206.946 100.587 209.49 102.566C212.034 104.545 215.956 105.534 221.256 105.534C230.513 105.534 237.615 102.743 242.562 97.16C247.579 91.5773 250.088 83.4507 250.088 72.78C250.088 67.1267 249.417 62.074 248.074 57.622C246.731 53.17 244.788 49.4247 242.244 46.386C239.7 43.2767 236.591 40.9093 232.916 39.284C229.312 37.6587 225.249 36.846 220.726 36.846H207.476Z" fill="white"/>
</svg>
