<svg width="987" height="654" viewBox="0 0 987 654" fill="none" xmlns="http://www.w3.org/2000/svg">
<path d="M925.87 581.288C925.87 581.477 731.686 581.628 492.205 581.628C252.639 581.628 58.4971 581.475 58.4971 581.288C58.4971 581.1 252.639 580.948 492.205 580.948C731.686 580.948 925.87 581.1 925.87 581.288Z" fill="#263238"/>
<path d="M911.701 371.459C900.691 377.128 892.249 386.887 886.178 397.632C880.108 408.377 876.195 420.169 872.321 431.874L868.93 492.246C881.74 470.586 892.022 445.121 894.8 420.148C891.958 419.897 889.116 419.644 886.275 419.393C891.99 418.526 896.788 414.41 899.841 409.528C902.894 404.648 904.466 399.02 905.999 393.478C902.531 393.99 899.065 394.502 895.598 395.015C903.743 389.613 909.648 380.975 911.701 371.459Z" fill="#455A64"/>
<g opacity="0.3">
<path d="M911.701 371.459C900.691 377.128 892.249 386.887 886.178 397.632C880.108 408.377 876.195 420.169 872.321 431.874L868.93 492.246C881.74 470.586 892.022 445.121 894.8 420.148C891.958 419.897 889.116 419.644 886.275 419.393C891.99 418.526 896.788 414.41 899.841 409.528C902.894 404.648 904.466 399.02 905.999 393.478C902.531 393.99 899.065 394.502 895.598 395.015C903.743 389.613 909.648 380.975 911.701 371.459Z" fill="black"/>
</g>
<path d="M867.033 506.392C867.033 506.392 839.227 473.314 839.548 441.736H850.78C850.78 441.736 838.58 433.763 839.546 429.297C840.512 424.832 840.831 407.927 840.831 407.927L851.101 410.479C851.101 410.479 843.399 406.652 842.437 400.591C841.475 394.529 844.683 366.461 844.683 366.461C844.683 366.461 857.199 379.538 861.05 392.935C864.901 406.331 875.009 421.961 872.042 462.789C869.074 503.617 867.033 506.392 867.033 506.392Z" fill="#455A64"/>
<path d="M881.13 509.514C881.13 509.514 911.254 489.569 917.948 464.111L908.917 461.669C908.917 461.669 920.481 457.911 920.688 454.111C920.894 450.312 924.358 436.651 924.358 436.651L915.539 436.469C915.539 436.469 922.575 435.067 924.682 430.404C926.79 425.741 930.388 402.477 930.388 402.477C930.388 402.477 917.448 410.269 911.402 420.203C905.357 430.136 893.79 440.503 887.189 473.973C880.589 507.441 881.13 509.514 881.13 509.514Z" fill="#455A64"/>
<path d="M852.28 395.301C852.292 395.298 852.327 395.414 852.388 395.642C852.453 395.909 852.536 396.244 852.638 396.659C852.855 397.606 853.155 398.918 853.535 400.581C854.312 403.989 855.338 408.94 856.516 415.075C857.715 421.207 858.977 428.54 860.274 436.698C861.532 444.863 862.787 453.858 863.9 463.325C864.99 472.797 865.834 481.844 866.483 490.077C867.093 498.315 867.547 505.741 867.787 511.984C868.049 518.224 868.185 523.278 868.211 526.771C868.223 528.476 868.231 529.821 868.237 530.793C868.234 531.219 868.23 531.563 868.227 531.839C868.22 532.075 868.211 532.196 868.199 532.196C868.187 532.196 868.173 532.076 868.156 531.841C868.141 531.566 868.122 531.222 868.098 530.795C868.061 529.825 868.008 528.482 867.943 526.777C867.835 523.288 867.624 518.24 867.3 512.006C866.998 505.771 866.494 498.354 865.85 490.127C865.167 481.902 864.305 472.868 863.216 463.403C862.104 453.945 860.869 444.955 859.647 436.793C858.385 428.638 857.172 421.303 856.035 415.164C854.919 409.022 853.965 404.059 853.269 400.636C852.943 398.962 852.684 397.642 852.498 396.689C852.423 396.268 852.363 395.929 852.314 395.658C852.281 395.424 852.268 395.304 852.28 395.301Z" fill="#263238"/>
<path d="M863.176 526.648C863.176 526.648 837.731 497.953 829.83 480.606L835.794 478.073C831.471 478.782 827.041 476.935 823.689 474.13C820.337 471.326 817.875 467.638 815.462 464.003L823.32 462.683C816.175 460.691 809.879 455.843 806.152 449.465C815.424 450.981 823.812 456.043 830.725 462.369C836.323 467.492 841.063 473.44 845.615 479.517C847.835 482.481 849.779 485.64 851.398 488.966C855.672 497.753 863.19 516.109 863.176 526.648Z" fill="#455A64"/>
<path d="M918.347 419.177C918.357 419.183 918.32 419.283 918.238 419.473C918.135 419.699 918.008 419.974 917.853 420.31C917.478 421.091 916.965 422.156 916.317 423.5C914.962 426.259 913.038 430.27 910.706 435.246C906.037 445.195 899.881 459.077 893.797 474.695C887.725 490.325 882.883 504.714 879.604 515.196C877.961 520.436 876.67 524.69 875.806 527.638C875.374 529.066 875.032 530.196 874.782 531.024C874.669 531.378 874.575 531.665 874.499 531.901C874.432 532.097 874.391 532.196 874.38 532.194C874.369 532.191 874.387 532.085 874.432 531.882C874.491 531.642 874.562 531.348 874.649 530.988C874.869 530.151 875.17 529.009 875.549 527.566C876.335 524.596 877.556 520.318 879.14 515.055C882.304 504.528 887.079 490.097 893.159 474.45C899.249 458.812 905.484 444.944 910.269 435.039C912.659 430.086 914.65 426.105 916.079 423.381C916.775 422.06 917.325 421.014 917.73 420.247C917.908 419.923 918.055 419.657 918.174 419.44C918.278 419.262 918.336 419.172 918.347 419.177Z" fill="#263238"/>
<path d="M865.335 538.944C865.288 538.95 865.147 538.22 864.933 536.899C864.73 535.575 864.389 533.668 863.917 531.324C862.978 526.636 861.335 520.22 858.75 513.394C856.151 506.571 853.116 500.676 850.704 496.542C849.501 494.472 848.487 492.816 847.76 491.69C847.043 490.558 846.663 489.918 846.702 489.89C846.741 489.863 847.194 490.453 847.983 491.542C848.78 492.625 849.859 494.247 851.121 496.294C853.652 500.385 856.775 506.285 859.392 513.152C861.994 520.022 863.573 526.501 864.393 531.232C864.808 533.599 865.075 535.524 865.197 536.861C865.33 538.199 865.381 538.939 865.335 538.944Z" fill="#263238"/>
<path d="M898.91 532.195H843.22V543.486H898.91V532.195Z" fill="#DEE21B"/>
<path d="M848.526 543.486L854.551 581.465H888.203L893.817 543.486H848.526Z" fill="#DEE21B"/>
<path d="M895.494 543.486C895.494 543.674 884.959 543.826 871.967 543.826C858.97 543.826 848.437 543.674 848.437 543.486C848.437 543.297 858.97 543.146 871.967 543.146C884.959 543.146 895.494 543.297 895.494 543.486Z" fill="#263238"/>
<path d="M115.938 547.622C115.938 547.622 110.969 513.666 111.383 493.91C111.798 474.154 111.358 451.928 111.358 451.928H113.648C113.648 451.928 112.098 491.142 113.785 514.792C115.471 538.425 119.915 547.62 119.915 547.62L115.938 547.622Z" fill="#263238"/>
<path d="M130.739 413.724C130.278 412.564 129.713 411.355 128.653 410.688C127.2 409.773 125.296 410.153 123.675 410.724C116.757 413.155 110.623 425.976 107.826 432.72L117.012 463.481C133.591 448.194 136.462 428.14 130.739 413.724Z" fill="#455A64"/>
<path d="M128.118 411.934C128.13 411.939 128.084 412.078 127.985 412.335C127.867 412.629 127.718 413.001 127.535 413.456C127.132 414.424 126.568 415.831 125.893 417.579C124.54 421.073 122.816 425.955 121.276 431.457C119.742 436.962 118.685 442.031 118.033 445.717C117.706 447.56 117.46 449.056 117.303 450.091C117.223 450.575 117.158 450.968 117.107 451.281C117.058 451.553 117.025 451.694 117.013 451.693C117 451.692 117.007 451.546 117.032 451.272C117.065 450.957 117.107 450.559 117.157 450.071C117.269 449.029 117.475 447.524 117.769 445.672C118.354 441.968 119.372 436.876 120.91 431.356C122.455 425.839 124.223 420.955 125.642 417.481C126.35 415.743 126.955 414.348 127.399 413.397C127.609 412.953 127.78 412.592 127.915 412.304C128.036 412.055 128.106 411.928 128.118 411.934Z" fill="#263238"/>
<path d="M112.93 470.858C104.32 466.129 99.2459 457.234 98.7735 447.469C98.4432 440.643 100.553 433.945 102.944 427.537C103.152 426.981 103.398 426.382 103.916 426.09C104.639 425.683 105.542 426.046 106.264 426.454C112.52 429.995 116.311 436.745 118.328 443.613C119.67 448.184 120.365 453.004 119.744 457.724C119.121 462.446 116.407 467.581 112.93 470.858Z" fill="#455A64"/>
<path d="M112.93 470.858C112.917 470.858 112.906 470.715 112.896 470.446C112.889 470.134 112.882 469.743 112.873 469.265C112.87 468.24 112.828 466.757 112.744 464.929C112.578 461.27 112.095 456.228 111.147 450.718C110.191 445.209 109.032 440.275 108.179 436.708C107.758 434.964 107.413 433.534 107.16 432.486C107.052 432.019 106.966 431.639 106.896 431.335C106.839 431.071 106.816 430.931 106.829 430.927C106.842 430.923 106.889 431.058 106.97 431.316C107.058 431.615 107.168 431.99 107.304 432.45C107.587 433.436 107.978 434.868 108.44 436.644C109.361 440.197 110.562 445.129 111.522 450.654C112.474 456.179 112.917 461.247 113.014 464.918C113.064 466.753 113.065 468.24 113.023 469.266C113.003 469.745 112.988 470.136 112.974 470.447C112.957 470.716 112.943 470.858 112.93 470.858Z" fill="#263238"/>
<g opacity="0.3">
<path d="M112.93 470.858C104.32 466.129 99.2459 457.234 98.7735 447.469C98.4432 440.643 100.553 433.945 102.944 427.537C103.152 426.981 103.398 426.382 103.916 426.09C104.639 425.683 105.542 426.046 106.264 426.454C112.52 429.995 116.311 436.745 118.328 443.613C119.67 448.184 120.365 453.004 119.744 457.724C119.121 462.446 116.407 467.581 112.93 470.858Z" fill="black"/>
</g>
<path d="M122.644 522.811C131.117 524.661 138.093 530.602 146.268 533.49C151.677 535.401 157.793 536.077 162.112 539.836C161.076 537.236 158.619 535.504 156.233 534.022C149.511 529.848 142.312 526.433 134.821 523.862C130.975 522.542 126.802 521.439 122.883 522.526" fill="#455A64"/>
<path d="M110.393 530.314C99.781 530.144 88.6081 521.165 78.0459 520.628C89.099 517.081 104.927 519.978 110.393 530.314Z" fill="#455A64"/>
<path d="M114.54 505.012C119.929 503.082 125.844 502.99 131.505 503.865C137.165 504.74 142.631 506.544 148.066 508.34C147.522 504.68 144.54 501.929 141.739 499.492C139.631 497.66 137.507 495.816 135.089 494.412C132.672 493.009 129.911 492.058 127.113 492.175C123.738 492.318 120.524 494.049 118.31 496.585C116.097 499.122 114.906 501.674 114.54 505.012Z" fill="#455A64"/>
<path d="M92.7598 493.367C86.0797 487.698 75.9623 488.253 67.1807 488.449C80.6789 494.863 95.2246 503.658 106.85 513.02C107.208 506.85 101.198 500.527 92.7598 493.367Z" fill="#455A64"/>
<g opacity="0.3">
<path d="M92.7598 493.367C86.0797 487.698 75.9623 488.253 67.1807 488.449C80.6789 494.863 95.2246 503.658 106.85 513.02C107.208 506.85 101.198 500.527 92.7598 493.367Z" fill="black"/>
</g>
<path d="M117.543 485.543C120.901 483.318 124.3 481.196 127.815 479.608C131.332 478.02 134.611 475.492 138.008 473.663C142.411 471.293 146.225 468 150.268 465.062C154.309 462.124 158.749 459.472 163.695 458.693C159.661 457.867 155.447 458.318 151.476 459.396C147.503 460.474 143.73 462.162 139.975 463.843C134.764 466.176 129.463 468.567 125.203 472.354C120.943 476.142 117.093 479.879 117.543 485.543Z" fill="#455A64"/>
<path d="M146.075 530.314C146.068 530.326 145.953 530.275 145.739 530.17C145.489 530.041 145.183 529.884 144.813 529.693C144.014 529.27 142.867 528.644 141.422 527.922C140.707 527.546 139.913 527.155 139.054 526.754C138.203 526.334 137.278 525.919 136.298 525.498C134.339 524.666 132.15 523.798 129.764 523.235C127.385 522.654 125.015 522.528 122.958 523.065C121.92 523.315 120.943 523.561 120.073 523.921C119.201 524.272 118.423 524.683 117.745 525.108C116.386 525.96 115.436 526.861 114.82 527.511C114.205 528.165 113.905 528.567 113.879 528.546C113.868 528.538 113.934 528.432 114.07 528.236C114.203 528.038 114.417 527.758 114.711 527.413C115.299 526.726 116.235 525.781 117.601 524.885C118.281 524.437 119.068 524.004 119.955 523.632C120.841 523.25 121.84 522.987 122.878 522.726C124.981 522.155 127.444 522.276 129.853 522.868C132.277 523.441 134.476 524.326 136.439 525.18C137.421 525.612 138.345 526.04 139.192 526.473C140.05 526.887 140.837 527.294 141.547 527.685C142.98 528.438 144.109 529.102 144.887 529.565C145.243 529.779 145.537 529.957 145.778 530.104C145.979 530.23 146.082 530.302 146.075 530.314Z" fill="#263238"/>
<path d="M102.477 525.087C102.486 525.063 102.722 525.133 103.142 525.281C103.564 525.422 104.158 525.676 104.871 526.028C106.299 526.729 108.177 527.922 109.941 529.601C111.701 531.286 112.976 533.104 113.737 534.495C114.12 535.189 114.397 535.769 114.557 536.182C114.722 536.593 114.801 536.824 114.778 536.835C114.717 536.861 114.321 535.969 113.505 534.628C112.693 533.289 111.407 531.529 109.678 529.873C107.944 528.223 106.125 527.017 104.746 526.265C103.367 525.506 102.453 525.149 102.477 525.087Z" fill="#263238"/>
<path d="M78.9981 492.837C79.0021 492.826 79.1587 492.871 79.4508 492.971C79.7798 493.087 80.2009 493.236 80.7247 493.422C81.2906 493.63 81.9618 493.876 82.7329 494.158C83.516 494.448 84.3648 494.874 85.3268 495.295C89.1471 497.019 94.2321 499.92 99.1421 504.044C101.564 506.14 103.753 508.269 105.584 510.35C107.408 512.435 108.953 514.397 110.157 516.108C111.368 517.814 112.288 519.234 112.917 520.218C113.214 520.682 113.455 521.057 113.643 521.349C113.808 521.608 113.889 521.749 113.879 521.756C113.868 521.764 113.766 521.638 113.581 521.392C113.396 521.146 113.126 520.78 112.796 520.299C112.127 519.34 111.177 517.944 109.941 516.264C108.713 514.578 107.154 512.642 105.325 510.58C103.489 508.523 101.304 506.413 98.8974 504.331C94.0176 500.233 88.9892 497.315 85.2136 495.536C84.2634 495.102 83.4238 494.659 82.6527 494.352C81.892 494.047 81.2314 493.782 80.6734 493.559C80.1615 493.348 79.7482 493.176 79.4271 493.043C79.1416 492.92 78.9942 492.85 78.9981 492.837Z" fill="#263238"/>
<path d="M130.462 499.084C130.455 499.109 130.152 499.069 129.616 498.976C129.323 498.922 129 498.863 128.64 498.797C128.261 498.723 127.819 498.722 127.338 498.672C125.429 498.535 122.649 498.691 120.044 500.103C118.73 500.764 117.628 501.656 116.725 502.551C115.809 503.439 115.116 504.363 114.592 505.172C113.527 506.791 113.198 507.962 113.134 507.94C113.113 507.934 113.172 507.636 113.35 507.117C113.545 506.607 113.846 505.865 114.366 505.032C114.87 504.191 115.555 503.229 116.478 502.307C117.387 501.379 118.515 500.453 119.868 499.771C122.554 498.317 125.431 498.199 127.361 498.408C127.849 498.475 128.297 498.497 128.677 498.59C129.035 498.68 129.359 498.76 129.65 498.833C130.18 498.971 130.468 499.06 130.462 499.084Z" fill="#263238"/>
<path d="M141.126 466.199C141.132 466.21 140.993 466.295 140.725 466.445C140.42 466.609 140.026 466.821 139.541 467.084C138.511 467.636 137.03 468.448 135.229 469.503C133.438 470.571 131.327 471.883 129.082 473.478C126.844 475.076 124.438 476.935 122.218 479.194C121.123 480.329 120.114 481.515 119.411 482.806C118.716 484.133 118.052 485.416 117.441 486.647C116.213 489.107 115.214 491.371 114.493 493.317C113.773 495.264 113.324 496.886 113.059 498.014C112.788 499.143 112.689 499.78 112.652 499.774C112.639 499.772 112.655 499.612 112.694 499.307C112.732 499.002 112.797 498.553 112.914 497.983C113.136 496.839 113.548 495.197 114.24 493.227C114.934 491.259 115.913 488.97 117.128 486.494C117.732 485.255 118.391 483.967 119.082 482.636C119.812 481.286 120.838 480.084 121.947 478.932C124.193 476.647 126.62 474.787 128.881 473.195C131.148 471.607 133.282 470.315 135.095 469.272C136.918 468.244 138.422 467.465 139.473 466.953C139.973 466.717 140.377 466.526 140.691 466.377C140.971 466.25 141.121 466.188 141.126 466.199Z" fill="#263238"/>
<path d="M111.371 498.133C111.345 498.137 111.271 497.821 111.16 497.244C111.037 496.594 110.881 495.778 110.696 494.807C110.292 492.754 109.673 489.926 108.689 486.893C107.714 483.854 106.525 481.212 105.658 479.305C105.246 478.406 104.9 477.65 104.624 477.047C104.383 476.512 104.261 476.211 104.283 476.2C104.307 476.188 104.474 476.468 104.755 476.983C105.037 477.498 105.433 478.251 105.9 479.192C106.832 481.073 108.066 483.717 109.049 486.779C110.042 489.835 110.621 492.691 110.959 494.761C111.125 495.799 111.245 496.64 111.305 497.223C111.372 497.806 111.397 498.13 111.371 498.133Z" fill="#263238"/>
<path d="M110.603 474.138C110.337 470.154 109.031 466.281 107.153 462.751C102.002 453.072 92.3213 445.897 81.5195 443.752C89.43 455.47 97.3405 467.189 105.251 478.908L108.316 485.183C110.406 481.773 110.869 478.122 110.603 474.138Z" fill="#455A64"/>
<path d="M144.644 543.422H89.4619V553.143H144.644V543.422Z" fill="#DEE21B"/>
<path d="M93.583 551.213L98.2811 581.377H134.916L140.523 551.213H93.583Z" fill="#DEE21B"/>
<path d="M144.614 553.154C144.614 553.262 132.167 553.347 116.816 553.347C101.46 553.347 89.0156 553.26 89.0156 553.154C89.0156 553.049 101.46 552.962 116.816 552.962C132.166 552.962 144.614 553.049 144.614 553.154Z" fill="#263238"/>
<path d="M813.727 329.481C813.727 329.481 804.384 329.2 799.129 334.584L806.681 348.098L821.077 345.236L822.338 340.709L824.644 332.118L813.727 329.481Z" fill="#FFBF9D"/>
<path d="M718.986 317.681C718.986 317.681 723.534 320.558 724.679 323.667C725.823 326.776 751.912 345.226 751.912 345.226L755.422 344.279L797.395 331.481L807.923 350.323L755.982 369.713C754.466 370.036 717.55 358.085 717.55 358.085L718.986 317.681Z" fill="#455A64"/>
<path d="M818.713 360.919L786.757 350.79L773.614 391.749L729.322 377.709L742.465 336.75L636.781 303.251L646.525 272.88L778.729 178.495L826.384 193.601L702.964 283.711L755.667 300.416L767.38 263.917L810.27 277.513L798.557 314.013L830.515 324.143L818.713 360.919Z" fill="#FDFFA8"/>
<g opacity="0.3">
<path d="M818.713 360.919L786.757 350.79L773.614 391.749L729.322 377.709L742.465 336.75L636.781 303.251L646.525 272.88L778.729 178.495L826.384 193.601L702.964 283.711L755.667 300.416L767.38 263.917L810.27 277.513L798.557 314.013L830.515 324.143L818.713 360.919Z" fill="black"/>
</g>
<path d="M806.627 357.254L774.669 347.124L761.528 388.082L717.238 374.044L730.379 333.085L624.695 299.586L634.44 269.214L766.642 174.829L814.298 189.935L690.88 280.044L743.581 296.75L755.293 260.25L798.182 273.846L786.471 310.345L818.429 320.476L806.627 357.254Z" fill="#FDFFA8"/>
<g opacity="0.3">
<path d="M723.629 330.979L723.203 318.168L724.287 311.869C724.287 311.869 736.463 312.2 739.048 307.808C741.634 303.414 743.801 296.518 743.801 296.518L728.65 292.971L717.551 310.224L714.196 318.665L719.525 329.708L723.629 330.979Z" fill="black"/>
</g>
<path d="M703.429 276.723C703.7 271.64 704.002 266.53 705.149 261.57C706.295 256.61 708.336 251.761 711.725 247.945C712.238 247.366 716.144 243.661 716.837 244.006C717.334 244.253 714.373 247.972 714.461 248.516C715.306 253.713 714.005 259.076 711.713 263.821C709.422 268.565 706.692 272.578 703.429 276.723Z" fill="#263238"/>
<path d="M720.05 313.301C721.383 309.959 722.448 307.326 722.473 307.336C722.473 307.336 734.506 310.6 739.679 299.482C742.177 294.113 746.416 282.642 750.13 272.213C754.125 261 748.787 248.617 737.863 243.759L736.777 243.276C724.768 238.751 714.191 246.359 709.972 258.416L693.861 300.123L698.267 312.87C701.78 323.032 716.133 323.315 720.05 313.301Z" fill="#FFBF9D"/>
<path d="M722.472 307.337C722.472 307.337 715.196 304.597 709.764 296.518C709.764 296.518 709.673 306.238 721.351 310.224L722.472 307.337Z" fill="#FF9A6C"/>
<path d="M739.203 280.26C738.853 281.117 737.835 281.529 736.929 281.182C736.023 280.836 735.572 279.862 735.921 279.006C736.271 278.149 737.288 277.736 738.193 278.082C739.1 278.429 739.551 279.405 739.203 280.26Z" fill="#263238"/>
<path d="M745.639 275.776C745.345 275.895 744.532 274.459 742.802 273.695C741.084 272.906 739.417 273.227 739.325 272.933C739.275 272.799 739.647 272.513 740.379 272.358C741.101 272.203 742.203 272.228 743.278 272.712C744.352 273.197 745.081 273.993 745.419 274.628C745.769 275.27 745.78 275.727 745.639 275.776Z" fill="#263238"/>
<path d="M724.595 274.387C724.245 275.244 723.228 275.656 722.321 275.309C721.416 274.964 720.964 273.991 721.313 273.133C721.663 272.276 722.682 271.864 723.586 272.209C724.493 272.556 724.944 273.53 724.595 274.387Z" fill="#263238"/>
<path d="M729.273 269.224C728.98 269.343 728.164 267.907 726.435 267.143C724.717 266.356 723.05 266.675 722.958 266.381C722.908 266.246 723.277 265.961 724.012 265.808C724.734 265.651 725.837 265.677 726.911 266.16C727.985 266.645 728.714 267.442 729.053 268.076C729.401 268.718 729.413 269.176 729.273 269.224Z" fill="#263238"/>
<path d="M728.651 284.901C728.687 284.8 729.845 285.093 731.686 285.646C732.148 285.798 732.605 285.896 732.814 285.629C733.061 285.359 733.089 284.804 733.105 284.198C733.168 282.952 733.234 281.646 733.303 280.277C733.632 274.714 734.081 270.22 734.306 270.234C734.532 270.25 734.448 274.77 734.119 280.333C734.027 281.7 733.942 283.004 733.856 284.251C733.798 284.824 733.831 285.517 733.31 286.074C733.044 286.349 732.613 286.443 732.295 286.393C731.973 286.353 731.723 286.248 731.499 286.163C729.704 285.476 728.614 285.001 728.651 284.901Z" fill="#263238"/>
<path d="M731.732 263.371C731.29 263.694 729.854 262.446 727.859 261.44C725.884 260.394 724.033 259.941 724.044 259.397C724.057 259.142 724.586 258.915 725.467 258.903C726.34 258.889 727.555 259.131 728.747 259.745C729.937 260.361 730.835 261.212 731.324 261.931C731.818 262.652 731.935 263.213 731.732 263.371Z" fill="#263238"/>
<path d="M747.833 269.537C747.353 269.792 746.345 268.857 744.922 268.202C743.522 267.497 742.16 267.287 742.064 266.755C742.031 266.502 742.396 266.196 743.093 266.063C743.781 265.927 744.789 266.015 745.76 266.482C746.73 266.95 747.424 267.684 747.742 268.305C748.068 268.931 748.053 269.406 747.833 269.537Z" fill="#263238"/>
<path d="M707.163 267.105C707.008 266.938 700.457 261.396 697.262 269.149C694.066 276.901 702.556 278.492 702.661 278.274C702.766 278.057 707.163 267.105 707.163 267.105Z" fill="#FFBF9D"/>
<path d="M701.49 274.366C701.466 274.327 701.315 274.405 701.042 274.416C700.776 274.426 700.362 274.34 700.018 274.023C699.318 273.388 699.16 271.804 699.699 270.391C699.97 269.677 700.396 269.066 700.876 268.612C701.349 268.143 701.881 267.896 702.327 267.991C702.778 268.064 702.97 268.43 702.975 268.688C702.991 268.947 702.877 269.082 702.914 269.112C702.927 269.141 703.135 269.05 703.203 268.704C703.235 268.536 703.219 268.317 703.097 268.093C702.972 267.865 702.728 267.676 702.427 267.589C701.808 267.385 701.04 267.715 700.512 268.213C699.95 268.701 699.454 269.381 699.15 270.182C698.556 271.765 698.758 273.554 699.753 274.337C700.242 274.704 700.769 274.725 701.08 274.638C701.398 274.548 701.511 274.391 701.49 274.366Z" fill="#FF9A6C"/>
<path d="M750.248 257.305C751.794 257.112 749.631 251.526 747.082 248.885C743.228 244.896 736.568 240.736 731.738 240.237C725.923 239.635 720.546 240.496 716.024 244.179C711.502 247.863 708.304 252.978 706.288 258.432C705.672 260.096 705.155 261.88 705.48 263.624C705.883 265.778 707.545 267.694 706.499 270.03C706.117 270.884 706.014 271.859 706.358 272.729C707.182 274.812 709.506 274.085 710.885 272.977C713.83 270.612 715.484 267.051 717.039 263.62C718.143 261.18 719.263 258.686 719.517 256.024C719.655 254.575 719.532 253.106 719.751 251.666C719.969 250.227 720.61 248.749 721.867 248.002C722.071 247.88 722.382 247.748 722.759 247.615C725.752 246.563 729.088 247.217 731.474 249.298C735.259 252.598 741.857 257.902 744.421 257.196C748.109 256.18 749.346 255.054 749.346 255.054L750.248 257.305Z" fill="#263238"/>
<path d="M728.893 291.042C728.886 291.19 728.443 291.331 727.719 291.233C727.002 291.139 726.027 290.748 725.2 289.994C724.375 289.238 723.901 288.306 723.748 287.602C723.588 286.893 723.694 286.442 723.841 286.423C724.169 286.379 724.596 287.913 725.986 289.145C727.335 290.418 728.91 290.714 728.893 291.042Z" fill="#263238"/>
<path d="M732.577 223.765C732.736 223.867 730.57 227.511 727.741 231.905C724.909 236.299 722.486 239.779 722.327 239.678C722.167 239.577 724.332 235.933 727.164 231.537C729.994 227.143 732.418 223.663 732.577 223.765Z" fill="#FF9A6C"/>
<path d="M698.419 464.904L722.887 488.003C722.887 488.003 711.058 566.856 713.134 567.002C715.211 567.15 742.376 569.077 742.376 569.077C742.376 569.077 760.005 477.794 758.679 472.455C757.351 467.117 714.604 424.991 714.604 424.991L714.077 417.762L701.921 416.156L698.419 464.904Z" fill="#263238"/>
<path d="M652.425 433.33C654.791 438.651 658.742 444.97 659.559 450.263L674.468 504.203L621.363 568.347L645.067 588.091C645.067 588.091 709.03 519.477 711.259 511.028C713.04 504.281 705.885 436.477 705.885 436.477L708.231 417.128L652.989 404.035L652.95 404.117C648.464 413.304 648.272 423.988 652.425 433.33Z" fill="#263238"/>
<path d="M657.397 569.994L640.263 589.646C640.263 589.646 653.481 612.76 650.652 616.684L613.267 586.553L638.771 554.893L657.397 569.994Z" fill="#263238"/>
<path d="M630.087 578.629C629.195 578.254 628 578.704 627.543 579.606C627.087 580.509 627.47 581.713 628.355 582.104C629.24 582.496 630.689 581.999 631.044 581.055C631.399 580.112 630.871 578.727 629.908 578.566" fill="#E0E0E0"/>
<path d="M613.266 586.553L615.956 583.457L650.794 613.504C650.794 613.504 651.84 615.606 650.651 616.684L613.266 586.553Z" fill="#455A64"/>
<path d="M641.032 589.935C640.87 590.123 639.886 589.474 638.487 589.365C637.092 589.22 635.953 589.676 635.847 589.466C635.709 589.293 636.913 588.367 638.604 588.528C640.296 588.673 641.215 589.792 641.032 589.935Z" fill="white"/>
<path d="M643.568 594.797C643.458 595.017 642.403 594.706 641.124 595.016C639.838 595.289 638.968 596.04 638.793 595.884C638.597 595.777 639.384 594.553 640.98 594.197C642.573 593.827 643.712 594.612 643.568 594.797Z" fill="white"/>
<path d="M641.787 601.518C641.588 601.425 642.112 600.262 643.435 599.591C644.753 598.91 645.951 599.19 645.898 599.412C645.873 599.653 644.861 599.769 643.782 600.337C642.694 600.88 641.984 601.646 641.787 601.518Z" fill="white"/>
<path d="M644.464 585.045C644.246 585.157 643.623 584.218 642.531 583.461C641.456 582.68 640.357 582.396 640.397 582.154C640.403 581.931 641.764 581.853 643.038 582.765C644.317 583.666 644.677 584.966 644.464 585.045Z" fill="white"/>
<path d="M741.219 553.143L740.893 579.625C740.893 579.625 766.463 588.964 766.858 593.866L717.85 594.86L716.743 553.57L741.219 553.143Z" fill="#263238"/>
<path d="M725.691 577.707C724.749 577.999 724.118 579.129 724.359 580.129C724.601 581.129 725.696 581.817 726.642 581.542C727.59 581.269 728.387 579.935 728.039 578.969C727.691 578.004 726.365 577.271 725.508 577.775" fill="#E0E0E0"/>
<path d="M717.85 594.86L717.893 590.694L764.865 591.298C764.865 591.298 767.068 592.249 766.857 593.866L717.85 594.86Z" fill="#455A64"/>
<path d="M741.681 579.347C741.678 579.598 740.485 579.737 739.325 580.566C738.145 581.366 737.562 582.464 737.34 582.369C737.119 582.324 737.442 580.817 738.864 579.838C740.274 578.846 741.728 579.116 741.681 579.347Z" fill="white"/>
<path d="M746.87 581.471C746.93 581.713 745.903 582.161 745.114 583.239C744.294 584.292 744.113 585.444 743.875 585.437C743.651 585.482 743.454 584.016 744.459 582.696C745.454 581.367 746.86 581.232 746.87 581.471Z" fill="white"/>
<path d="M749.932 587.862C749.716 587.92 749.355 586.673 749.939 585.287C750.515 583.895 751.631 583.33 751.737 583.538C751.877 583.742 751.167 584.493 750.704 585.64C750.214 586.773 750.17 587.832 749.932 587.862Z" fill="white"/>
<path d="M741.117 573.3C741.021 573.531 739.917 573.207 738.565 573.332C737.212 573.427 736.17 573.924 736.04 573.711C735.898 573.532 736.904 572.584 738.497 572.461C740.09 572.326 741.23 573.102 741.117 573.3Z" fill="white"/>
<path d="M706.265 431.917C706.289 431.915 706.335 432.157 706.401 432.618C706.469 433.157 706.553 433.827 706.657 434.643C706.868 436.402 707.132 438.953 707.434 442.107C708.038 448.414 708.736 457.138 709.39 466.781C709.995 476.384 710.541 485.073 710.943 491.484C711.116 494.572 711.257 497.107 711.361 498.972C711.395 499.793 711.422 500.467 711.443 501.01C711.455 501.477 711.45 501.723 711.426 501.724C711.403 501.725 711.362 501.483 711.307 501.02C711.25 500.48 711.18 499.809 711.095 498.99C710.937 497.128 710.722 494.598 710.46 491.515C709.963 485.2 709.362 476.469 708.708 466.825C708.025 457.232 707.407 448.551 706.951 442.146C706.72 439.062 706.531 436.531 706.391 434.667C706.34 433.845 706.298 433.173 706.264 432.63C706.241 432.166 706.241 431.92 706.265 431.917Z" fill="#455A64"/>
<path d="M835.612 328.86C836.644 330.821 832.57 332.588 832.57 332.588C833.515 333.353 832.567 336.691 830.907 336.84C831.611 337.369 832.105 337.426 832.419 338.245C832.734 339.064 832.705 340.041 832.21 340.767C831.715 341.493 830.712 341.884 829.895 341.557C830.757 342.602 830.866 344.198 830.152 345.349C829.723 346.041 829.013 346.54 828.232 346.764C827.838 346.876 827.432 346.914 827.024 346.883C826.877 346.872 826.701 346.876 826.566 346.814C826.498 346.782 826.448 346.735 826.398 346.681C826.172 346.441 825.993 346.167 825.748 345.94C825.656 345.854 825.561 345.772 825.463 345.694C825.015 345.336 824.51 345.054 823.982 344.833C823.74 344.731 823.452 344.675 823.228 344.538C823.077 344.445 822.981 344.29 822.849 344.174C822.011 343.438 820.821 343.139 819.778 342.822C818.601 342.464 817.371 342.03 816.584 341.09C815.797 340.149 815.69 338.542 816.68 337.816C815.903 337.714 815.347 336.895 815.405 336.118C815.462 335.341 816.028 334.664 816.727 334.313C817.426 333.962 818.239 333.898 819.02 333.96C818.133 333.717 817.679 332.611 817.964 331.741C818.248 330.872 819.1 330.274 819.996 330.067C820.892 329.861 821.832 329.987 822.731 330.18C823.63 330.373 827.381 331.145 828.299 331.204L829.242 328.783L829.365 328.474C831.036 328.267 831.524 328.126 833.007 328.037C834.121 327.973 835.183 328.046 835.612 328.86Z" fill="#FFBF9D"/>
<path d="M826.67 350.115C826.45 350.837 826.035 351.564 825.337 351.86C824.509 352.209 822.882 351.779 822.056 351.427C822.027 351.42 822.685 348.9 822.685 348.9L822.84 348.273C822.67 347.707 821.611 347.457 821.142 347.094C820.329 346.462 820.282 345.135 820.933 344.34C821.585 343.545 822.76 343.289 823.751 343.574C824.742 343.858 825.55 344.608 826.083 345.486C826.916 346.855 827.134 348.582 826.67 350.115Z" fill="#FFBF9D"/>
<path d="M830.189 341.642C830.243 341.453 827.263 340.445 823.535 339.388C819.806 338.332 816.739 337.629 816.685 337.817C816.631 338.005 819.609 339.014 823.339 340.071C827.067 341.126 830.135 341.83 830.189 341.642Z" fill="#FF9A6C"/>
<path d="M831.116 336.881C831.184 336.705 828.556 335.545 825.121 334.705C821.689 333.855 818.819 333.663 818.798 333.849C818.772 334.051 821.564 334.555 824.95 335.393C828.338 336.223 831.045 337.073 831.116 336.881Z" fill="#FF9A6C"/>
<path d="M832.029 332.231C832.094 332.041 829.866 331.199 827.014 330.621C824.166 330.042 821.846 329.722 821.802 329.902C821.755 330.103 824.033 330.738 826.866 331.314C829.695 331.888 831.967 332.414 832.029 332.231Z" fill="#FF9A6C"/>
<path d="M826.693 348.531C826.772 348.564 827.043 348.12 826.963 347.329C826.901 346.552 826.371 345.508 825.447 344.785C824.511 344.063 823.64 343.635 822.863 343.405C822.01 343.206 821.566 343.72 821.668 343.77C821.725 343.847 822.12 343.622 822.714 343.885C823.281 344.167 824.192 344.701 824.993 345.333C825.812 345.982 826.289 346.782 826.468 347.424C826.655 348.063 826.587 348.506 826.693 348.531Z" fill="#FF9A6C"/>
<path d="M717.142 371.807C717.094 371.8 717.138 371.107 717.258 369.858C717.389 368.485 717.559 366.708 717.764 364.574C718.182 360.112 718.667 353.942 718.941 347.114C719.209 340.284 719.215 334.093 719.151 329.613C719.117 327.47 719.088 325.686 719.066 324.307C719.046 323.053 719.058 322.358 719.105 322.355C719.153 322.353 719.23 323.043 719.333 324.294C719.438 325.544 719.545 327.357 719.637 329.6C719.824 334.084 719.896 340.292 719.626 347.141C719.351 353.987 718.788 360.168 718.247 364.623C717.978 366.851 717.729 368.651 717.523 369.889C717.321 371.131 717.188 371.812 717.142 371.807Z" fill="#263238"/>
<path d="M696.722 292.078C695.516 292.747 673.14 303.608 668.379 308.927C663.618 314.247 656.357 348.323 656.357 348.323L651.018 378.5L646.836 423.305L716.787 424.089C719.554 417.952 717.743 411.591 714.482 405.157L719.912 334.254L718.984 317.68L696.722 292.078Z" fill="#455A64"/>
<path d="M666.659 328.19C666.659 328.19 654.909 323.208 653.706 315.81C652.503 308.412 653.971 306.433 655.93 303.31C657.89 300.185 693.651 262.314 693.651 262.314L711.118 276.586L685.88 306.127C685.88 306.127 689.61 306.692 688.376 311.375" fill="#455A64"/>
<path d="M688.376 311.373C688.322 311.364 688.528 310.802 688.549 309.698C688.545 309.151 688.459 308.453 688.063 307.758C687.666 307.079 686.872 306.457 685.859 306.26L685.623 306.215L685.775 306.037C690.737 300.174 699.689 289.602 710.88 276.384L710.92 276.824C705.55 272.449 699.64 267.631 693.435 262.574L693.898 262.544C691.774 264.802 689.535 267.183 687.262 269.6C679.941 277.444 672.967 284.916 666.62 291.717C663.475 295.137 660.473 298.382 657.766 301.494C657.086 302.287 656.44 303.014 655.911 303.854C655.378 304.695 654.861 305.513 654.476 306.366C653.688 308.067 653.474 309.895 653.525 311.623C653.585 313.343 653.741 315.036 654.113 316.527C654.512 318.009 655.238 319.323 656.113 320.385C657.816 322.565 659.794 323.997 661.388 325.119C663.009 326.223 664.35 326.959 665.262 327.449C665.694 327.674 666.039 327.853 666.307 327.993C666.544 328.114 666.664 328.178 666.66 328.189C666.656 328.199 666.526 328.156 666.278 328.056C666.032 327.954 665.666 327.798 665.199 327.572C664.263 327.12 662.896 326.418 661.239 325.34C659.609 324.241 657.589 322.831 655.812 320.622C654.903 319.544 654.128 318.195 653.692 316.638C653.287 315.068 653.122 313.411 653.041 311.635C652.972 309.873 653.177 307.948 653.995 306.15C654.822 304.39 655.933 302.676 657.333 301.128C660.035 297.985 663.019 294.728 666.155 291.292C672.44 284.435 679.413 276.957 686.762 269.133C689.037 266.717 691.278 264.336 693.404 262.08L693.622 261.849L693.868 262.05C700.061 267.122 705.96 271.954 711.317 276.342L711.563 276.544L711.358 276.783C700.049 289.901 691.003 300.394 685.988 306.212L685.904 305.988C687.02 306.225 687.834 306.91 688.249 307.651C688.653 308.404 688.713 309.137 688.695 309.696C688.662 310.26 688.586 310.683 688.504 310.957C688.43 311.237 688.388 311.376 688.376 311.373Z" fill="#263238"/>
<path d="M696.003 231.912C696.003 231.912 693.954 230.303 693.534 233.711C693.114 237.118 696.393 250.745 696.781 250.672C697.169 250.598 699.21 258.467 698.89 259.592C698.57 260.718 695.591 263.898 695.591 263.898L709.505 275.266L713.811 267.554C713.811 267.554 718.834 265.805 721.974 261.217C725.114 256.628 737.044 239.17 737.378 236.723C737.714 234.276 735.238 233.945 733.41 236.288C731.581 238.63 727.425 244.209 726.675 244.485C725.924 244.759 725.468 243.781 725.887 243.169C726.305 242.557 734.118 230.056 734.859 227.759C735.849 224.688 732.488 224.053 732.488 224.053C732.488 224.053 733.66 220.796 731.938 220.19C730.214 219.584 728.521 221.235 726.637 223.988C724.752 226.742 718.468 235.787 717.81 236.179C717.26 236.506 716.638 236.132 717.217 234.957C717.796 233.783 725.45 222.683 725.419 221.124C725.389 219.565 724.251 217.117 720.994 220.397C717.737 223.676 710.458 237.433 709.338 238.578C708.217 239.722 704.925 243.516 703.641 243.105C702.357 242.694 699.323 238.741 698.652 235.938C697.978 233.137 696.003 231.912 696.003 231.912Z" fill="#FFBF9D"/>
<path d="M696.003 231.912C696.003 231.912 696.593 232.199 697.371 233.138C697.746 233.613 698.173 234.247 698.481 235.086C698.65 235.5 698.75 235.978 698.901 236.45C699.073 236.922 699.27 237.423 699.535 237.928C700.05 238.944 700.741 240.027 701.623 241.106C702.47 242.043 703.687 243.833 705.102 242.397C706.414 241.441 707.609 240.125 708.892 238.758C709.549 238.112 709.979 237.257 710.511 236.414C711.014 235.559 711.528 234.679 712.057 233.778C714.181 230.171 716.413 226.14 719.298 222.051C720.041 221.048 720.857 220.024 721.935 219.223C722.485 218.856 723.119 218.454 723.918 218.518C724.751 218.588 725.3 219.335 725.496 219.995C725.608 220.338 725.679 220.691 725.688 221.053C725.687 221.235 725.633 221.461 725.586 221.643L725.389 222.135C725.105 222.771 724.776 223.372 724.441 223.977C723.76 225.179 723.026 226.366 722.277 227.567C720.758 229.945 719.199 232.39 717.6 234.895C717.422 235.188 717.287 235.526 717.292 235.784C717.297 235.917 717.338 235.961 717.371 235.974C717.411 235.997 717.529 235.985 717.638 235.921L717.775 235.792L717.951 235.586C718.071 235.453 718.184 235.301 718.302 235.156L718.99 234.258C719.898 233.04 720.794 231.787 721.694 230.518C723.481 227.962 725.307 225.353 727.165 222.695C727.664 222.042 728.197 221.399 728.836 220.83C729.473 220.287 730.264 219.73 731.254 219.741C731.722 219.757 732.22 219.868 732.624 220.242C733.01 220.616 733.146 221.123 733.189 221.57C733.259 222.486 733.072 223.328 732.803 224.169L732.55 223.729C733.601 223.977 734.673 224.542 735.163 225.642C735.633 226.757 735.225 227.939 734.759 228.84C733.841 230.702 732.784 232.475 731.733 234.28C730.655 236.067 729.567 237.868 728.472 239.683C727.912 240.583 727.352 241.487 726.788 242.395L726.359 243.073L726.151 243.399C726.108 243.468 726.083 243.552 726.075 243.639C726.053 243.811 726.121 244.003 726.221 244.105C726.321 244.196 726.43 244.227 726.577 244.15C726.707 244.074 726.977 243.799 727.171 243.594L727.789 242.893C728.195 242.418 728.59 241.93 728.982 241.441C729.755 240.451 730.525 239.466 731.29 238.485C732.079 237.497 732.743 236.509 733.634 235.533C734.099 235.07 734.658 234.668 735.332 234.468C735.966 234.251 736.905 234.345 737.372 235.019C737.822 235.665 737.807 236.412 737.635 237.05C737.547 237.395 737.415 237.682 737.28 237.958C737.151 238.243 737.018 238.524 736.869 238.79C736.3 239.877 735.683 240.917 735.059 241.946C733.812 244.003 732.534 246.007 731.252 247.973C728.689 251.906 726.128 255.704 723.622 259.375C722.981 260.292 722.403 261.205 721.718 262.102C721.03 262.983 720.261 263.784 719.432 264.504C717.766 265.939 715.913 267.062 713.911 267.84L714.076 267.703C712.587 270.358 711.152 272.921 709.757 275.407L709.588 275.707L709.322 275.488C704.324 271.385 699.679 267.572 695.436 264.089L695.236 263.924L695.412 263.733C696.351 262.72 697.252 261.695 698.023 260.644C698.209 260.38 698.397 260.113 698.534 259.842C698.693 259.57 698.716 259.355 698.689 259.021C698.65 258.402 698.539 257.775 698.426 257.165C698.193 255.942 697.913 254.76 697.614 253.625C697.464 253.057 697.306 252.502 697.135 251.961C697.048 251.692 696.96 251.425 696.859 251.174C696.811 251.054 696.747 250.914 696.702 250.851C696.702 250.851 696.69 250.835 696.702 250.844C696.703 250.886 696.891 250.868 696.766 250.861C696.685 250.861 696.573 250.763 696.573 250.746L696.539 250.687C696.488 250.602 696.472 250.542 696.44 250.472C695.729 248.337 695.32 246.336 694.9 244.483C694.502 242.631 694.175 240.932 693.925 239.395C693.467 236.352 693.07 233.835 693.845 232.276C694.037 231.902 694.332 231.617 694.656 231.532C694.977 231.443 695.256 231.516 695.453 231.587C695.854 231.742 696.003 231.912 696.003 231.912C695.994 231.928 695.824 231.782 695.429 231.652C695.235 231.593 694.97 231.54 694.686 231.631C694.4 231.719 694.144 231.979 693.97 232.336C693.267 233.835 693.691 236.314 694.191 239.348C694.768 242.384 695.483 246.16 696.801 250.325C696.826 250.38 696.851 250.453 696.874 250.486L696.892 250.517C696.93 250.504 696.774 250.492 696.773 250.6C696.757 250.538 696.802 250.822 696.751 250.479C696.77 250.478 696.791 250.479 696.814 250.482C696.859 250.489 696.903 250.507 696.936 250.529C696.974 250.559 696.982 250.575 697.005 250.6C697.123 250.763 697.165 250.886 697.226 251.023C697.336 251.293 697.428 251.564 697.519 251.837C697.697 252.385 697.86 252.945 698.017 253.517C698.326 254.66 698.618 255.845 698.862 257.081C698.98 257.701 699.096 258.327 699.144 258.993C699.156 259.161 699.16 259.331 699.138 259.522C699.104 259.731 699.026 259.893 698.946 260.047C698.788 260.36 698.597 260.633 698.404 260.912C697.614 262.002 696.719 263.03 695.772 264.064L695.748 263.71C700.008 267.173 704.67 270.967 709.688 275.046L709.255 275.129C710.641 272.637 712.069 270.071 713.548 267.41L713.601 267.316L713.713 267.271C715.596 266.532 717.429 265.421 719.023 264.035C719.82 263.338 720.558 262.564 721.216 261.718C721.86 260.874 722.463 259.923 723.093 259.017C725.59 255.341 728.141 251.543 730.694 247.614C731.971 245.649 733.243 243.648 734.482 241.601C735.1 240.578 735.712 239.541 736.268 238.48C736.416 238.217 736.54 237.949 736.662 237.681C736.795 237.411 736.912 237.143 736.974 236.894C737.128 236.394 737.094 235.776 736.824 235.42C736.57 235.046 736.029 234.957 735.52 235.12C735.006 235.271 734.523 235.605 734.117 236.013C733.339 236.862 732.599 237.936 731.834 238.898C731.065 239.883 730.293 240.872 729.519 241.866C729.124 242.359 728.727 242.851 728.312 243.335L727.675 244.057C727.425 244.298 727.281 244.519 726.863 244.77C726.536 244.961 726.007 244.884 725.734 244.584C725.463 244.298 725.359 243.93 725.393 243.574C725.409 243.397 725.463 243.216 725.558 243.058L725.78 242.707L726.207 242.032C726.769 241.127 727.329 240.226 727.887 239.327C728.981 237.517 730.067 235.72 731.144 233.937C732.192 232.143 733.255 230.36 734.149 228.551C734.607 227.673 734.89 226.713 734.544 225.902C734.215 225.104 733.299 224.585 732.426 224.383L732.056 224.298L732.173 223.944C732.418 223.201 732.589 222.376 732.529 221.634C732.496 221.265 732.383 220.922 732.163 220.717C731.962 220.516 731.596 220.411 731.247 220.402C730.542 220.382 729.859 220.82 729.276 221.323C728.69 221.842 728.175 222.457 727.691 223.089C725.832 225.737 724.005 228.338 722.217 230.884C721.311 232.154 720.411 233.406 719.494 234.632L718.792 235.541C718.671 235.691 718.558 235.842 718.425 235.989L718.232 236.213C718.145 236.295 718.049 236.388 717.946 236.459C717.732 236.575 717.443 236.668 717.129 236.539C716.803 236.404 716.674 236.042 716.682 235.809C716.684 235.313 716.876 234.943 717.07 234.602C718.662 232.04 720.285 229.661 721.786 227.264C722.538 226.069 723.273 224.888 723.95 223.703C724.284 223.109 724.61 222.516 724.88 221.918L725.062 221.472C725.092 221.329 725.132 221.225 725.14 221.077C725.133 220.768 725.071 220.459 724.979 220.172C724.801 219.592 724.401 219.1 723.867 219.059C723.329 219.001 722.751 219.318 722.253 219.658C721.247 220.397 720.456 221.371 719.72 222.357C716.847 226.385 714.585 230.411 712.437 233.999C711.9 234.897 711.378 235.775 710.869 236.629C710.337 237.457 709.875 238.35 709.179 239.027C707.883 240.383 706.675 241.696 705.301 242.677C704.956 242.918 704.589 243.135 704.166 243.251C703.964 243.308 703.687 243.31 703.49 243.215C703.282 243.134 703.123 243.009 702.958 242.896C702.337 242.404 701.849 241.841 701.403 241.289C700.52 240.179 699.837 239.076 699.33 238.034C699.068 237.517 698.875 237.002 698.709 236.515C698.559 236.016 698.473 235.556 698.318 235.148C698.035 234.323 697.632 233.691 697.28 233.214C696.919 232.738 696.588 232.421 696.36 232.217C696.127 232.012 695.998 231.921 696.003 231.912Z" fill="#FF9A6C"/>
<path d="M685.956 306.208C683.961 309.61 681.921 313.046 679.118 315.829C676.315 318.613 672.621 320.719 668.66 320.821" fill="#455A64"/>
<path d="M668.66 320.82C668.651 320.695 670.003 320.69 672.007 320.006C674.01 319.347 676.597 317.866 678.878 315.585C681.161 313.3 682.79 310.827 683.971 309.053C685.142 307.266 685.87 306.156 685.955 306.207C686.033 306.252 685.454 307.444 684.382 309.307C683.302 311.154 681.714 313.711 679.362 316.068C677.008 318.425 674.265 319.904 672.152 320.466C671.096 320.758 670.214 320.872 669.605 320.886C668.997 320.905 668.662 320.861 668.66 320.82Z" fill="#263238"/>
<path d="M687.318 316.287C687.381 316.333 686.732 317.393 685.396 318.89C684.066 320.387 681.99 322.272 679.373 323.888C676.75 325.498 674.129 326.507 672.188 327.026C670.244 327.549 669 327.654 668.987 327.578C668.92 327.358 673.873 326.515 679.011 323.31C684.186 320.164 687.15 316.129 687.318 316.287Z" fill="#263238"/>
<g opacity="0.3">
<path d="M669.151 320.193C672.435 321.386 675.569 321.828 678.746 320.379C681.923 318.93 684.484 316.197 685.713 312.945C686.613 310.566 686.821 307.955 687.879 305.64C690.226 300.505 696.387 297.546 697.778 292.078C692.874 297.417 688.273 302.181 684.471 308.59C682.877 311.276 680.506 314.43 677.472 316.815C674.575 319.093 672.755 319.754 668.97 320.207" fill="black"/>
</g>
<g opacity="0.3">
<path d="M718.592 358.419L721.674 359.323C721.674 359.323 722.856 336.483 719.574 329.566L718.592 358.419Z" fill="black"/>
</g>
<path d="M416.575 298.507L407.771 249.731C405.183 237.669 410.089 226.118 422.293 223.881L423.432 223.74C434.904 222.318 445.553 229.886 447.901 241.136C450.085 251.604 452.363 263.197 453.005 268.879C454.333 280.641 442.745 283.932 442.745 283.932C442.718 283.937 443.863 291.039 444.445 294.465L448.544 302.009L438.497 301.273L416.575 298.507Z" fill="#AE7461"/>
<path d="M442.743 283.93C442.743 283.93 435.35 285.288 426.792 281.317C426.792 281.317 431.601 289.687 443.258 287.169L442.743 283.93Z" fill="#6F4439"/>
<path d="M444.662 252.559C444.805 253.441 444.171 254.288 443.247 254.453C442.325 254.618 441.461 254.038 441.318 253.157C441.176 252.275 441.809 251.428 442.73 251.262C443.655 251.097 444.52 251.678 444.662 252.559Z" fill="#263238"/>
<path d="M446.038 246.633C445.857 246.877 444.46 246.095 442.646 246.325C440.83 246.529 439.614 247.623 439.389 247.425C439.279 247.34 439.443 246.918 439.97 246.426C440.489 245.938 441.411 245.41 442.544 245.275C443.676 245.141 444.679 245.437 445.279 245.793C445.891 246.15 446.129 246.523 446.038 246.633Z" fill="#263238"/>
<path d="M428.583 254.589C428.725 255.471 428.092 256.318 427.168 256.483C426.245 256.648 425.382 256.068 425.239 255.187C425.097 254.305 425.73 253.458 426.652 253.293C427.576 253.127 428.44 253.708 428.583 254.589Z" fill="#263238"/>
<path d="M428.293 249.258C428.112 249.502 426.713 248.722 424.899 248.95C423.083 249.154 421.867 250.248 421.642 250.05C421.534 249.964 421.695 249.544 422.225 249.052C422.744 248.563 423.667 248.036 424.798 247.9C425.93 247.767 426.932 248.062 427.534 248.418C428.143 248.775 428.383 249.147 428.293 249.258Z" fill="#263238"/>
<path d="M436.546 262.317C436.525 262.215 437.629 261.881 439.428 261.422C439.886 261.317 440.314 261.171 440.352 260.847C440.419 260.5 440.164 260.028 439.872 259.519C439.295 258.458 438.693 257.345 438.061 256.18C435.53 251.42 433.637 247.483 433.83 247.382C434.025 247.283 436.233 251.06 438.764 255.82C439.377 256.996 439.963 258.115 440.521 259.187C440.761 259.689 441.138 260.246 440.988 260.966C440.906 261.325 440.597 261.618 440.31 261.733C440.024 261.86 439.764 261.898 439.536 261.94C437.707 262.27 436.566 262.419 436.546 262.317Z" fill="#263238"/>
<path d="M428.172 243.539C427.983 244.031 426.16 243.764 424.01 243.984C421.854 244.16 420.111 244.756 419.835 244.307C419.711 244.092 420.022 243.632 420.73 243.166C421.431 242.701 422.546 242.265 423.838 242.145C425.129 242.027 426.306 242.251 427.081 242.58C427.864 242.911 428.254 243.306 428.172 243.539Z" fill="#263238"/>
<path d="M445.457 241.317C445.139 241.779 443.603 241.559 441.826 241.785C440.043 241.959 438.589 242.515 438.182 242.136C438.002 241.949 438.181 241.507 438.782 241.028C439.374 240.552 440.413 240.086 441.637 239.947C442.861 239.81 443.969 240.034 444.645 240.367C445.329 240.701 445.595 241.094 445.457 241.317Z" fill="#263238"/>
<path d="M409.826 258.307C409.614 258.245 401.409 256.927 402.673 264.922C403.939 272.919 411.755 270.007 411.733 269.775C411.71 269.545 409.826 258.307 409.826 258.307Z" fill="#AE7461"/>
<path d="M408.796 267.13C408.756 267.111 408.671 267.249 408.451 267.394C408.236 267.536 407.851 267.67 407.407 267.58C406.508 267.404 405.581 266.174 405.314 264.738C405.178 264.013 405.221 263.297 405.39 262.682C405.544 262.058 405.86 261.59 406.275 261.447C406.686 261.284 407.03 261.49 407.164 261.699C407.307 261.906 407.281 262.074 407.326 262.081C407.351 262.098 407.477 261.921 407.36 261.6C407.301 261.446 407.177 261.272 406.964 261.149C406.747 261.023 406.449 260.988 406.157 261.066C405.544 261.206 405.075 261.86 404.888 262.535C404.67 263.218 404.603 264.026 404.756 264.84C405.062 266.444 406.131 267.822 407.347 267.974C407.936 268.033 408.381 267.79 408.596 267.562C408.811 267.326 408.826 267.141 408.796 267.13Z" fill="#6F4439"/>
<path d="M431.068 264.366C431.341 264.304 431.661 266.135 433.463 267.167C435.263 268.203 437.192 267.663 437.251 267.916C437.298 268.028 436.875 268.347 436.05 268.51C435.242 268.676 434.009 268.619 432.906 267.988C431.806 267.355 431.208 266.361 431.016 265.621C430.812 264.866 430.94 264.377 431.068 264.366Z" fill="#263238"/>
<path d="M462.35 227.943C462.149 227.491 461.743 227.156 461.281 226.973C460.275 226.574 459.224 226.81 458.195 226.952C455.636 227.306 453.001 227.047 450.544 226.25C451.276 225.728 451.942 225.128 452.473 224.406C453.574 222.915 454.012 220.824 453.147 219.189C452.985 218.882 452.742 218.572 452.397 218.522C451.85 218.444 451.472 219.025 451.17 219.485C450.18 221.001 449.162 221.743 447.346 221.839C446.218 221.9 445.104 221.817 444.146 221.412C444.105 221.382 444.068 221.346 444.027 221.315C443.542 220.95 443.069 220.603 442.605 220.269L442.601 220.265L442.602 220.267C439.108 217.749 436.181 216.083 433.333 215.424C429.159 214.457 422.488 214.834 418.557 216.534C414.627 218.235 411.464 222.106 411.546 226.365C408.947 224.789 405.5 225.337 402.876 226.887L402.801 226.867C399.857 228.453 398.598 231.997 398.171 235.299C398.148 235.479 398.132 235.661 398.112 235.842C397.317 237.664 396.108 239.308 394.554 240.56C394.28 240.781 393.968 241.047 393.985 241.397C394.002 241.743 394.336 241.983 394.648 242.138C395.479 242.554 396.404 242.77 397.333 242.791C397.166 243.586 396.945 244.367 396.639 245.127C396.38 245.773 396.072 246.548 396.476 247.115C396.788 247.555 397.428 247.657 397.945 247.498C398.462 247.339 398.886 246.977 399.294 246.622C399.075 247.502 398.857 248.384 398.638 249.264C399.796 249.285 400.949 249.016 401.993 248.517C403.117 251.369 404.468 256.763 405.546 258.647C407.689 258.355 408.172 258.044 409.305 258.232C410.769 258.477 410.621 261.01 412.326 260.034C413.193 259.537 414.068 255.841 414.232 254.859C415.313 248.34 414.957 241.59 413.203 235.218C414.28 233.651 415.664 232.293 417.253 231.241L417.133 231.388C420.247 229.744 423.795 228.052 427.156 229.107C429.764 229.924 431.578 232.203 433.699 233.916C437.721 237.164 441.92 238.582 447.07 238.012C448.083 241.471 449.121 247.226 449.81 250.495L451.611 243.462L451.618 243.488C451.786 243.067 451.914 242.647 452.036 242.229L452.081 242.1L452.079 242.086C452.271 241.415 452.448 240.744 452.718 240.068C452.73 240.076 452.742 240.083 452.754 240.091C454.796 241.389 457.067 238.573 455.35 236.871C455.009 236.533 454.621 236.246 454.192 236.025C455.133 236.664 456.415 236.842 457.44 236.348C458.465 235.853 459.131 234.641 458.864 233.539C458.681 232.789 458.027 232.191 457.289 231.997C458.757 231.885 460.192 231.342 461.345 230.429C462.1 229.835 462.793 228.935 462.35 227.943Z" fill="#263238"/>
<path d="M415.462 227.139C415.491 227.166 415.017 227.525 414.449 228.395C413.887 229.261 413.327 230.704 413.247 232.561C413.202 233.484 413.242 234.505 413.41 235.583C413.574 236.662 413.842 237.802 414.114 239.006C414.383 240.21 414.672 241.482 414.803 242.831C414.867 243.505 414.893 244.197 414.853 244.898C414.809 245.587 414.746 246.34 414.329 246.991C413.999 247.521 413.356 247.832 412.754 247.803C412.148 247.79 411.577 247.56 411.127 247.194C410.232 246.431 409.869 245.345 409.527 244.392L409.778 244.384C409.512 245.33 409.233 246.266 408.728 247.058C408.233 247.852 407.469 248.444 406.63 248.651C406.212 248.754 405.775 248.753 405.383 248.627C404.984 248.506 404.667 248.24 404.431 247.947C404.204 247.646 404.055 247.298 404.019 246.948C403.985 246.597 404.071 246.247 404.255 245.979L404.397 246.07C403.65 247.238 402.777 247.939 402.161 248.347C401.851 248.553 401.597 248.685 401.424 248.771C401.249 248.854 401.157 248.89 401.154 248.884C401.15 248.876 401.236 248.825 401.402 248.731C401.566 248.632 401.81 248.487 402.108 248.273C402.701 247.846 403.54 247.136 404.252 245.981L404.394 246.073C404.063 246.551 404.155 247.288 404.588 247.824C404.805 248.088 405.095 248.322 405.446 248.424C405.796 248.532 406.193 248.532 406.575 248.434C407.344 248.236 408.057 247.68 408.517 246.927C408.993 246.172 409.262 245.26 409.523 244.313L409.633 243.912L409.776 244.306C410.116 245.258 410.485 246.298 411.301 246.983C411.703 247.311 412.227 247.518 412.756 247.527C413.288 247.547 413.806 247.294 414.096 246.839C414.462 246.274 414.536 245.561 414.576 244.882C414.616 244.198 414.592 243.521 414.53 242.858C414.405 241.53 414.125 240.266 413.863 239.062C413.597 237.857 413.337 236.71 413.181 235.615C413.021 234.522 412.991 233.487 413.05 232.549C413.156 230.663 413.755 229.198 414.357 228.336C414.965 227.469 415.462 227.139 415.462 227.139Z" fill="#455A64"/>
<path d="M453.679 232.909C453.683 232.912 453.655 232.944 453.597 233.003C453.527 233.072 453.441 233.158 453.337 233.262C453.223 233.377 453.077 233.515 452.887 233.657C452.701 233.805 452.492 233.982 452.229 234.142C451.215 234.828 449.541 235.611 447.328 235.822C445.137 236.035 442.41 235.673 439.812 234.309C437.196 232.99 434.744 230.831 432.612 228.254C431.534 226.968 430.609 225.623 429.63 224.399C428.655 223.174 427.618 222.063 426.442 221.242C425.277 220.412 423.99 219.866 422.728 219.718C422.097 219.633 421.483 219.686 420.906 219.788C420.33 219.909 419.798 220.11 419.317 220.354C418.353 220.849 417.622 221.533 417.09 222.202C416.557 222.877 416.233 223.552 416.028 224.121C415.661 225.279 415.739 225.975 415.694 225.97C415.689 225.97 415.686 225.928 415.685 225.846C415.685 225.746 415.685 225.626 415.685 225.478C415.694 225.156 415.758 224.68 415.925 224.087C416.119 223.503 416.433 222.806 416.966 222.106C417.498 221.413 418.239 220.7 419.225 220.18C419.718 219.923 420.266 219.709 420.862 219.578C421.458 219.464 422.103 219.404 422.754 219.488C424.064 219.63 425.394 220.189 426.589 221.031C427.797 221.867 428.859 222.997 429.843 224.229C430.833 225.46 431.758 226.802 432.827 228.076C434.943 230.633 437.36 232.769 439.929 234.08C442.481 235.435 445.147 235.808 447.311 235.624C449.491 235.443 451.151 234.7 452.171 234.05C453.196 233.394 453.652 232.879 453.679 232.909Z" fill="#455A64"/>
<path d="M453.947 227.6C453.959 227.614 453.825 227.741 453.571 227.957C453.32 228.178 452.926 228.463 452.418 228.781C451.911 229.103 451.273 229.43 450.539 229.733C449.799 230.024 448.961 230.284 448.058 230.458C447.154 230.621 446.278 230.682 445.481 230.679C444.687 230.661 443.972 230.589 443.382 230.471C442.793 230.358 442.322 230.234 442.007 230.119C441.69 230.009 441.519 229.94 441.526 229.923C441.541 229.873 442.244 230.105 443.414 230.279C443.998 230.37 444.702 230.421 445.483 230.424C446.263 230.413 447.12 230.347 448.007 230.186C448.891 230.016 449.714 229.769 450.444 229.496C451.169 229.211 451.806 228.909 452.317 228.614C453.346 228.029 453.916 227.559 453.947 227.6Z" fill="#455A64"/>
<path d="M564.684 376.008L569.237 375.297C569.237 375.297 571.327 373.116 573.947 371.604C576.567 370.092 578.861 370.083 579.519 371.34C580.178 372.597 579.851 374.1 578.515 375.353C577.179 376.606 572.034 377.918 571.744 380.135C571.455 382.351 587.972 389.318 587.972 389.318L574.924 404.086L555.975 394.065L555.102 392.52L554.907 388.466L564.684 376.008Z" fill="#AE7461"/>
<path d="M432.49 416.727L438.217 483.959L436.277 495.646C436.277 495.646 412.825 562.603 413.322 590.327L440.76 589.025C440.76 589.025 467.537 513.212 469.635 504.83C471.733 496.449 482.541 440.443 482.541 440.443L500.336 484.74L500.832 495.069L490.583 559.331L522.454 560.979C522.454 560.979 535.494 488.042 534.207 478.578C532.92 469.114 511.871 395.155 511.871 395.155L501.002 385.73L439.001 396.124L432.49 416.727Z" fill="#263238"/>
<path d="M519.506 541.386L518.527 568.342C518.527 568.342 544.334 578.467 544.615 583.467L494.692 583.297L494.573 541.231L519.506 541.386Z" fill="#263238"/>
<path d="M503.094 566.021C502.127 566.295 501.457 567.431 501.68 568.455C501.902 569.48 502.999 570.206 503.971 569.949C504.942 569.694 505.785 568.355 505.456 567.363C505.126 566.372 503.793 565.593 502.91 566.087" fill="#E0E0E0"/>
<path d="M494.691 583.297L494.837 579.057L542.648 580.806C542.648 580.806 544.868 581.827 544.614 583.467L494.691 583.297Z" fill="#455A64"/>
<path d="M519.337 568.077C519.327 568.334 518.109 568.445 516.907 569.262C515.686 570.047 515.065 571.153 514.841 571.051C514.616 571.001 514.983 569.473 516.455 568.51C517.917 567.533 519.391 567.843 519.337 568.077Z" fill="white"/>
<path d="M524.568 570.365C524.623 570.612 523.566 571.044 522.736 572.122C521.875 573.175 521.665 574.343 521.421 574.33C521.192 574.369 521.026 572.873 522.083 571.553C523.129 570.224 524.564 570.122 524.568 570.365Z" fill="white"/>
<path d="M527.529 576.946C527.308 576.999 526.971 575.721 527.6 574.324C528.22 572.922 529.37 572.374 529.473 572.587C529.609 572.798 528.869 573.546 528.369 574.702C527.843 575.844 527.771 576.922 527.529 576.946Z" fill="white"/>
<path d="M518.91 561.908C518.808 562.14 517.691 561.783 516.313 561.878C514.932 561.942 513.86 562.423 513.733 562.203C513.593 562.017 514.641 561.076 516.267 560.989C517.888 560.89 519.03 561.707 518.91 561.908Z" fill="white"/>
<path d="M438.099 569.753L438.29 600.708L445.544 625.148C446.066 626.91 444.979 628.742 443.176 629.141C442.167 629.364 441.118 629.094 440.351 628.404C435.467 624.013 417.585 607.769 417.698 605.502C417.83 602.878 415.316 572.863 415.316 572.863L438.099 569.753Z" fill="#263238"/>
<path d="M443.176 629.143L417.638 603.416L417.676 604.726C417.709 605.859 418.14 606.946 418.905 607.787C420.95 610.038 426.731 616.135 440.257 628.408C441.043 629.123 442.143 629.399 443.176 629.143Z" fill="#455A64"/>
<g opacity="0.6">
<path d="M423.735 593.25C424.531 593.763 424.82 594.929 424.337 595.74C423.852 596.551 422.663 596.855 421.859 596.354C421.054 595.854 420.664 594.466 421.235 593.714C421.807 592.962 423.223 592.682 423.884 593.36" fill="white"/>
</g>
<path d="M435.666 615.827C435.845 615.908 436.499 614.267 438.326 613.342C440.123 612.362 441.857 612.75 441.89 612.557C441.915 612.48 441.513 612.251 440.781 612.17C440.056 612.085 439.006 612.217 438.005 612.74C437.006 613.268 436.304 614.055 435.966 614.698C435.624 615.346 435.589 615.805 435.666 615.827Z" fill="white"/>
<path d="M438.004 619.907C438.157 620.036 439.126 619.002 440.723 618.497C442.309 617.957 443.708 618.213 443.753 618.02C443.838 617.859 442.321 617.245 440.509 617.851C438.691 618.438 437.84 619.828 438.004 619.907Z" fill="white"/>
<path d="M431.383 610.636C431.533 610.778 433.017 609.179 435.431 608.178C437.83 607.14 440.017 607.181 440.017 606.975C440.063 606.809 437.738 606.445 435.162 607.553C432.578 608.633 431.231 610.553 431.383 610.636Z" fill="white"/>
<path d="M430.534 601.231C430.622 601.414 432.321 600.651 434.557 600.505C436.791 600.33 438.582 600.844 438.643 600.651C438.725 600.496 436.908 599.645 434.507 599.828C432.106 599.989 430.431 601.09 430.534 601.231Z" fill="white"/>
<path d="M430.247 592.146C430.348 592.322 432.047 591.241 434.414 591.28C436.782 591.267 438.469 592.367 438.573 592.192C438.622 592.126 438.27 591.747 437.541 591.356C436.817 590.963 435.694 590.61 434.418 590.601C433.143 590.597 432.017 590.937 431.288 591.322C430.553 591.704 430.198 592.079 430.247 592.146Z" fill="white"/>
<path d="M402.004 300.002C402.004 300.002 385.31 310.029 397.365 333.93C412.143 363.234 426.219 404.444 431.046 407.169C433.019 408.283 442.289 403.657 442.289 403.657L449.652 390.118L430.14 339.444L417.4 310.145L402.004 300.002Z" fill="#455A64"/>
<path d="M414.175 292.239L402.002 300L434.308 356.631L429.634 407.234L436.934 411.34L512.333 400.953L514.774 397.567L506.499 373.798L495.47 347.116C495.47 347.116 484.566 322.869 478.126 312.539C471.685 302.208 464.774 291.761 464.774 291.761L446.291 290.495L444.028 287.997C444.028 287.997 441.241 293.018 433.657 293.483C427.489 293.861 414.392 290.529 414.392 290.529L414.175 292.239Z" fill="#455A64"/>
<path d="M564.683 376.008C564.683 376.008 520.453 340.801 516.843 336.687C513.233 332.575 482.489 300.399 482.489 300.399C482.489 300.399 471.236 289.674 464.775 291.761C456.858 294.32 472.627 332.178 472.627 332.178C472.627 332.178 505.163 359.017 510.437 364.122C515.71 369.228 547.393 389.501 547.393 389.501L554.908 388.466L564.683 376.008Z" fill="#455A64"/>
<path d="M421.221 322.641C421.243 322.633 421.358 322.863 421.554 323.31C421.774 323.83 422.049 324.48 422.386 325.276C423.088 326.99 424.127 329.46 425.433 332.504C428.031 338.597 431.803 346.934 435.951 356.158C440.101 365.383 443.703 373.811 446.085 379.999C447.28 383.091 448.207 385.61 448.792 387.37C449.063 388.191 449.285 388.862 449.462 389.397C449.608 389.863 449.674 390.111 449.652 390.119C449.629 390.127 449.52 389.894 449.332 389.443C449.124 388.92 448.862 388.264 448.542 387.461C447.88 385.732 446.885 383.243 445.635 380.178C443.141 374.044 439.475 365.659 435.326 356.437C431.179 347.217 427.472 338.839 424.986 332.691C423.736 329.621 422.765 327.119 422.137 325.374C421.849 324.558 421.613 323.892 421.425 323.361C421.27 322.896 421.198 322.648 421.221 322.641Z" fill="#263238"/>
<path d="M475.362 308.322C475.378 308.305 475.516 308.432 475.768 308.697C476.041 308.951 476.337 309.393 476.736 309.954C477.517 311.087 478.534 312.79 479.722 314.929C482.099 319.207 485.174 325.222 488.429 331.934C491.689 338.645 494.528 344.771 496.53 349.228C497.528 351.458 498.325 353.269 498.854 354.528C499.386 355.788 499.658 356.493 499.616 356.512C499.573 356.532 499.217 355.864 498.612 354.638C497.965 353.301 497.116 351.547 496.091 349.43C493.922 344.925 491.02 338.895 487.812 332.229C484.56 325.525 481.557 319.482 479.296 315.156C478.165 312.993 477.217 311.261 476.512 310.097C475.831 308.913 475.316 308.375 475.362 308.322Z" fill="#263238"/>
<g opacity="0.3">
<path d="M431.315 346.648C431.315 346.648 428.176 329.209 429.988 319.02C431.802 308.832 437.025 293.998 437.025 293.998L446.234 290.121L494.201 313.29L497.745 317.572L491.39 337.652L496.133 374.288L431.315 346.648Z" fill="black"/>
</g>
<path d="M442.856 316.029C446.453 250.441 483.506 215.145 530.554 217.694C577.875 220.258 610.575 259.335 606.976 324.923C603.379 390.51 566.6 425.823 519.279 423.258C472.232 420.708 439.258 381.616 442.856 316.029ZM562.39 322.506C564.866 277.363 550.577 257.792 528.42 256.592C506.536 255.405 490.191 273.316 487.715 318.459C485.238 363.603 499.528 383.172 521.411 384.358C543.57 385.56 559.914 367.65 562.39 322.506Z" fill="#FDFFA8"/>
<g opacity="0.3">
<path d="M442.856 316.029C446.453 250.441 483.506 215.145 530.554 217.694C577.875 220.258 610.575 259.335 606.976 324.923C603.379 390.51 566.6 425.823 519.279 423.258C472.232 420.708 439.258 381.616 442.856 316.029ZM562.39 322.506C564.866 277.363 550.577 257.792 528.42 256.592C506.536 255.405 490.191 273.316 487.715 318.459C485.238 363.603 499.528 383.172 521.411 384.358C543.57 385.56 559.914 367.65 562.39 322.506Z" fill="black"/>
</g>
<path d="M429.298 316.089C432.895 250.502 469.947 215.204 516.996 217.753C564.317 220.317 597.016 259.395 593.419 324.982C589.821 390.57 553.041 425.882 505.72 423.317C458.671 420.768 425.7 381.676 429.298 316.089ZM548.831 322.566C551.307 277.422 537.017 257.853 514.861 256.652C492.977 255.465 476.633 273.376 474.156 318.519C471.681 363.663 485.968 383.234 507.852 384.419C530.01 385.619 546.354 367.709 548.831 322.566Z" fill="#FDFFA8"/>
<path d="M478.989 415.304L470.808 410.359C470.808 410.359 462.455 404.884 461.943 404.04C461.431 403.196 460.913 400.973 460.9 399.765C460.886 398.557 464.667 395.866 465.082 393.534C465.496 391.202 463.014 388.96 462.121 388.572C461.227 388.183 460.31 389.554 460.114 390.573C459.918 391.592 458.414 393.083 456.061 393.61C453.708 394.137 450.464 397.174 450.464 397.174L443.392 410.411C444.6 412.677 459.105 418.066 459.547 418.329C459.989 418.593 475.453 418.877 477.001 418.308C478.549 417.739 479.075 417.15 478.989 415.304Z" fill="#AE7461"/>
<path d="M594.169 387.732C594.25 389.942 589.808 389.793 589.808 389.793C590.329 390.888 588.026 393.494 586.464 392.918C586.87 393.696 587.291 393.959 587.219 394.833C587.147 395.707 586.699 396.577 585.937 397.02C585.175 397.463 584.101 397.387 583.505 396.74C583.83 398.052 583.236 399.539 582.093 400.272C581.406 400.712 580.55 400.859 579.747 400.727C579.343 400.66 578.96 400.519 578.605 400.317C578.478 400.245 578.316 400.174 578.222 400.06C578.175 400.003 578.15 399.938 578.128 399.87C578.028 399.556 577.985 399.233 577.864 398.923C577.818 398.807 577.768 398.692 577.712 398.578C577.464 398.064 577.131 397.593 576.749 397.168C576.574 396.972 576.34 396.798 576.196 396.578C576.1 396.43 576.08 396.248 576.011 396.087C575.572 395.064 574.629 394.285 573.825 393.551C572.918 392.724 571.996 391.806 571.694 390.62C571.393 389.434 571.993 387.938 573.201 387.707C572.544 387.283 572.398 386.305 572.786 385.629C573.175 384.952 573.98 384.583 574.763 384.566C575.546 384.549 576.307 384.84 576.984 385.231C576.29 384.632 576.359 383.439 576.994 382.777C577.628 382.114 578.655 381.94 579.553 382.136C580.451 382.334 581.244 382.85 581.972 383.409C582.7 383.969 585.75 386.271 586.553 386.718L588.455 384.938L588.7 384.712C590.297 385.241 590.799 385.322 592.176 385.877C593.208 386.293 594.135 386.814 594.169 387.732Z" fill="#AE7461"/>
<path d="M576.883 403.082C576.372 403.641 575.683 404.118 574.923 404.086C574.025 404.046 572.744 402.962 572.151 402.29C572.128 402.272 573.814 400.278 573.814 400.278L574.226 399.778C574.318 399.194 573.471 398.515 573.205 397.987C572.744 397.068 573.277 395.851 574.21 395.411C575.143 394.973 576.314 395.245 577.086 395.926C577.857 396.608 578.261 397.631 578.361 398.651C578.519 400.247 577.969 401.897 576.883 403.082Z" fill="#AE7461"/>
<path d="M583.733 396.943C583.864 396.796 581.613 394.609 578.706 392.06C575.799 389.509 573.337 387.562 573.207 387.708C573.076 387.855 575.327 390.04 578.234 392.591C581.141 395.142 583.603 397.091 583.733 396.943Z" fill="#6F4439"/>
<path d="M586.635 393.045C586.773 392.917 584.903 390.744 582.168 388.515C579.439 386.277 576.933 384.875 576.833 385.035C576.721 385.206 579.023 386.857 581.714 389.065C584.413 391.261 586.487 393.187 586.635 393.045Z" fill="#6F4439"/>
<path d="M589.474 389.239C589.614 389.096 587.97 387.38 585.646 385.638C583.327 383.895 581.373 382.614 581.255 382.757C581.124 382.917 582.905 384.467 585.212 386.2C587.518 387.931 589.34 389.377 589.474 389.239Z" fill="#6F4439"/>
<path d="M577.591 401.663C577.648 401.726 578.085 401.442 578.356 400.694C578.636 399.967 578.61 398.798 578.09 397.748C577.56 396.696 576.958 395.937 576.356 395.395C575.673 394.851 575.049 395.125 575.12 395.214C575.138 395.308 575.592 395.274 576.015 395.766C576.404 396.263 576.994 397.135 577.444 398.048C577.9 398.983 577.985 399.911 577.869 400.567C577.761 401.224 577.507 401.595 577.591 401.663Z" fill="#6F4439"/>
<path d="M286.668 555.326L282.427 580.217C282.427 580.217 307.535 590.409 307.753 595.301L258.957 594.565L265.07 553.662L286.668 555.326Z" fill="#263238"/>
<path d="M267.368 577.772C266.419 578.029 265.752 579.131 265.957 580.136C266.162 581.139 267.227 581.861 268.179 581.622C269.13 581.384 269.971 580.085 269.66 579.111C269.35 578.137 268.055 577.362 267.185 577.834" fill="#E0E0E0"/>
<path d="M258.956 594.564L259.572 590.442L305.861 592.677C305.861 592.677 308.019 593.701 307.752 595.301L258.956 594.564Z" fill="#455A64"/>
<path d="M283.22 579.969C283.208 580.218 282.016 580.314 280.833 581.099C279.63 581.852 279.01 582.925 278.792 582.823C278.574 582.772 278.949 581.283 280.399 580.358C281.839 579.42 283.276 579.741 283.22 579.969Z" fill="white"/>
<path d="M288.308 582.265C288.359 582.509 287.321 582.918 286.497 583.962C285.644 584.981 285.424 586.12 285.186 586.106C284.962 586.142 284.818 584.676 285.865 583.398C286.902 582.111 288.306 582.027 288.308 582.265Z" fill="white"/>
<path d="M291.126 588.731C290.909 588.781 290.594 587.527 291.226 586.168C291.847 584.804 292.979 584.282 293.076 584.492C293.208 584.7 292.475 585.422 291.973 586.546C291.445 587.658 291.363 588.71 291.126 588.731Z" fill="white"/>
<path d="M282.874 573.933C282.771 574.16 281.683 573.799 280.334 573.875C278.984 573.922 277.93 574.379 277.809 574.164C277.673 573.981 278.71 573.071 280.299 573.006C281.887 572.926 282.994 573.739 282.874 573.933Z" fill="white"/>
<path d="M216.119 559.234L203.17 582.247C203.17 582.247 221.075 602.496 219.076 606.97L175.727 584.689L194.502 548.044L216.119 559.234Z" fill="#263238"/>
<path d="M190.788 573.387C189.825 573.196 188.731 573.888 188.466 574.877C188.2 575.865 188.828 576.984 189.788 577.192C190.748 577.4 192.082 576.61 192.24 575.601C192.398 574.593 191.587 573.324 190.598 573.362" fill="#E0E0E0"/>
<path d="M175.726 584.69L177.756 581.067L218.56 603.783C218.56 603.783 220.033 605.656 219.076 606.971L175.726 584.69Z" fill="#455A64"/>
<path d="M203.993 582.377C203.871 582.595 202.76 582.152 201.349 582.331C199.934 582.472 198.899 583.157 198.749 582.969C198.576 582.827 199.58 581.66 201.291 581.475C203.002 581.274 204.144 582.196 203.993 582.377Z" fill="white"/>
<path d="M207.517 586.686C207.454 586.926 206.342 586.833 205.135 587.403C203.914 587.937 203.206 588.86 203.001 588.741C202.784 588.675 203.311 587.299 204.824 586.618C206.329 585.925 207.623 586.472 207.517 586.686Z" fill="white"/>
<path d="M207.139 593.722C206.921 593.67 207.203 592.409 208.377 591.472C209.546 590.527 210.792 590.559 210.785 590.791C210.81 591.036 209.83 591.357 208.876 592.141C207.907 592.903 207.361 593.809 207.139 593.722Z" fill="white"/>
<path d="M206.391 576.82C206.198 576.977 205.386 576.171 204.145 575.642C202.915 575.086 201.767 575.028 201.755 574.781C201.715 574.557 203.051 574.203 204.503 574.848C205.958 575.482 206.584 576.7 206.391 576.82Z" fill="white"/>
<path d="M246.331 406.944C246.331 406.944 255.05 490.797 252.46 500.508C249.871 510.218 208.142 584.356 208.142 584.356L179.303 568.437C179.303 568.437 214.361 501.292 213.919 498.45C213.477 495.608 214.857 487.537 214.857 487.537L195.512 423.215L199.36 395.592L233.577 392.171L246.331 406.944Z" fill="#263238"/>
<path d="M223.452 438.57C224.331 441.154 270.736 493.811 270.736 493.811C270.736 493.811 270.429 495.742 271.266 497.118C272.402 498.984 275.229 499.898 275.229 499.898L256.829 575.782L289.056 578.736C289.056 578.736 308.288 502.803 307.552 493.257C306.817 483.711 260.727 409.356 260.727 409.356L227.769 407.582L223.452 438.57Z" fill="#263238"/>
<path d="M247.192 425.264C247.236 425.278 247.114 426.026 246.856 427.35C246.692 428.692 246.584 430.65 246.702 433.072C246.924 437.922 248.118 444.551 249.497 451.851C250.882 459.156 252.106 465.804 252.37 470.7C252.516 473.143 252.433 475.134 252.27 476.493C252.024 477.846 251.867 478.583 251.821 478.571C251.775 478.561 251.844 477.806 252.004 476.465C252.084 475.114 252.094 473.152 251.886 470.734C251.501 465.891 250.208 459.283 248.823 451.977C247.443 444.673 246.319 437.997 246.218 433.091C246.16 430.641 246.344 428.654 246.593 427.305C246.936 425.971 247.147 425.249 247.192 425.264Z" fill="#455A64"/>
<path d="M315.964 296.112C315.964 296.112 321.848 286.711 327.222 285.873C332.597 285.034 341.925 285.848 341.925 285.848L336.949 306.113L325.758 308.031L315.964 296.112Z" fill="#FFBF9D"/>
<path d="M230.103 311.479L271.735 314.005L314.427 294.241L327.638 310.32L275.335 337.944L246.412 341.555L230.103 311.479Z" fill="#455A64"/>
<path d="M359.773 354.32L326.731 348.572L319.273 390.918L273.48 382.951L280.938 340.604L171.672 321.595L177.202 290.195L295.371 178.932L344.643 187.503L234.596 293.352L289.085 302.831L295.731 265.092L340.074 272.807L333.428 310.545L366.47 316.294L359.773 354.32Z" fill="#FDFFA8"/>
<g opacity="0.3">
<path d="M359.773 354.32L326.731 348.572L319.273 390.918L273.48 382.951L280.938 340.604L171.672 321.595L177.202 290.195L295.371 178.932L344.643 187.503L234.596 293.352L289.085 302.831L295.731 265.092L340.074 272.807L333.428 310.545L366.47 316.294L359.773 354.32Z" fill="black"/>
</g>
<path d="M348.603 352.781L315.562 347.032L308.105 389.379L262.31 381.412L269.768 339.065L160.502 320.056L166.032 288.656L284.201 177.391L333.472 185.962L223.424 291.811L277.913 301.29L284.559 263.553L328.903 271.267L322.257 309.005L355.298 314.753L348.603 352.781Z" fill="#FDFFA8"/>
<g opacity="0.3">
<path d="M249.866 332.712C249.866 332.712 245.089 319.928 240.862 314.997C236.635 310.065 231.987 302.919 231.987 302.919L253.257 293.608L242.157 285.081L223.437 293.608L222.315 310.322L244.903 333.727L249.866 332.712Z" fill="black"/>
</g>
<path d="M234.359 248.035C238.653 251.535 241.03 257.227 240.491 262.721C240.23 265.389 239.428 268.425 241.138 270.5C242.829 272.553 246.231 272.561 247.849 274.672C249.755 277.157 248.047 280.766 248.685 283.824C249.285 286.695 252.278 288.861 255.211 288.547C251.725 291.266 247.473 293.001 243.071 293.503C241.977 292.049 240.882 290.594 239.787 289.14C241.034 290.669 240.648 293.061 239.381 294.573C238.113 296.087 236.189 296.887 234.29 297.446C225.217 300.113 214.914 298.241 207.377 292.557" fill="#263238"/>
<path d="M183.341 270.659C184.054 268.624 185.223 266.747 185.718 264.648C186.781 260.136 184.662 254.993 186.954 250.959C188.585 248.087 191.966 246.732 195.156 245.823C198.346 244.915 201.765 244.158 204.175 241.891C205.942 240.229 206.975 237.912 208.737 236.243C211.248 233.865 214.9 233.114 218.365 232.971C221.924 232.823 225.591 233.235 228.756 234.855C231.921 236.477 234.518 239.456 235.019 242.96C235.263 244.668 235.018 246.449 235.526 248.1C236.084 249.914 237.481 251.345 238.326 253.047C240.112 256.643 239.012 261.417 235.828 263.881L210.81 294.728C205.646 296.552 193.274 293.982 189.387 290.143C185.498 286.306 181.538 275.802 183.341 270.659Z" fill="#263238"/>
<path d="M235.261 259.891C234.397 252.759 229.121 244.249 221.989 245.411L199.908 252.311C197.742 252.664 196.208 254.605 196.375 256.781L201.822 308.381C201.786 308.391 200.179 309.676 199.128 309.252C198.855 309.142 198.603 309.444 198.765 309.687C201.324 313.541 213.431 330.405 226.348 325.581C229.234 324.503 226.248 315.475 226.649 312.16L226.436 303.665C226.239 299.328 226.136 297.549 226.14 297.59C226.14 297.59 235.252 295.549 236.473 283.512C237.081 277.525 236.222 267.814 235.261 259.891Z" fill="#FFBF9D"/>
<path d="M233.518 270.807C233.593 271.614 232.968 272.341 232.121 272.436C231.278 272.528 230.53 271.953 230.455 271.146C230.38 270.339 231.005 269.61 231.849 269.517C232.695 269.423 233.443 270.001 233.518 270.807Z" fill="#263238"/>
<path d="M218.562 271.445C218.637 272.252 218.012 272.98 217.165 273.074C216.322 273.167 215.574 272.591 215.499 271.784C215.424 270.978 216.049 270.249 216.893 270.156C217.739 270.062 218.487 270.64 218.562 271.445Z" fill="#263238"/>
<path d="M234.167 265.78C233.995 266.058 232.583 265.13 230.787 265.354C228.989 265.548 227.818 266.776 227.589 266.546C227.477 266.445 227.626 265.965 228.134 265.413C228.632 264.863 229.531 264.279 230.651 264.148C231.771 264.019 232.778 264.381 233.384 264.801C234.004 265.223 234.254 265.656 234.167 265.78Z" fill="#263238"/>
<path d="M218.064 266.786C217.848 267.04 216.46 265.998 214.533 266.041C212.606 266.055 211.219 267.139 211.003 266.892C210.898 266.782 211.11 266.33 211.717 265.839C212.31 265.351 213.333 264.867 214.534 264.849C215.736 264.832 216.758 265.283 217.352 265.753C217.955 266.226 218.169 266.672 218.064 266.786Z" fill="#263238"/>
<path d="M223.877 278.172C223.864 278.08 224.883 277.844 226.539 277.537C226.96 277.469 227.355 277.363 227.41 277.072C227.493 276.762 227.289 276.32 227.056 275.843C226.599 274.849 226.122 273.805 225.622 272.713C223.623 268.254 222.15 264.577 222.33 264.499C222.512 264.42 224.279 267.971 226.278 272.43C226.761 273.53 227.222 274.579 227.661 275.583C227.85 276.051 228.156 276.578 227.976 277.22C227.88 277.541 227.583 277.787 227.315 277.874C227.05 277.971 226.811 277.989 226.602 278.014C224.931 278.199 223.889 278.265 223.877 278.172Z" fill="#263238"/>
<path d="M226.142 297.59C226.142 297.59 218.097 298.565 209.822 294.24C209.822 294.24 214.344 302.383 226.293 300.585L226.142 297.59Z" fill="#FF9A6C"/>
<path d="M218.736 282.872C218.968 282.495 219.217 282.1 219.605 281.886C220.034 281.649 220.559 281.671 221.039 281.771C221.738 281.915 222.424 282.222 222.895 282.754C223.366 283.287 223.585 284.07 223.329 284.732C223.131 285.416 222.091 285.772 221.383 285.882C220.675 285.992 219.947 285.772 219.33 285.411C218.812 285.107 218.317 284.631 218.302 284.034C218.29 283.614 218.518 283.229 218.736 282.872Z" fill="#FF9A6C"/>
<path d="M219.122 280.563C219.391 280.532 219.497 282.319 221.109 283.5C222.719 284.685 224.624 284.375 224.652 284.625C224.683 284.736 224.245 284.996 223.437 285.064C222.645 285.136 221.472 284.949 220.485 284.226C219.501 283.501 219.038 282.486 218.935 281.756C218.823 281.015 218.998 280.561 219.122 280.563Z" fill="#263238"/>
<path d="M218.045 261.567C217.908 262.024 216.242 261.906 214.312 262.249C212.374 262.554 210.84 263.208 210.558 262.82C210.432 262.635 210.681 262.199 211.29 261.728C211.893 261.26 212.872 260.792 214.031 260.597C215.191 260.403 216.27 260.527 216.994 260.773C217.724 261.019 218.103 261.351 218.045 261.567Z" fill="#263238"/>
<path d="M232.894 258.781C232.582 259.174 231.256 258.86 229.687 258.93C228.116 258.954 226.805 259.346 226.477 258.972C226.333 258.79 226.521 258.403 227.08 258.016C227.632 257.632 228.571 257.289 229.652 257.256C230.731 257.225 231.684 257.511 232.251 257.863C232.827 258.215 233.031 258.59 232.894 258.781Z" fill="#263238"/>
<path d="M195.023 253.93C196.163 252.258 198.17 251.426 200.079 250.737C208.313 247.76 216.906 245.763 225.612 244.801C226.66 246.595 225.611 248.987 223.953 250.245C222.296 251.504 220.188 251.972 218.22 252.66C216.253 253.348 214.228 254.427 213.385 256.324C212.489 258.341 213.164 260.764 212.372 262.823C211.007 266.366 205.975 267.419 204.631 270.969C203.615 273.655 205.134 276.565 205.472 279.414C205.855 282.643 204.588 286.023 202.173 288.217C200.269 289.946 197.689 290.886 195.113 290.885C194.72 280.634 194.328 270.383 193.936 260.131C193.855 257.998 193.816 255.698 195.023 253.93Z" fill="#263238"/>
<path d="M173.757 279.391C175.413 277.974 177.478 276.76 178.167 274.7C179.171 271.698 176.801 268.101 178.426 265.38C179.91 262.9 184.13 263.109 185.513 260.572C186.594 258.59 185.433 256.796 185.863 255.046C186.294 253.296 188.835 251.803 190.63 252.048L204.298 272.589C205.47 279.412 206.713 283.058 205.166 287.005C204.317 289.171 203.225 291.277 202.865 293.573C202.504 295.87 203.044 298.49 204.911 299.889C196.486 300.38 188.69 295.85 181.489 291.477C178.948 289.935 176.408 288.392 173.867 286.85C173.073 286.368 172.248 285.854 171.783 285.054C170.69 283.174 172.102 280.809 173.757 279.391Z" fill="#263238"/>
<path d="M181.318 289.425C181.318 289.425 181.616 289.542 182.213 289.615C182.808 289.685 183.712 289.731 184.837 289.481C185.951 289.235 187.307 288.698 188.531 287.598C189.755 286.515 190.758 284.807 191.033 282.758C191.167 281.737 191.12 280.638 190.821 279.546C190.519 278.45 189.93 277.426 189.321 276.408C188.72 275.389 188.063 274.343 187.773 273.152C187.488 271.984 187.513 270.603 188.294 269.615C189.08 268.611 190.507 268.39 191.835 267.888C192.503 267.636 193.197 267.24 193.655 266.602C194.111 265.965 194.277 265.173 194.277 264.42C194.289 262.888 193.661 261.477 193.407 260.046C193.277 259.329 193.24 258.59 193.436 257.91C193.628 257.23 194.073 256.64 194.684 256.239C195.915 255.4 197.467 255.293 198.962 255.192C200.465 255.114 202.04 254.809 203.323 254.008C204.619 253.247 205.67 252.139 206.354 250.869C207.032 249.585 207.296 248.194 207.528 246.884C207.757 245.568 207.963 244.29 208.427 243.142C208.889 241.998 209.618 241.013 210.464 240.217C212.192 238.646 214.351 237.834 216.336 237.712C218.334 237.584 220.132 238.144 221.525 238.893C222.93 239.643 223.974 240.573 224.716 241.408C226.199 243.109 226.599 244.34 226.662 244.3C226.67 244.296 226.644 244.223 226.586 244.082C226.523 243.942 226.448 243.726 226.307 243.463C226.045 242.927 225.593 242.161 224.86 241.285C224.128 240.417 223.083 239.446 221.655 238.654C220.239 237.864 218.394 237.258 216.315 237.368C214.254 237.474 212.007 238.291 210.187 239.921C209.297 240.748 208.521 241.779 208.027 242.983C207.534 244.188 207.319 245.5 207.083 246.807C206.846 248.112 206.58 249.453 205.941 250.652C205.295 251.842 204.301 252.885 203.078 253.599C201.859 254.348 200.425 254.628 198.926 254.709C197.449 254.813 195.788 254.904 194.409 255.838C193.724 256.284 193.186 256.989 192.968 257.778C192.743 258.567 192.794 259.379 192.929 260.132C193.208 261.647 193.815 263.014 193.801 264.421C193.802 265.113 193.652 265.796 193.272 266.33C192.89 266.863 192.303 267.214 191.667 267.455C191.033 267.706 190.354 267.873 189.697 268.136C189.045 268.389 188.388 268.764 187.943 269.338C187.039 270.504 187.051 272.016 187.357 273.254C187.68 274.535 188.37 275.601 188.975 276.615C189.592 277.627 190.166 278.612 190.461 279.648C190.754 280.682 190.811 281.734 190.692 282.714C190.449 284.682 189.509 286.337 188.348 287.398C187.186 288.478 185.878 289.029 184.797 289.297C182.584 289.81 181.314 289.339 181.318 289.425Z" fill="#455A64"/>
<path d="M170.383 274.799C170.383 274.799 170.21 275.001 170.092 275.477C169.972 275.945 169.971 276.721 170.412 277.556C170.639 277.963 170.975 278.39 171.466 278.702C171.953 279.013 172.576 279.211 173.253 279.214C174.591 279.254 176.185 278.482 176.982 276.96C177.386 276.217 177.614 275.341 177.632 274.422C177.65 273.499 177.429 272.559 177.096 271.648C176.464 269.826 175.287 268.039 175.302 265.924C175.299 264.899 175.562 263.791 176.335 263.069C177.1 262.329 178.262 262.166 179.412 262.18C180.565 262.164 181.819 262.335 183.061 261.876C183.67 261.643 184.226 261.21 184.584 260.652C184.948 260.097 185.144 259.459 185.235 258.819C185.415 257.518 185.134 256.279 185.005 255.095C184.843 253.912 184.94 252.75 185.268 251.654C185.929 249.467 187.449 247.649 189.284 246.625C191.129 245.568 193.242 245.491 195.144 245.415C197.059 245.352 198.911 245.268 200.486 244.684C202.061 244.134 203.334 243.283 204.303 242.4C205.282 241.521 205.951 240.595 206.42 239.805C207.344 238.203 207.474 237.171 207.474 237.171C207.415 237.147 207.215 238.163 206.257 239.707C205.773 240.468 205.095 241.357 204.121 242.197C203.158 243.041 201.906 243.847 200.376 244.358C198.85 244.901 197.055 244.965 195.133 245.011C193.231 245.072 191.04 245.122 189.066 246.232C187.12 247.306 185.517 249.207 184.81 251.517C184.459 252.665 184.356 253.931 184.523 255.149C184.659 256.362 184.922 257.569 184.753 258.75C184.61 259.926 183.974 261.036 182.887 261.424C181.816 261.83 180.597 261.69 179.414 261.702C178.247 261.692 176.918 261.855 176.015 262.733C175.112 263.592 174.847 264.831 174.854 265.926C174.854 267.041 175.166 268.11 175.562 269.056C175.952 270.012 176.389 270.9 176.717 271.787C177.05 272.668 177.264 273.559 177.257 274.418C177.25 275.278 177.046 276.102 176.68 276.798C175.959 278.22 174.507 278.949 173.255 278.942C172.629 278.952 172.047 278.782 171.592 278.506C171.134 278.23 170.808 277.842 170.58 277.464C170.138 276.688 170.105 275.951 170.191 275.495C170.271 275.031 170.408 274.81 170.383 274.799Z" fill="#263238"/>
<path d="M258.941 281.525C258.863 281.518 259.38 282.336 258.87 283.71C258.614 284.357 258.051 285.14 257.086 285.438C256.148 285.737 254.856 285.467 254.016 284.54C253.595 284.085 253.358 283.457 253.328 282.774C253.296 282.092 253.446 281.376 253.692 280.664C254.168 279.257 255.108 277.734 255.006 275.887C254.94 274.095 254.062 272.246 252.542 271.005C251.791 270.381 250.905 269.897 249.947 269.581C248.988 269.253 247.959 269.166 246.96 269.095C245.957 269.024 244.97 268.977 244.057 268.736C243.15 268.501 242.331 268.021 241.821 267.294C241.309 266.569 241.094 265.674 241.051 264.803C241.006 263.924 241.13 263.064 241.319 262.229C241.697 260.565 242.233 258.951 242.171 257.352C242.118 255.762 241.539 254.341 240.748 253.26C239.956 252.159 238.916 251.475 238.053 250.905C237.177 250.334 236.431 249.844 235.891 249.357C234.786 248.392 234.608 247.532 234.547 247.569C234.539 247.572 234.551 247.621 234.58 247.717C234.614 247.81 234.646 247.958 234.741 248.13C234.899 248.486 235.22 248.983 235.761 249.496C236.294 250.018 237.04 250.541 237.899 251.131C238.752 251.725 239.734 252.403 240.467 253.462C241.202 254.503 241.733 255.864 241.764 257.363C241.809 258.87 241.279 260.435 240.879 262.131C240.679 262.98 240.539 263.892 240.582 264.827C240.625 265.756 240.846 266.739 241.427 267.57C242.006 268.406 242.951 268.954 243.929 269.206C244.913 269.468 245.927 269.511 246.924 269.583C247.923 269.653 248.894 269.737 249.793 270.043C250.693 270.337 251.528 270.791 252.233 271.372C253.656 272.526 254.478 274.242 254.553 275.907C254.669 277.597 253.795 279.058 253.306 280.537C253.058 281.282 252.904 282.047 252.949 282.797C252.99 283.543 253.274 284.268 253.758 284.773C254.719 285.793 256.134 286.053 257.171 285.699C258.235 285.336 258.805 284.47 259.049 283.777C259.301 283.063 259.249 282.455 259.163 282.077C259.064 281.695 258.941 281.525 258.941 281.525Z" fill="#263238"/>
<path d="M344.975 284.916C346.158 286.672 342.475 288.767 342.475 288.767C343.451 289.396 342.897 292.662 341.337 292.975C342.061 293.404 342.535 293.408 342.919 294.154C343.302 294.899 343.377 295.829 342.984 296.569C342.589 297.31 341.678 297.783 340.868 297.557C341.795 298.461 342.064 299.965 341.505 301.13C341.169 301.832 340.548 302.378 339.829 302.671C339.467 302.819 339.086 302.896 338.695 302.908C338.555 302.912 338.388 302.935 338.253 302.89C338.187 302.867 338.133 302.827 338.08 302.782C337.841 302.577 337.642 302.336 337.387 302.145C337.291 302.073 337.192 302.005 337.091 301.941C336.629 301.647 336.12 301.431 335.596 301.277C335.355 301.205 335.076 301.181 334.848 301.074C334.694 301.002 334.588 300.865 334.451 300.768C333.578 300.156 332.418 299.994 331.394 299.8C330.24 299.582 329.026 299.297 328.183 298.483C327.338 297.671 327.069 296.156 327.934 295.365C327.187 295.348 326.573 294.627 326.547 293.884C326.521 293.141 326.988 292.439 327.616 292.035C328.243 291.63 329.008 291.487 329.755 291.464C328.888 291.324 328.342 290.321 328.522 289.467C328.703 288.613 329.449 287.958 330.278 287.67C331.107 287.382 332.012 287.406 332.886 287.496C333.76 287.587 337.401 287.934 338.279 287.897L338.924 285.502L339.008 285.196C340.573 284.829 341.022 284.644 342.421 284.408C343.468 284.227 344.483 284.187 344.975 284.916Z" fill="#FFBF9D"/>
<path d="M338.694 306.013C338.561 306.721 338.242 307.455 337.609 307.805C336.859 308.221 335.272 307.98 334.45 307.731C334.422 307.727 334.784 305.266 334.784 305.266L334.867 304.655C334.647 304.135 333.615 304.007 333.132 303.71C332.295 303.194 332.111 301.939 332.648 301.117C333.184 300.296 334.273 299.932 335.245 300.1C336.215 300.268 337.059 300.898 337.657 301.676C338.589 302.892 338.975 304.509 338.694 306.013Z" fill="#FFBF9D"/>
<path d="M341.154 297.607C341.186 297.422 338.253 296.771 334.603 296.151C330.953 295.531 327.969 295.178 327.938 295.362C327.906 295.547 330.838 296.198 334.489 296.818C338.137 297.438 341.121 297.791 341.154 297.607Z" fill="#FF9A6C"/>
<path d="M341.542 292.992C341.589 292.819 338.973 291.987 335.625 291.543C332.278 291.088 329.533 291.2 329.533 291.378C329.529 291.573 332.232 291.765 335.534 292.214C338.836 292.652 341.493 293.182 341.542 292.992Z" fill="#FF9A6C"/>
<path d="M341.924 288.483C341.965 288.298 339.763 287.726 336.996 287.47C334.232 287.212 331.996 287.147 331.974 287.323C331.949 287.518 334.178 287.888 336.927 288.145C339.672 288.397 341.885 288.663 341.924 288.483Z" fill="#FF9A6C"/>
<path d="M338.552 304.506C338.629 304.53 338.841 304.08 338.683 303.337C338.544 302.606 337.932 301.669 336.979 301.077C336.016 300.487 335.145 300.17 334.381 300.032C333.551 299.931 333.184 300.465 333.285 300.501C333.347 300.569 333.7 300.314 334.29 300.503C334.859 300.712 335.778 301.126 336.604 301.643C337.448 302.174 337.984 302.886 338.223 303.477C338.467 304.066 338.448 304.493 338.552 304.506Z" fill="#FF9A6C"/>
<path d="M200.055 302.404C192.459 309.307 187.316 311.899 186.338 319.007C185.704 323.62 186.092 331.065 188.318 337.628C192.434 349.754 197.704 364.007 200.894 370.865C202.048 373.346 202.258 376.149 201.473 378.769C199.69 384.726 194.912 396.066 195.635 419.103L266.83 414.152C266.83 414.152 254.451 385.81 251.731 371.675C251.401 369.961 253.293 349.539 252.379 345.564C248.919 330.526 232.557 315.641 227.165 307.609L226.548 304.997L200.547 300.682L200.055 302.404Z" fill="#455A64"/>
<g opacity="0.3">
<path d="M199.777 363.463C199.777 363.463 208.616 381.817 213.012 383.498C217.409 385.179 253.953 380.247 253.953 380.247L251.732 371.673L199.777 363.463Z" fill="black"/>
</g>
<path d="M231.738 313.448C231.768 313.417 232.206 313.783 232.946 314.501C233.685 315.218 234.708 316.306 235.895 317.715C238.297 320.516 241.162 324.716 244.448 329.234C247.776 333.77 250.147 338.346 251.304 341.851C251.897 343.597 252.245 345.052 252.42 346.065C252.595 347.079 252.637 347.647 252.596 347.653C252.47 347.678 252.141 345.422 250.847 342.013C249.589 338.596 247.19 334.13 243.892 329.633C240.594 325.097 237.806 320.873 235.519 318.018C234.388 316.581 233.429 315.452 232.752 314.683C232.076 313.914 231.702 313.485 231.738 313.448Z" fill="#263238"/>
<path d="M190.842 310.501C190.842 310.501 175.449 320.756 184.715 338.67C192.947 354.59 206.321 374.129 211.718 377.201C217.114 380.274 275.334 367.777 275.334 367.777L273.512 345.404L223.473 355.878L209.103 329.182C209.103 329.182 203.449 306.644 190.842 310.501Z" fill="#455A64"/>
<path d="M273.768 348.56C273.768 348.56 274.341 346.161 278.63 343.306C282.919 340.45 283.973 338.084 284.822 336.798C285.671 335.513 286.872 333.191 288.065 333.838C289.257 334.484 289.052 336.314 288.248 339.18C287.442 342.046 284.997 344.364 285.939 345.504C286.882 346.645 300.073 345.201 303.907 344.421C307.74 343.642 309.531 343.994 308.978 345.871C308.426 347.749 296.48 348.207 295.629 349.984C294.778 351.762 296.065 351.356 297.436 351.861C298.806 352.367 311.649 350.972 311.941 353.297C312.232 355.623 310.541 355.717 310.541 355.717C310.541 355.717 310.93 358.488 308.838 359.274C306.745 360.06 293.663 358.485 294.105 360.119C294.547 361.752 304.648 362.575 304.937 365.147C305.228 367.719 302.743 366.723 300.107 366.171C297.471 365.619 292.102 364.316 287.722 364.253C283.344 364.19 274.984 363.482 274.984 363.482L273.768 348.56Z" fill="#FFBF9D"/>
<path d="M310.746 356.05C310.737 356.238 306.829 356.214 302.019 355.999C297.207 355.783 293.314 355.454 293.323 355.266C293.332 355.078 297.238 355.101 302.051 355.318C306.861 355.534 310.754 355.862 310.746 356.05Z" fill="#FF725E"/>
<path d="M219.825 363.463C219.65 363.455 219.748 361.491 220.903 359.411C222.041 357.321 223.65 356.178 223.752 356.32C223.89 356.469 222.57 357.771 221.504 359.738C220.416 361.691 220.025 363.499 219.825 363.463Z" fill="#263238"/>
<path d="M206.089 323.993C206.089 323.993 206.226 324.164 206.464 324.519C206.707 324.871 207.027 325.417 207.46 326.126C208.307 327.555 209.523 329.678 211.058 332.423C214.115 337.922 218.499 345.867 223.701 355.767L223.42 355.632C237.237 352.718 254.42 349.092 273.443 345.079L273.815 345.001L273.846 345.379C274.433 352.557 275.042 360.005 275.666 367.636L275.675 367.751L275.7 368.049L275.406 368.112C260.546 371.279 246.34 374.054 233.329 376.093C230.075 376.597 226.895 377.049 223.793 377.407C220.69 377.753 217.667 378.044 214.708 377.996C213.968 377.962 213.231 377.923 212.492 377.761C212.141 377.681 211.713 377.531 211.425 377.329L210.553 376.683C209.947 376.279 209.451 375.781 208.955 375.29C208.456 374.802 207.944 374.335 207.514 373.808C206.607 372.792 205.735 371.785 204.952 370.745C204.132 369.732 203.386 368.703 202.661 367.695C196.906 359.599 192.931 352.619 190.16 347.825C188.796 345.413 187.757 343.531 187.071 342.244C186.743 341.62 186.488 341.133 186.3 340.775C186.13 340.441 186.05 340.267 186.06 340.262C186.071 340.257 186.172 340.419 186.362 340.742C186.565 341.093 186.84 341.569 187.192 342.178C187.941 343.469 189.015 345.323 190.391 347.694C193.23 352.442 197.269 359.385 203.053 367.413C203.78 368.413 204.529 369.433 205.349 370.434C206.133 371.463 207.002 372.456 207.903 373.455C208.334 373.976 208.836 374.43 209.326 374.904C209.814 375.383 210.305 375.871 210.88 376.248L211.715 376.862C211.85 376.987 212.005 377.015 212.153 377.077C212.303 377.131 212.44 377.206 212.62 377.222C213.289 377.366 214.006 377.404 214.724 377.434C217.619 377.469 220.636 377.17 223.723 376.814C226.813 376.448 229.985 375.986 233.231 375.476C246.215 373.405 260.414 370.611 275.26 367.449L274.992 367.808L274.983 367.693C274.363 360.062 273.759 352.613 273.177 345.435L273.581 345.735C254.546 349.687 237.352 353.258 223.526 356.129L223.336 356.169L223.245 355.995C218.11 346.088 213.787 338.095 210.81 332.56C209.316 329.827 208.147 327.688 207.334 326.202C206.936 325.504 206.627 324.958 206.401 324.561C206.183 324.192 206.089 323.993 206.089 323.993Z" fill="#263238"/>
</svg>
