<svg width="385" height="385" viewBox="0 0 385 385" fill="none" xmlns="http://www.w3.org/2000/svg">
<path d="M175.149 16.7278C184.833 7.39192 200.167 7.39194 209.851 16.7278L249.88 55.3177C253.731 59.0311 258.673 61.4108 263.978 62.1071L319.106 69.342C332.443 71.0923 342.004 83.0817 340.743 96.4737L335.529 151.829C335.027 157.156 336.248 162.503 339.011 167.085L367.726 214.697C374.673 226.215 371.261 241.166 360.004 248.529L313.475 278.967C308.997 281.896 305.578 286.184 303.718 291.201L284.398 343.337C279.724 355.95 265.907 362.603 253.132 358.394L200.324 340.993C195.242 339.319 189.758 339.319 184.676 340.993L131.868 358.394C119.093 362.603 105.276 355.95 100.602 343.337L81.2816 291.201C79.4224 286.184 76.0027 281.896 71.5253 278.967L24.9958 248.529C13.7391 241.166 10.3268 226.215 17.2738 214.697L45.989 167.085C48.7522 162.503 49.9726 157.156 49.471 151.829L44.2574 96.4736C42.9961 83.0817 52.5573 71.0923 65.8942 69.342L121.022 62.107C126.327 61.4108 131.269 59.0311 135.12 55.3177L175.149 16.7278Z" fill="#EA6C56"/>
<path d="M114.397 171.506H104.485L103.015 176H93.2295L104.107 146.264H114.859L125.695 176H115.867L114.397 171.506ZM112.129 164.492L109.441 156.218L106.753 164.492H112.129ZM136.928 146.264V163.022C136.928 164.394 137.222 165.486 137.81 166.298C138.426 167.082 139.406 167.474 140.75 167.474C142.094 167.474 143.088 167.082 143.732 166.298C144.376 165.486 144.698 164.394 144.698 163.022V146.264H153.98V163.022C153.98 165.85 153.392 168.272 152.216 170.288C151.04 172.276 149.43 173.774 147.386 174.782C145.342 175.79 143.06 176.294 140.54 176.294C138.02 176.294 135.78 175.79 133.82 174.782C131.888 173.774 130.376 172.276 129.284 170.288C128.192 168.3 127.646 165.878 127.646 163.022V146.264H136.928ZM157.161 161.09C157.161 158.15 157.749 155.532 158.925 153.236C160.129 150.94 161.837 149.162 164.049 147.902C166.261 146.614 168.865 145.97 171.861 145.97C174.437 145.97 176.733 146.46 178.749 147.44C180.793 148.392 182.445 149.75 183.705 151.514C184.993 153.278 185.847 155.336 186.267 157.688H176.439C175.991 156.708 175.347 155.952 174.507 155.42C173.695 154.86 172.757 154.58 171.693 154.58C170.125 154.58 168.879 155.168 167.955 156.344C167.059 157.52 166.611 159.102 166.611 161.09C166.611 163.078 167.059 164.66 167.955 165.836C168.879 167.012 170.125 167.6 171.693 167.6C172.757 167.6 173.695 167.334 174.507 166.802C175.347 166.242 175.991 165.472 176.439 164.492H186.267C185.847 166.844 184.993 168.902 183.705 170.666C182.445 172.43 180.793 173.802 178.749 174.782C176.733 175.734 174.437 176.21 171.861 176.21C168.865 176.21 166.261 175.58 164.049 174.32C161.837 173.032 160.129 171.24 158.925 168.944C157.749 166.648 157.161 164.03 157.161 161.09ZM212.976 146.264V153.656H205.08V176H195.756V153.656H187.944V146.264H212.976ZM224.829 146.264V176H215.505V146.264H224.829ZM243.53 176.294C240.73 176.294 238.154 175.636 235.802 174.32C233.478 173.004 231.63 171.184 230.258 168.86C228.886 166.536 228.2 163.918 228.2 161.006C228.2 158.094 228.886 155.476 230.258 153.152C231.63 150.828 233.478 149.022 235.802 147.734C238.154 146.418 240.73 145.76 243.53 145.76C246.33 145.76 248.892 146.418 251.216 147.734C253.54 149.022 255.374 150.828 256.718 153.152C258.09 155.476 258.776 158.094 258.776 161.006C258.776 163.918 258.09 166.536 256.718 168.86C255.374 171.184 253.526 173.004 251.174 174.32C248.85 175.636 246.302 176.294 243.53 176.294ZM243.53 167.6C245.378 167.6 246.806 167.012 247.814 165.836C248.822 164.632 249.326 163.022 249.326 161.006C249.326 158.962 248.822 157.352 247.814 156.176C246.806 154.972 245.378 154.37 243.53 154.37C241.654 154.37 240.212 154.972 239.204 156.176C238.196 157.352 237.692 158.962 237.692 161.006C237.692 163.022 238.196 164.632 239.204 165.836C240.212 167.012 241.654 167.6 243.53 167.6ZM290.658 176H281.334L271.464 161.048V176H262.14V146.264H271.464L281.334 161.468V146.264H290.658V176ZM127.966 209.264V239H118.642V227.408H109.78V239H100.456V209.264H109.78V219.974H118.642V209.264H127.966ZM141.486 209.264V239H132.162V209.264H141.486ZM157.331 239.294C153.775 239.294 150.835 238.468 148.511 236.816C146.215 235.136 144.969 232.686 144.773 229.466H154.685C154.825 231.174 155.581 232.028 156.953 232.028C157.457 232.028 157.877 231.916 158.213 231.692C158.577 231.44 158.759 231.062 158.759 230.558C158.759 229.858 158.381 229.298 157.625 228.878C156.869 228.43 155.693 227.926 154.097 227.366C152.193 226.694 150.611 226.036 149.351 225.392C148.119 224.748 147.055 223.81 146.159 222.578C145.263 221.346 144.829 219.764 144.857 217.832C144.857 215.9 145.347 214.262 146.327 212.918C147.335 211.546 148.693 210.51 150.401 209.81C152.137 209.11 154.083 208.76 156.239 208.76C159.879 208.76 162.763 209.6 164.891 211.28C167.047 212.96 168.181 215.326 168.293 218.378H158.255C158.227 217.538 158.017 216.936 157.625 216.572C157.233 216.208 156.757 216.026 156.197 216.026C155.805 216.026 155.483 216.166 155.231 216.446C154.979 216.698 154.853 217.062 154.853 217.538C154.853 218.21 155.217 218.77 155.945 219.218C156.701 219.638 157.891 220.156 159.515 220.772C161.391 221.472 162.931 222.144 164.135 222.788C165.367 223.432 166.431 224.328 167.327 225.476C168.223 226.624 168.671 228.066 168.671 229.802C168.671 231.622 168.223 233.26 167.327 234.716C166.431 236.144 165.129 237.264 163.421 238.076C161.713 238.888 159.683 239.294 157.331 239.294ZM195.299 209.264V216.656H187.403V239H178.079V216.656H170.267V209.264H195.299ZM212.318 239.294C209.518 239.294 206.942 238.636 204.59 237.32C202.266 236.004 200.418 234.184 199.046 231.86C197.674 229.536 196.988 226.918 196.988 224.006C196.988 221.094 197.674 218.476 199.046 216.152C200.418 213.828 202.266 212.022 204.59 210.734C206.942 209.418 209.518 208.76 212.318 208.76C215.118 208.76 217.68 209.418 220.004 210.734C222.328 212.022 224.162 213.828 225.506 216.152C226.878 218.476 227.564 221.094 227.564 224.006C227.564 226.918 226.878 229.536 225.506 231.86C224.162 234.184 222.314 236.004 219.962 237.32C217.638 238.636 215.09 239.294 212.318 239.294ZM212.318 230.6C214.166 230.6 215.594 230.012 216.602 228.836C217.61 227.632 218.114 226.022 218.114 224.006C218.114 221.962 217.61 220.352 216.602 219.176C215.594 217.972 214.166 217.37 212.318 217.37C210.442 217.37 209 217.972 207.992 219.176C206.984 220.352 206.48 221.962 206.48 224.006C206.48 226.022 206.984 227.632 207.992 228.836C209 230.012 210.442 230.6 212.318 230.6ZM245.879 239L240.293 228.332H240.251V239H230.927V209.264H244.787C247.195 209.264 249.253 209.698 250.961 210.566C252.669 211.406 253.943 212.568 254.783 214.052C255.651 215.508 256.085 217.16 256.085 219.008C256.085 220.996 255.525 222.76 254.405 224.3C253.313 225.84 251.731 226.946 249.659 227.618L256.127 239H245.879ZM240.251 222.116H243.947C244.843 222.116 245.515 221.92 245.963 221.528C246.411 221.108 246.635 220.464 246.635 219.596C246.635 218.812 246.397 218.196 245.921 217.748C245.473 217.3 244.815 217.076 243.947 217.076H240.251V222.116ZM287.624 209.264L276.956 229.97V239H267.632V229.97L256.964 209.264H267.632L272.378 219.806L277.124 209.264H287.624Z" fill="#620E28"/>
</svg>
