<svg width="385" height="385" viewBox="0 0 385 385" fill="none" xmlns="http://www.w3.org/2000/svg">
<path d="M160.94 30.6909C178.511 13.6039 206.489 13.6039 224.06 30.6908C234.13 40.4832 248.174 45.0466 262.077 43.0432C286.335 39.5474 308.97 55.9926 313.142 80.1441C315.532 93.9851 324.212 105.932 336.637 112.483C358.317 123.914 366.963 150.523 356.142 172.513C349.941 185.116 349.941 199.884 356.142 212.487C366.963 234.477 358.317 261.086 336.637 272.517C324.212 279.068 315.532 291.015 313.142 304.856C308.97 329.007 286.335 345.453 262.077 341.957C248.174 339.953 234.13 344.517 224.06 354.309C206.489 371.396 178.511 371.396 160.94 354.309C150.87 344.517 136.826 339.953 122.923 341.957C98.665 345.453 76.0301 329.007 71.8585 304.856C69.4678 291.015 60.7877 279.068 48.3629 272.517C26.6826 261.086 18.0368 234.477 28.8578 212.487C35.0592 199.884 35.0592 185.116 28.8578 172.513C18.0368 150.523 26.6826 123.914 48.3629 112.483C60.7877 105.932 69.4678 93.9851 71.8585 80.1441C76.0301 55.9926 98.665 39.5474 122.923 43.0432C136.826 45.0466 150.87 40.4832 160.94 30.6909Z" fill="#334075"/>
<path d="M178.279 160.754C180.071 161.174 181.457 162.042 182.437 163.358C183.445 164.646 183.949 166.144 183.949 167.852C183.949 170.456 183.081 172.472 181.345 173.9C179.637 175.3 177.173 176 173.953 176H158.371V146.264H173.533C176.557 146.264 178.937 146.922 180.673 148.238C182.409 149.554 183.277 151.472 183.277 153.992C183.277 155.728 182.815 157.198 181.891 158.402C180.995 159.578 179.791 160.362 178.279 160.754ZM167.695 157.856H171.307C172.147 157.856 172.763 157.688 173.155 157.352C173.575 157.016 173.785 156.498 173.785 155.798C173.785 155.07 173.575 154.538 173.155 154.202C172.763 153.838 172.147 153.656 171.307 153.656H167.695V157.856ZM171.937 168.524C172.777 168.524 173.393 168.37 173.785 168.062C174.205 167.726 174.415 167.194 174.415 166.466C174.415 165.038 173.589 164.324 171.937 164.324H167.695V168.524H171.937ZM196.405 146.264V176H187.081V146.264H196.405ZM213.007 146.264C216.115 146.264 218.831 146.894 221.155 148.154C223.507 149.414 225.313 151.164 226.573 153.404C227.833 155.644 228.463 158.192 228.463 161.048C228.463 163.876 227.833 166.424 226.573 168.692C225.313 170.96 223.507 172.752 221.155 174.068C218.831 175.356 216.115 176 213.007 176H200.617V146.264H213.007ZM212.167 167.684C214.267 167.684 215.933 167.11 217.165 165.962C218.397 164.814 219.013 163.176 219.013 161.048C219.013 158.92 218.397 157.282 217.165 156.134C215.933 154.986 214.267 154.412 212.167 154.412H209.941V167.684H212.167ZM127.966 209.264V239H118.642V227.408H109.78V239H100.456V209.264H109.78V219.974H118.642V209.264H127.966ZM141.486 209.264V239H132.162V209.264H141.486ZM157.331 239.294C153.775 239.294 150.835 238.468 148.511 236.816C146.215 235.136 144.969 232.686 144.773 229.466H154.685C154.825 231.174 155.581 232.028 156.953 232.028C157.457 232.028 157.877 231.916 158.213 231.692C158.577 231.44 158.759 231.062 158.759 230.558C158.759 229.858 158.381 229.298 157.625 228.878C156.869 228.43 155.693 227.926 154.097 227.366C152.193 226.694 150.611 226.036 149.351 225.392C148.119 224.748 147.055 223.81 146.159 222.578C145.263 221.346 144.829 219.764 144.857 217.832C144.857 215.9 145.347 214.262 146.327 212.918C147.335 211.546 148.693 210.51 150.401 209.81C152.137 209.11 154.083 208.76 156.239 208.76C159.879 208.76 162.763 209.6 164.891 211.28C167.047 212.96 168.181 215.326 168.293 218.378H158.255C158.227 217.538 158.017 216.936 157.625 216.572C157.233 216.208 156.757 216.026 156.197 216.026C155.805 216.026 155.483 216.166 155.231 216.446C154.979 216.698 154.853 217.062 154.853 217.538C154.853 218.21 155.217 218.77 155.945 219.218C156.701 219.638 157.891 220.156 159.515 220.772C161.391 221.472 162.931 222.144 164.135 222.788C165.367 223.432 166.431 224.328 167.327 225.476C168.223 226.624 168.671 228.066 168.671 229.802C168.671 231.622 168.223 233.26 167.327 234.716C166.431 236.144 165.129 237.264 163.421 238.076C161.713 238.888 159.683 239.294 157.331 239.294ZM195.299 209.264V216.656H187.403V239H178.079V216.656H170.267V209.264H195.299ZM212.318 239.294C209.518 239.294 206.942 238.636 204.59 237.32C202.266 236.004 200.418 234.184 199.046 231.86C197.674 229.536 196.988 226.918 196.988 224.006C196.988 221.094 197.674 218.476 199.046 216.152C200.418 213.828 202.266 212.022 204.59 210.734C206.942 209.418 209.518 208.76 212.318 208.76C215.118 208.76 217.68 209.418 220.004 210.734C222.328 212.022 224.162 213.828 225.506 216.152C226.878 218.476 227.564 221.094 227.564 224.006C227.564 226.918 226.878 229.536 225.506 231.86C224.162 234.184 222.314 236.004 219.962 237.32C217.638 238.636 215.09 239.294 212.318 239.294ZM212.318 230.6C214.166 230.6 215.594 230.012 216.602 228.836C217.61 227.632 218.114 226.022 218.114 224.006C218.114 221.962 217.61 220.352 216.602 219.176C215.594 217.972 214.166 217.37 212.318 217.37C210.442 217.37 209 217.972 207.992 219.176C206.984 220.352 206.48 221.962 206.48 224.006C206.48 226.022 206.984 227.632 207.992 228.836C209 230.012 210.442 230.6 212.318 230.6ZM245.879 239L240.293 228.332H240.251V239H230.927V209.264H244.787C247.195 209.264 249.253 209.698 250.961 210.566C252.669 211.406 253.943 212.568 254.783 214.052C255.651 215.508 256.085 217.16 256.085 219.008C256.085 220.996 255.525 222.76 254.405 224.3C253.313 225.84 251.731 226.946 249.659 227.618L256.127 239H245.879ZM240.251 222.116H243.947C244.843 222.116 245.515 221.92 245.963 221.528C246.411 221.108 246.635 220.464 246.635 219.596C246.635 218.812 246.397 218.196 245.921 217.748C245.473 217.3 244.815 217.076 243.947 217.076H240.251V222.116ZM287.624 209.264L276.956 229.97V239H267.632V229.97L256.964 209.264H267.632L272.378 219.806L277.124 209.264H287.624Z" fill="#DEE21B"/>
</svg>
