<svg width="835" height="497" viewBox="0 0 835 497" fill="none" xmlns="http://www.w3.org/2000/svg">
<mask id="mask0_4_1058" style="mask-type:luminance" maskUnits="userSpaceOnUse" x="50" y="-1" width="742" height="496">
<path d="M50 -0.000676155H792V494.999H50V-0.000676155Z" fill="white"/>
</mask>
<g mask="url(#mask0_4_1058)">
<path d="M761.948 307.649C765.405 251.616 732.446 198.675 677.727 169.989C615.695 137.469 491.04 77.4791 431.497 86.6059C350.412 99.0353 78.0712 229.54 74.5452 280.034C71.0202 330.527 186.478 463.364 390.954 464.917C595.431 466.47 734.685 395.003 754.076 344.51C758.577 332.789 761.165 320.347 761.948 307.649Z" fill="#EA6C56"/>
<mask id="mask1_4_1058" style="mask-type:luminance" maskUnits="userSpaceOnUse" x="74" y="85" width="689" height="380">
<path d="M74.4668 85.6725H762.196V464.942H74.4668V85.6725Z" fill="white"/>
</mask>
<g mask="url(#mask1_4_1058)">
<g opacity="0.699997">
<path d="M761.948 307.649C765.405 251.616 732.446 198.675 677.727 169.989C615.695 137.469 491.04 77.4791 431.497 86.6059C350.412 99.0354 78.0712 229.54 74.5452 280.034C71.0202 330.527 186.478 463.364 390.954 464.917C595.431 466.47 734.685 395.003 754.076 344.51C758.577 332.789 761.165 320.347 761.948 307.649Z" fill="white" fill-opacity="0.8"/>
</g>
</g>
</g>
<path d="M177.294 250.084V309.381H108.299V250.084H117.508V255.288H124.784V250.084H161.996V255.288H169.281V250.084H177.294Z" stroke="#233239" stroke-width="1.33333" stroke-miterlimit="10" stroke-linecap="round" stroke-linejoin="round"/>
<path d="M124.513 272.875H115.348V263.615H124.513V272.875Z" stroke="#233239" stroke-width="1.33333" stroke-miterlimit="10" stroke-linecap="round" stroke-linejoin="round"/>
<path d="M140.028 272.875H130.863V263.615H140.028V272.875Z" fill="#5E0D26" stroke="#233239" stroke-width="1.33333" stroke-miterlimit="10" stroke-linecap="round" stroke-linejoin="round"/>
<path d="M155.543 272.875H146.379V263.615H155.543V272.875Z" fill="#EA6C56" stroke="#233239" stroke-width="1.33333" stroke-miterlimit="10" stroke-linecap="round" stroke-linejoin="round"/>
<path d="M171.042 272.875H161.877V263.615H171.042V272.875Z" fill="#EA6C56" stroke="#233239" stroke-width="1.33333" stroke-miterlimit="10" stroke-linecap="round" stroke-linejoin="round"/>
<path d="M124.513 287.479H115.348V278.219H124.513V287.479Z" fill="#EA6C56" stroke="#233239" stroke-width="1.33333" stroke-miterlimit="10" stroke-linecap="round" stroke-linejoin="round"/>
<path d="M140.028 287.479H130.863V278.219H140.028V287.479Z" fill="#EA6C56" stroke="#620E28" stroke-width="1.33333" stroke-miterlimit="10" stroke-linecap="round" stroke-linejoin="round"/>
<path d="M155.543 287.479H146.379V278.219H155.543V287.479Z" fill="#EA6C56" stroke="#233239" stroke-width="1.33333" stroke-miterlimit="10" stroke-linecap="round" stroke-linejoin="round"/>
<path d="M171.042 287.479H161.877V278.219H171.042V287.479Z" fill="#620E28" stroke="#233239" stroke-width="1.33333" stroke-miterlimit="10" stroke-linecap="round" stroke-linejoin="round"/>
<path d="M124.513 302.082H115.348V292.821H124.513V302.082Z" stroke="#233239" stroke-width="1.33333" stroke-miterlimit="10" stroke-linecap="round" stroke-linejoin="round"/>
<path d="M140.028 302.082H130.863V292.821H140.028V302.082Z" stroke="#233239" stroke-width="1.33333" stroke-miterlimit="10" stroke-linecap="round" stroke-linejoin="round"/>
<path d="M155.543 302.082H146.379V292.821H155.543V302.082Z" stroke="#233239" stroke-width="1.33333" stroke-miterlimit="10" stroke-linecap="round" stroke-linejoin="round"/>
<path d="M171.042 302.082H161.877V292.821H171.042V302.082Z" stroke="#233239" stroke-width="1.33333" stroke-miterlimit="10" stroke-linecap="round" stroke-linejoin="round"/>
<path d="M124.791 255.288H117.516V245.886H124.791V255.288Z" stroke="#233239" stroke-width="1.33333" stroke-miterlimit="10" stroke-linecap="round" stroke-linejoin="round"/>
<path d="M169.285 255.288H162V245.886H169.285V255.288Z" stroke="#233239" stroke-width="1.33333" stroke-miterlimit="10" stroke-linecap="round" stroke-linejoin="round"/>
<mask id="mask2_4_1058" style="mask-type:luminance" maskUnits="userSpaceOnUse" x="74" y="10" width="718" height="485">
<path d="M74 10.9983H792V494.664H74V10.9983Z" fill="white"/>
</mask>
<g mask="url(#mask2_4_1058)">
<path d="M648.596 148.964H597.316C592.706 148.964 588.968 152.74 588.968 157.399V183.161C588.968 187.82 592.706 191.596 597.316 191.596H628.464L638.778 203.439L637.565 191.596H648.596C653.206 191.596 656.944 187.82 656.944 183.161V157.399C656.944 152.74 653.206 148.964 648.596 148.964Z" fill="#EA6C56"/>
<path d="M648.596 148.964H597.316C592.706 148.964 588.968 152.74 588.968 157.399V183.161C588.968 187.82 592.706 191.596 597.316 191.596H628.464L638.778 203.439L637.565 191.596H648.596C653.206 191.596 656.944 187.82 656.944 183.161V157.399C656.944 152.74 653.206 148.964 648.596 148.964Z" stroke="#233239" stroke-width="1.33333" stroke-miterlimit="10" stroke-linecap="round" stroke-linejoin="round"/>
<path d="M612.888 171.406C612.888 173.336 611.339 174.901 609.429 174.901C607.519 174.901 605.97 173.336 605.97 171.406C605.97 169.477 607.519 167.911 609.429 167.911C611.339 167.911 612.888 169.477 612.888 171.406Z" fill="#233239"/>
<path d="M612.888 171.406C612.888 173.336 611.339 174.901 609.429 174.901C607.519 174.901 605.97 173.336 605.97 171.406C605.97 169.477 607.519 167.911 609.429 167.911C611.339 167.911 612.888 169.477 612.888 171.406Z" stroke="#233239" stroke-width="1.33333" stroke-miterlimit="10" stroke-linecap="round" stroke-linejoin="round"/>
<path d="M627.592 171.406C627.592 173.336 626.043 174.901 624.133 174.901C622.223 174.901 620.674 173.336 620.674 171.406C620.674 169.477 622.223 167.911 624.133 167.911C626.043 167.911 627.592 169.477 627.592 171.406Z" fill="#233239"/>
<path d="M627.592 171.406C627.592 173.336 626.043 174.901 624.133 174.901C622.223 174.901 620.674 173.336 620.674 171.406C620.674 169.477 622.223 167.911 624.133 167.911C626.043 167.911 627.592 169.477 627.592 171.406Z" stroke="#233239" stroke-width="1.33333" stroke-miterlimit="10" stroke-linecap="round" stroke-linejoin="round"/>
<path d="M642.298 171.406C642.298 173.336 640.749 174.901 638.839 174.901C636.929 174.901 635.38 173.336 635.38 171.406C635.38 169.477 636.929 167.911 638.839 167.911C640.749 167.911 642.298 169.477 642.298 171.406Z" fill="#233239"/>
<path d="M642.298 171.406C642.298 173.336 640.749 174.901 638.839 174.901C636.929 174.901 635.38 173.336 635.38 171.406C635.38 169.477 636.929 167.911 638.839 167.911C640.749 167.911 642.298 169.477 642.298 171.406Z" stroke="#233239" stroke-width="1.33333" stroke-miterlimit="10" stroke-linecap="round" stroke-linejoin="round"/>
</g>
<mask id="mask3_4_1058" style="mask-type:luminance" maskUnits="userSpaceOnUse" x="74" y="10" width="718" height="485">
<path d="M74 10.9983H792V494.664H74V10.9983Z" fill="white"/>
</mask>
<g mask="url(#mask3_4_1058)">
<path d="M195.967 244.367C195.967 244.367 191.371 247.314 190.669 250.152C189.967 252.99 182.243 277.822 182.243 277.822L165.09 308.441L169.211 311.884L190.596 288.896L197.691 271.91L195.967 244.367Z" fill="white"/>
<path d="M195.967 244.367C195.967 244.367 191.371 247.314 190.669 250.152C189.967 252.99 182.243 277.822 182.243 277.822L165.09 308.441L169.211 311.884L190.596 288.896L197.691 271.91L195.967 244.367Z" stroke="#233239" stroke-width="1.33333" stroke-miterlimit="10" stroke-linecap="round" stroke-linejoin="round"/>
<path d="M165.088 308.442C165.088 308.442 158.151 313.247 157.609 313.927C157.068 314.608 155.037 321.279 154.902 322.505C154.766 323.73 153.414 325.772 154.902 326.044C156.391 326.317 157.88 321.007 157.88 321.007L158.556 319.237C158.556 319.237 158.421 323.73 158.827 324.82C159.233 325.909 159.503 326.317 160.045 325.091C160.586 323.867 160.857 319.102 160.857 319.102C160.857 319.102 161.805 324.275 162.752 325.091C163.699 325.909 163.97 324.956 163.834 324.002C163.699 323.049 163.563 319.918 163.563 319.918C163.563 319.918 164.782 323.867 165.459 323.322C166.135 322.777 164.782 318.284 164.782 318.284L169.21 311.884L165.088 308.442Z" fill="white"/>
<path d="M165.088 308.442C165.088 308.442 158.151 313.247 157.609 313.927C157.068 314.608 155.037 321.279 154.902 322.505C154.766 323.73 153.414 325.772 154.902 326.044C156.391 326.317 157.88 321.007 157.88 321.007L158.556 319.237C158.556 319.237 158.421 323.73 158.827 324.82C159.233 325.909 159.503 326.317 160.045 325.091C160.586 323.867 160.857 319.102 160.857 319.102C160.857 319.102 161.805 324.275 162.752 325.091C163.699 325.909 163.97 324.956 163.834 324.002C163.699 323.049 163.563 319.918 163.563 319.918C163.563 319.918 164.782 323.867 165.459 323.322C166.135 322.777 164.782 318.284 164.782 318.284L169.21 311.884L165.088 308.442Z" stroke="#233239" stroke-width="1.33333" stroke-miterlimit="10" stroke-linecap="round" stroke-linejoin="round"/>
<path d="M161.262 312.703C161.262 312.703 158.419 316.515 158.284 316.923C158.149 317.331 154.27 320.507 153.954 321.416C153.641 322.311 154.495 323.05 155.848 322.504C156.814 322.117 158.949 320.551 160.095 319.685C160.609 319.297 161.2 319.03 161.829 318.899L162.428 318.774C163.893 318.47 165.102 317.432 165.633 316.024L166.27 314.336" fill="white"/>
<path d="M161.262 312.703C161.262 312.703 158.419 316.515 158.284 316.923C158.149 317.331 154.27 320.507 153.954 321.416C153.641 322.311 154.495 323.05 155.848 322.504C156.814 322.117 158.949 320.551 160.095 319.685C160.609 319.297 161.2 319.03 161.829 318.899L162.428 318.774C163.893 318.47 165.102 317.432 165.633 316.024L166.27 314.336" stroke="#233239" stroke-width="1.33333" stroke-miterlimit="10" stroke-linecap="round" stroke-linejoin="round"/>
<path d="M193.585 279.053L185.6 283.922" stroke="#233239" stroke-width="1.33333" stroke-miterlimit="10" stroke-linecap="round" stroke-linejoin="round"/>
<path d="M190.556 283.644L182.021 287.957" stroke="#233239" stroke-width="1.33333" stroke-miterlimit="10" stroke-linecap="round" stroke-linejoin="round"/>
<path d="M252.632 416.444L256.056 424.938C256.056 424.938 260.26 435.477 260.104 439.095C259.949 442.713 261.66 443.971 263.062 444.128C264.463 444.286 267.421 440.51 268.355 436.106C269.288 431.702 266.798 421.635 266.798 420.376C266.798 419.118 267.888 413.141 265.397 411.096C262.906 409.051 259.326 408.579 259.326 408.579L252.632 416.444Z" fill="white"/>
<path d="M252.632 416.444L256.056 424.938C256.056 424.938 260.26 435.477 260.104 439.095C259.949 442.713 261.66 443.971 263.062 444.128C264.463 444.286 267.421 440.51 268.355 436.106C269.288 431.702 266.798 421.635 266.798 420.376C266.798 419.118 267.888 413.141 265.397 411.096C262.906 409.051 259.326 408.579 259.326 408.579L252.632 416.444Z" stroke="#233239" stroke-width="1.33333" stroke-miterlimit="10" stroke-linecap="round" stroke-linejoin="round"/>
<path d="M248.905 410.952L253.707 419.085L255.414 423.005C255.414 423.005 256.034 420.496 257.585 419.869C259.137 419.242 261.619 419.242 261.619 419.242L259.329 408.579L255.724 406.389L248.905 410.952Z" fill="white"/>
<path d="M248.905 410.952L253.707 419.085L255.414 423.005C255.414 423.005 256.034 420.496 257.585 419.869C259.137 419.242 261.619 419.242 261.619 419.242L259.329 408.579L255.724 406.389L248.905 410.952Z" stroke="#233239" stroke-width="1.33333" stroke-miterlimit="10" stroke-linecap="round" stroke-linejoin="round"/>
<path d="M268.367 436.106C269.302 431.702 266.811 421.635 266.811 420.377C266.811 419.118 267.9 413.141 265.409 411.096C264.9 410.677 264.345 410.328 263.784 410.032C263.517 412.444 264.94 417.219 265.565 420.377C266.344 424.309 267.589 430.6 266.655 435.32C265.806 439.605 262.017 442.713 261.325 443.25C261.859 443.789 262.49 444.063 263.074 444.128C264.476 444.286 267.433 440.511 268.367 436.106Z" fill="white"/>
<path d="M268.367 436.106C269.302 431.702 266.811 421.635 266.811 420.377C266.811 419.118 267.9 413.141 265.409 411.096C264.9 410.677 264.345 410.328 263.784 410.032C263.517 412.444 264.94 417.219 265.565 420.377C266.344 424.309 267.589 430.6 266.655 435.32C265.806 439.605 262.017 442.713 261.325 443.25C261.859 443.789 262.49 444.063 263.074 444.128C264.476 444.286 267.433 440.511 268.367 436.106Z" stroke="#233239" stroke-width="1.33333" stroke-miterlimit="10" stroke-linecap="round" stroke-linejoin="round"/>
<path d="M194.39 297.425C194.39 297.425 192.864 311.76 192.554 323.481C191.723 354.886 207.81 394.108 207.81 394.108L213.414 427.77L224.156 426.826L222.754 390.333L218.084 345.503C218.084 345.503 228.514 379.48 230.538 382.94C232.562 386.4 248.913 410.952 248.913 410.952C248.913 410.952 252.494 411.266 254.829 409.536C257.164 407.806 257.786 404.817 257.786 404.817C257.786 404.817 254.512 389.346 249.842 381.324C245.172 373.302 241.902 370.513 241.902 370.513C241.902 370.513 241.538 354.857 241.538 352.654C241.537 343.872 241.055 335.079 239.905 326.372C238.83 318.241 237.611 309.873 233.265 302.779C232.593 301.683 228.743 295.055 227.113 295.167L194.39 297.425Z" fill="#EA6C56"/>
<path d="M194.39 297.425C194.39 297.425 192.864 311.76 192.554 323.481C191.723 354.886 207.81 394.108 207.81 394.108L213.414 427.77L224.156 426.826L222.754 390.333L218.084 345.503C218.084 345.503 228.514 379.48 230.538 382.94C232.562 386.4 248.913 410.952 248.913 410.952C248.913 410.952 252.494 411.266 254.829 409.536C257.164 407.806 257.786 404.817 257.786 404.817C257.786 404.817 254.512 389.346 249.842 381.324C245.172 373.302 241.902 370.513 241.902 370.513C241.902 370.513 241.538 354.857 241.538 352.654C241.537 343.872 241.055 335.079 239.905 326.372C238.83 318.241 237.611 309.873 233.265 302.779C232.593 301.683 228.743 295.055 227.113 295.167L194.39 297.425Z" stroke="#233239" stroke-width="1.33333" stroke-miterlimit="10" stroke-linecap="round" stroke-linejoin="round"/>
<path d="M216.648 313.446C216.253 314.524 215.911 315.545 215.667 316.432L216.648 313.446Z" fill="white"/>
<path d="M216.648 313.446C216.253 314.524 215.911 315.545 215.667 316.432" stroke="#233239" stroke-width="1.33333" stroke-miterlimit="10" stroke-linecap="round" stroke-linejoin="round"/>
<path d="M221.265 302.674C221.265 302.674 219.308 306.754 217.628 310.897L221.265 302.674Z" fill="white"/>
<path d="M221.265 302.674C221.265 302.674 219.308 306.754 217.628 310.897" stroke="#233239" stroke-width="1.33333" stroke-miterlimit="10" stroke-linecap="round" stroke-linejoin="round"/>
<path d="M215.609 341.051L216.676 343.457" stroke="#233239" stroke-width="1.33333" stroke-miterlimit="10" stroke-linecap="round" stroke-linejoin="round"/>
<path d="M209.982 328.357L214.543 338.647" stroke="#233239" stroke-width="1.33333" stroke-miterlimit="10" stroke-linecap="round" stroke-linejoin="round"/>
<path d="M214.81 430.286C214.81 430.286 214.654 438.78 214.499 439.724C214.343 440.668 206.824 452.34 201.736 453.052C199.512 453.363 199.245 454.94 199.556 456.198C199.868 457.457 207.478 457.012 211.058 456.54C214.639 456.068 218.547 452.78 219.947 451.836C221.349 450.892 228.649 450.402 228.649 446.626C228.649 442.852 225.084 435.32 225.084 435.32L223.995 429.028L214.81 430.286Z" fill="white"/>
<path d="M214.81 430.286C214.81 430.286 214.654 438.78 214.499 439.724C214.343 440.668 206.824 452.34 201.736 453.052C199.512 453.363 199.245 454.94 199.556 456.198C199.868 457.457 207.478 457.012 211.058 456.54C214.639 456.068 218.547 452.78 219.947 451.836C221.349 450.892 228.649 450.402 228.649 446.626C228.649 442.852 225.084 435.32 225.084 435.32L223.995 429.028L214.81 430.286Z" stroke="#233239" stroke-width="1.33333" stroke-miterlimit="10" stroke-linecap="round" stroke-linejoin="round"/>
<path d="M212.002 424.466C212.002 424.466 212.624 431.545 213.559 431.702C214.493 431.86 225.701 431.387 225.856 429.971C226.013 428.556 226.013 425.253 225.389 423.994C224.767 422.736 212.624 422.264 212.002 424.466Z" fill="#EA6C56"/>
<path d="M212.002 424.466C212.002 424.466 212.624 431.545 213.559 431.702C214.493 431.86 225.701 431.387 225.856 429.971C226.013 428.556 226.013 425.253 225.389 423.994C224.767 422.736 212.624 422.264 212.002 424.466Z" stroke="#233239" stroke-width="1.33333" stroke-miterlimit="10" stroke-linecap="round" stroke-linejoin="round"/>
<path d="M246.206 405.707C242.76 405.024 247.475 411.355 249.499 412.613C251.522 413.872 254.788 413.907 257.713 410.953C259.741 408.906 260.203 405.114 259.528 403.609C258.093 400.405 256.241 398.365 256.241 398.365C256.241 398.365 254.924 407.438 246.206 405.707Z" fill="#EA6C56"/>
<path d="M246.206 405.707C242.76 405.024 247.475 411.355 249.499 412.613C251.522 413.872 254.788 413.907 257.713 410.953C259.741 408.906 260.203 405.114 259.528 403.609C258.093 400.405 256.241 398.365 256.241 398.365C256.241 398.365 254.924 407.438 246.206 405.707Z" stroke="#233239" stroke-width="1.33333" stroke-miterlimit="10" stroke-linecap="round" stroke-linejoin="round"/>
<path d="M273.21 245.02L271.91 237.62C271.91 237.62 273.254 234.944 273.486 233.154C273.718 231.365 273.288 229.126 274.504 229.468C275.719 229.811 275.491 231.153 275.597 231.936C275.703 232.72 275.476 233.613 275.476 233.613L276.567 236.529L283.771 229.942C284.152 229.594 284.742 229.638 285.069 230.038C285.355 230.389 285.34 230.901 285.033 231.235L280.555 236.104L281.22 236.787L287.164 232.487C287.661 232.06 288.418 232.18 288.762 232.742C289.022 233.168 288.956 233.72 288.604 234.072L283.146 238.756L289.292 236.289C289.706 236.088 290.202 236.272 290.39 236.695C290.547 237.049 290.44 237.465 290.13 237.695C288.695 238.758 284.953 241.5 284.953 241.5L288.603 240.969C289.04 240.905 289.448 241.203 289.525 241.641C289.592 242.022 289.389 242.4 289.036 242.549L284.382 244.518L277.251 248.792L273.21 245.02Z" fill="white"/>
<path d="M273.21 245.02L271.91 237.62C271.91 237.62 273.254 234.944 273.486 233.154C273.718 231.365 273.288 229.126 274.504 229.468C275.719 229.811 275.491 231.153 275.597 231.936C275.703 232.72 275.476 233.613 275.476 233.613L276.567 236.529L283.771 229.942C284.152 229.594 284.742 229.638 285.069 230.038C285.355 230.389 285.34 230.901 285.033 231.235L280.555 236.104L281.22 236.787L287.164 232.487C287.661 232.06 288.418 232.18 288.762 232.742C289.022 233.168 288.956 233.72 288.604 234.072L283.146 238.756L289.292 236.289C289.706 236.088 290.202 236.272 290.39 236.695C290.547 237.049 290.44 237.465 290.13 237.695C288.695 238.758 284.953 241.5 284.953 241.5L288.603 240.969C289.04 240.905 289.448 241.203 289.525 241.641C289.592 242.022 289.389 242.4 289.036 242.549L284.382 244.518L277.251 248.792L273.21 245.02Z" stroke="#233239" stroke-width="1.33333" stroke-miterlimit="10" stroke-linecap="round" stroke-linejoin="round"/>
<path d="M277.041 237.819C277.041 237.819 278.246 240.112 277.98 241.079C277.713 242.045 277.36 242.746 277.36 242.746" fill="white"/>
<path d="M277.041 237.819C277.041 237.819 278.246 240.112 277.98 241.079C277.713 242.045 277.36 242.746 277.36 242.746" stroke="#233239" stroke-width="1.33333" stroke-miterlimit="10" stroke-linecap="round" stroke-linejoin="round"/>
<path d="M273.222 245.02L251.142 259.622C251.142 259.622 241.951 245.654 239.632 244.091C237.312 242.529 231.386 241.227 231.386 241.227L231.725 245.587L199.002 244.012C199.002 244.012 198.369 244.177 197.46 244.476L193.355 262.055C192.821 264.344 192.753 266.719 193.155 269.036L195.588 283.026C195.746 282.387 193.914 296.146 194.388 297.424L194.863 298.703C194.863 298.703 224.439 296.945 226.495 296.146C228.551 295.347 228.868 294.548 228.393 293.429C228.265 293.129 226.658 287.306 227.186 284.209C228.624 275.764 233.571 264.444 233.571 264.444L246.769 275.583C248.703 277.215 251.564 277.025 253.27 275.15L277.263 248.792L273.222 245.02Z" fill="white"/>
<path d="M273.222 245.02L251.142 259.622C251.142 259.622 241.951 245.654 239.632 244.091C237.312 242.529 231.386 241.227 231.386 241.227L231.725 245.587L199.002 244.012C199.002 244.012 198.369 244.177 197.46 244.476L193.355 262.055C192.821 264.344 192.753 266.719 193.155 269.036L195.588 283.026C195.746 282.387 193.914 296.146 194.388 297.424L194.863 298.703C194.863 298.703 224.439 296.945 226.495 296.146C228.551 295.347 228.868 294.548 228.393 293.429C228.265 293.129 226.658 287.306 227.186 284.209C228.624 275.764 233.571 264.444 233.571 264.444L246.769 275.583C248.703 277.215 251.564 277.025 253.27 275.15L277.263 248.792L273.222 245.02Z" stroke="#233239" stroke-width="1.33333" stroke-miterlimit="10" stroke-linecap="round" stroke-linejoin="round"/>
<path d="M251.044 259.92C250.085 259.921 246.959 263.232 246.145 265.18" stroke="#233239" stroke-width="1.33333" stroke-miterlimit="10" stroke-linecap="round" stroke-linejoin="round"/>
<path d="M214.743 290.454C213.511 291.441 212.487 292.248 211.897 292.687" stroke="#233239" stroke-width="1.33333" stroke-miterlimit="10" stroke-linecap="round" stroke-linejoin="round"/>
<path d="M225.663 281.558C225.663 281.558 220.614 285.715 216.513 289.029" stroke="#233239" stroke-width="1.33333" stroke-miterlimit="10" stroke-linecap="round" stroke-linejoin="round"/>
<path d="M216.161 286.288C216.161 286.288 210.517 291.435 206.938 292.548" stroke="#233239" stroke-width="1.33333" stroke-miterlimit="10" stroke-linecap="round" stroke-linejoin="round"/>
<path d="M203.178 277.348L205.015 278.497" stroke="#233239" stroke-width="1.33333" stroke-miterlimit="10" stroke-linecap="round" stroke-linejoin="round"/>
<path d="M196.33 273.072L201.446 276.271" stroke="#233239" stroke-width="1.33333" stroke-miterlimit="10" stroke-linecap="round" stroke-linejoin="round"/>
<path d="M202.384 211.969C202.384 211.969 202.429 213.036 202.87 215.375C203.309 217.714 204.237 218.303 202.741 220.504C201.247 222.706 196.604 226.237 197.436 230.509C198.268 234.78 201.541 238.632 199.602 239.155C197.665 239.679 192.882 242.16 191.277 246.19C189.673 250.219 193.723 255.58 198.242 254.21C200.626 253.487 200.882 247.072 202.507 246.105C204.131 245.137 205.398 246.044 207.752 242.831C210.107 239.618 210.372 237.029 211.32 233.656C212.268 230.283 210.602 211.663 207.591 210.92C204.58 210.177 202.384 211.969 202.384 211.969Z" fill="#233239"/>
<path d="M202.384 211.969C202.384 211.969 202.429 213.036 202.87 215.375C203.309 217.714 204.237 218.303 202.741 220.504C201.247 222.706 196.604 226.237 197.436 230.509C198.268 234.78 201.541 238.632 199.602 239.155C197.665 239.679 192.882 242.16 191.277 246.19C189.673 250.219 193.723 255.58 198.242 254.21C200.626 253.487 200.882 247.072 202.507 246.105C204.131 245.137 205.398 246.044 207.752 242.831C210.107 239.618 210.372 237.029 211.32 233.656C212.268 230.283 210.602 211.663 207.591 210.92C204.58 210.177 202.384 211.969 202.384 211.969Z" stroke="#233239" stroke-width="1.33333" stroke-miterlimit="10" stroke-linecap="round" stroke-linejoin="round"/>
<path d="M209.498 235.209C209.498 235.209 209.997 237.828 209.898 238.736C209.797 239.642 210.025 242.541 207.532 244.556C205.039 246.572 203.515 246.091 203.515 246.091C203.515 246.091 204.113 248.006 211.892 249.719C219.67 251.431 227.131 242.774 227.131 242.774C227.131 242.774 227.348 244.782 225.653 239.138C223.958 233.496 219.969 226.947 219.969 226.947L217.177 223.823C217.177 223.823 215.282 228.659 213.288 230.675C211.293 232.69 209.498 235.209 209.498 235.209Z" fill="white"/>
<path d="M209.498 235.209C209.498 235.209 209.997 237.828 209.898 238.736C209.797 239.642 210.025 242.541 207.532 244.556C205.039 246.572 203.515 246.091 203.515 246.091C203.515 246.091 204.113 248.006 211.892 249.719C219.67 251.431 227.131 242.774 227.131 242.774C227.131 242.774 227.348 244.782 225.653 239.138C223.958 233.496 219.969 226.947 219.969 226.947L217.177 223.823C217.177 223.823 215.282 228.659 213.288 230.675C211.293 232.69 209.498 235.209 209.498 235.209Z" stroke="#233239" stroke-width="1.33333" stroke-miterlimit="10" stroke-linecap="round" stroke-linejoin="round"/>
<path d="M210.158 237.985C210.158 237.985 210.948 239.764 210.256 243.126" stroke="#233239" stroke-width="1.33333" stroke-miterlimit="10" stroke-linecap="round" stroke-linejoin="round"/>
<path d="M207.583 210.92C207.583 210.92 206.157 211.121 204.638 217.066C204.441 217.84 204.846 222.54 204.555 223.176C203.055 226.448 203.724 228.377 204.598 231.294C205.385 233.918 207.542 237.939 209.247 237.882C211.044 237.822 212.981 237.279 214.657 236.234C216.54 235.06 218.087 233.521 218.707 232.491C219.877 230.543 221.16 224.236 219.885 217.555C218.611 210.873 212.371 205.654 207.583 210.92Z" fill="white"/>
<path d="M207.583 210.92C207.583 210.92 206.157 211.121 204.638 217.066C204.441 217.84 204.846 222.54 204.555 223.176C203.055 226.448 203.724 228.377 204.598 231.294C205.385 233.918 207.542 237.939 209.247 237.882C211.044 237.822 212.981 237.279 214.657 236.234C216.54 235.06 218.087 233.521 218.707 232.491C219.877 230.543 221.16 224.236 219.885 217.555C218.611 210.873 212.371 205.654 207.583 210.92Z" stroke="#233239" stroke-width="1.33333" stroke-miterlimit="10" stroke-linecap="round" stroke-linejoin="round"/>
<path d="M206.582 229.453C206.582 229.453 209.646 229.728 211.266 227.903C211.266 227.903 210.376 230.962 208.902 231.196C207.428 231.431 206.582 229.453 206.582 229.453Z" stroke="#233239" stroke-width="1.33333" stroke-miterlimit="10" stroke-linecap="round" stroke-linejoin="round"/>
<path d="M206.007 224.847L207.28 226.207" stroke="#233239" stroke-width="1.33333" stroke-miterlimit="10" stroke-linecap="round" stroke-linejoin="round"/>
<path d="M205.089 217.359C205.089 217.359 206.387 215.982 207.358 217.213" stroke="#233239" stroke-width="1.33333" stroke-miterlimit="10" stroke-linecap="round" stroke-linejoin="round"/>
<path d="M210.919 216.204C210.919 216.204 213.513 213.965 215.203 216.167" stroke="#233239" stroke-width="1.33333" stroke-miterlimit="10" stroke-linecap="round" stroke-linejoin="round"/>
<path d="M213.462 220.16C213.296 220.977 212.702 221.545 212.135 221.427C211.568 221.31 211.245 220.551 211.411 219.734C211.577 218.916 212.171 218.349 212.737 218.466C213.304 218.584 213.629 219.342 213.462 220.16Z" fill="#233239"/>
<path d="M206.875 220.831C206.733 221.532 206.224 222.017 205.739 221.917C205.253 221.816 204.976 221.167 205.118 220.467C205.261 219.766 205.769 219.28 206.255 219.381C206.74 219.482 207.018 220.131 206.875 220.831Z" fill="#233239"/>
<path d="M244.06 252.457C244.245 247.044 242.057 245.22 240.151 243.076C238.245 240.931 228.774 234.105 230.98 227.259C233.666 218.925 230.639 208.241 221.875 205.146C217.728 203.681 213.703 204.785 211.913 205.446C210.437 204.57 207.969 203.398 205.677 203.674C202.112 204.106 199.929 208.698 200.996 210.557C201.79 212.597 204.74 213.877 205.663 212.952C205.663 212.952 209.288 209.279 212.847 209.297C212.847 209.297 218.635 211.697 219.171 217.569C219.709 223.442 214.251 230.826 219.744 240.459C222.592 245.452 221.885 247.555 215.972 252.602C210.059 257.65 210.15 265.109 212.82 270.498C215.491 275.888 224.122 274.491 228.875 270.644C233.628 266.796 233.667 263.1 232.379 258.923C231.09 254.748 231.183 255.634 232.721 257.084C234.257 258.535 243.875 257.87 244.06 252.457Z" fill="#233239"/>
<path d="M244.06 252.457C244.245 247.044 242.057 245.22 240.151 243.076C238.245 240.931 228.774 234.105 230.98 227.259C233.666 218.925 230.639 208.241 221.875 205.146C217.728 203.681 213.703 204.785 211.913 205.446C210.437 204.57 207.969 203.398 205.677 203.674C202.112 204.106 199.929 208.698 200.996 210.557C201.79 212.597 204.74 213.877 205.663 212.952C205.663 212.952 209.288 209.279 212.847 209.297C212.847 209.297 218.635 211.697 219.171 217.569C219.709 223.442 214.251 230.826 219.744 240.459C222.592 245.452 221.885 247.555 215.972 252.602C210.059 257.65 210.15 265.109 212.82 270.498C215.491 275.888 224.122 274.491 228.875 270.644C233.628 266.796 233.667 263.1 232.379 258.923C231.09 254.748 231.183 255.634 232.721 257.084C234.257 258.535 243.875 257.87 244.06 252.457Z" stroke="#233239" stroke-width="1.33333" stroke-miterlimit="10" stroke-linecap="round" stroke-linejoin="round"/>
<path d="M201.736 453.052C199.512 453.362 199.245 454.939 199.556 456.198C199.868 457.456 207.478 457.011 211.058 456.54C214.639 456.068 218.547 452.78 219.947 451.836C221.349 450.892 228.65 450.401 228.65 446.627C228.65 444.28 227.274 440.485 226.231 437.947C222.822 439.771 218.84 441.67 218.84 441.67L214.499 439.724C214.343 440.668 206.824 452.341 201.736 453.052Z" fill="white"/>
<path d="M201.736 453.052C199.512 453.362 199.245 454.939 199.556 456.198C199.868 457.456 207.478 457.011 211.058 456.54C214.639 456.068 218.547 452.78 219.947 451.836C221.349 450.892 228.65 450.401 228.65 446.627C228.65 444.28 227.274 440.485 226.231 437.947C222.822 439.771 218.84 441.67 218.84 441.67L214.499 439.724C214.343 440.668 206.824 452.341 201.736 453.052Z" stroke="#233239" stroke-width="1.33333" stroke-miterlimit="10" stroke-linecap="round" stroke-linejoin="round"/>
<path d="M228.443 444.803C224.333 446.527 216.452 451.739 211.902 453.464C208.157 454.883 202.554 455.237 199.454 455.322C199.45 455.618 199.485 455.916 199.554 456.198C199.866 457.456 207.475 457.012 211.056 456.54C214.636 456.068 218.544 452.78 219.945 451.836C221.346 450.893 228.648 450.402 228.648 446.627C228.648 446.087 228.568 445.464 228.443 444.803Z" fill="white"/>
<path d="M228.443 444.803C224.333 446.527 216.452 451.739 211.902 453.464C208.157 454.883 202.554 455.237 199.454 455.322C199.45 455.618 199.485 455.916 199.554 456.198C199.866 457.456 207.475 457.012 211.056 456.54C214.636 456.068 218.544 452.78 219.945 451.836C221.346 450.893 228.648 450.402 228.648 446.627C228.648 446.087 228.568 445.464 228.443 444.803Z" stroke="#233239" stroke-width="1.33333" stroke-miterlimit="10" stroke-linecap="round" stroke-linejoin="round"/>
</g>
<mask id="mask4_4_1058" style="mask-type:luminance" maskUnits="userSpaceOnUse" x="74" y="10" width="718" height="485">
<path d="M74 10.9983H792V494.664H74V10.9983Z" fill="white"/>
</mask>
<g mask="url(#mask4_4_1058)">
<path d="M408.573 214.798C386.667 282.949 355.584 304.426 355.584 304.426C337.36 320.768 317.903 327.9 301.037 322.181C265.281 310.08 254.659 244.857 277.3 176.521C299.962 108.178 347.32 62.5825 383.076 74.6838C400.3 80.5158 411.682 98.6484 416.318 123.531C424.789 164.353 408.573 214.798 408.573 214.798Z" fill="#EA6C56"/>
<path d="M408.573 214.798C386.667 282.949 355.584 304.426 355.584 304.426C337.36 320.768 317.903 327.9 301.037 322.181C265.281 310.08 254.659 244.857 277.3 176.521C299.962 108.178 347.32 62.5825 383.076 74.6838C400.3 80.5158 411.682 98.6484 416.318 123.531C424.789 164.353 408.573 214.798 408.573 214.798Z" stroke="#233239" stroke-width="1.33333" stroke-miterlimit="10" stroke-linecap="round" stroke-linejoin="round"/>
<path d="M395.936 216.666C374.84 280.314 332.179 323.261 300.65 312.592C269.122 301.923 260.664 241.677 281.76 178.029C302.857 114.381 345.517 71.4332 377.046 82.1029C408.575 92.7726 417.032 153.019 395.936 216.666Z" fill="#CFCFCF"/>
<path d="M395.936 216.666C374.84 280.314 332.179 323.261 300.65 312.592C269.122 301.923 260.664 241.677 281.76 178.029C302.857 114.381 345.517 71.4332 377.046 82.1029C408.575 92.7726 417.032 153.019 395.936 216.666Z" stroke="#233239" stroke-width="1.33333" stroke-miterlimit="10" stroke-linecap="round" stroke-linejoin="round"/>
<path d="M395.945 216.674C378.972 267.819 348.107 305.608 320.266 312.924C338.258 288.735 355.601 254.725 368.621 215.414C384.776 166.676 390.78 120.375 387.045 87.7223C410.157 106.739 414.601 160.379 395.945 216.674Z" fill="#233239"/>
<path d="M395.945 216.674C378.972 267.819 348.107 305.608 320.266 312.924C338.258 288.735 355.601 254.725 368.621 215.414C384.776 166.676 390.78 120.375 387.045 87.7223C410.157 106.739 414.601 160.379 395.945 216.674Z" stroke="#233239" stroke-width="1.33333" stroke-miterlimit="10" stroke-linecap="round" stroke-linejoin="round"/>
<path d="M354.451 202.628C348.684 220.028 337.021 231.767 328.403 228.851C319.785 225.934 317.473 209.465 323.24 192.066C329.007 174.668 340.668 162.927 349.287 165.844C357.906 168.76 360.218 185.23 354.451 202.628Z" fill="#EA6C56"/>
<path d="M354.451 202.628C348.684 220.028 337.021 231.767 328.403 228.851C319.785 225.934 317.473 209.465 323.24 192.066C329.007 174.668 340.668 162.927 349.287 165.844C357.906 168.76 360.218 185.23 354.451 202.628Z" stroke="#233239" stroke-width="1.33333" stroke-miterlimit="10" stroke-linecap="round" stroke-linejoin="round"/>
<path d="M349.284 165.844C357.903 168.76 360.215 185.229 354.448 202.629C348.681 220.027 337.019 231.768 328.401 228.851L380.68 252.572C386.466 241.633 391.647 229.586 395.93 216.667C400.644 202.443 403.872 188.393 405.708 175.025L349.284 165.844Z" fill="#620E28"/>
<path d="M349.284 165.844C357.903 168.76 360.215 185.229 354.448 202.629C348.681 220.027 337.019 231.768 328.401 228.851L380.68 252.572C386.466 241.633 391.647 229.586 395.93 216.667C400.644 202.443 403.872 188.393 405.708 175.025L349.284 165.844Z" stroke="#233239" stroke-width="1.33333" stroke-miterlimit="10" stroke-linecap="round" stroke-linejoin="round"/>
<path d="M414.208 192.854C414.953 189.243 415.597 185.674 416.159 182.141C415.617 185.666 414.953 189.243 414.208 192.854Z" stroke="#233239" stroke-width="1.33333" stroke-miterlimit="10" stroke-linecap="round" stroke-linejoin="round"/>
<path d="M617.432 232.993C624.375 243.032 625.711 256.515 623.766 268.517C619.887 292.463 602.671 325.618 575.385 327.365C572.87 327.527 570.339 327.367 567.865 326.89C535.734 323.715 498.538 309.471 444.477 303.421C409.504 297.897 358.389 302.908 355.589 304.426C402.667 259.101 424.714 186.761 416.324 123.53C452.417 169.968 513.853 191.202 574.958 211.139C583.549 213.944 600.615 217.783 610.967 226.05C613.514 228.084 615.656 230.426 617.432 232.993Z" fill="white"/>
<path d="M617.432 232.993C624.375 243.032 625.711 256.515 623.766 268.517C619.887 292.463 602.671 325.618 575.385 327.365C572.87 327.527 570.339 327.367 567.865 326.89C535.734 323.715 498.538 309.471 444.477 303.421C409.504 297.897 358.389 302.908 355.589 304.426C402.667 259.101 424.714 186.761 416.324 123.53C452.417 169.968 513.853 191.202 574.958 211.139C583.549 213.944 600.615 217.783 610.967 226.05C613.514 228.084 615.656 230.426 617.432 232.993Z" stroke="#233239" stroke-width="1.33333" stroke-miterlimit="10" stroke-linecap="round" stroke-linejoin="round"/>
<path d="M567.868 326.89C570.342 327.367 572.873 327.527 575.387 327.365C602.674 325.618 619.89 292.463 623.769 268.517C625.713 256.515 624.378 243.033 617.434 232.993C615.659 230.426 613.517 228.084 610.97 226.05C600.618 217.783 583.552 213.944 574.96 211.14C565.9 208.183 556.835 205.196 547.845 202.106C553.463 218.067 552.25 244.495 546.589 261.94C536.208 293.932 520.547 306.03 505.66 314.208C529.51 319.654 549.518 325.076 567.868 326.89Z" fill="#5E0D26"/>
<path d="M567.868 326.89C570.342 327.367 572.873 327.527 575.387 327.365C602.674 325.618 619.89 292.463 623.769 268.517C625.713 256.515 624.378 243.033 617.434 232.993C615.659 230.426 613.517 228.084 610.97 226.05C600.618 217.783 583.552 213.944 574.96 211.14C565.9 208.183 556.835 205.196 547.845 202.106C553.463 218.067 552.25 244.495 546.589 261.94C536.208 293.932 520.547 306.03 505.66 314.208C529.51 319.654 549.518 325.076 567.868 326.89Z" stroke="#233239" stroke-width="1.33333" stroke-miterlimit="10" stroke-linecap="round" stroke-linejoin="round"/>
<path d="M377.285 280.478C375.359 283.222 373.501 285.698 371.738 287.919L537.095 310.814L377.285 280.478Z" fill="#233239"/>
<path d="M377.285 280.478C375.359 283.222 373.501 285.698 371.738 287.919L537.095 310.814L377.285 280.478Z" stroke="#233239" stroke-width="1.33333" stroke-miterlimit="10" stroke-linecap="round" stroke-linejoin="round"/>
<path d="M392.822 253.94C388.687 261.909 384.068 269.597 378.966 276.911C445.547 285.834 559.147 310.549 596.551 318.853C599.869 316.251 602.915 313.171 605.678 309.761L392.822 253.94Z" fill="#233239"/>
<path d="M392.822 253.94C388.687 261.909 384.068 269.597 378.966 276.911C445.547 285.834 559.147 310.549 596.551 318.853C599.869 316.251 602.915 313.171 605.678 309.761L392.822 253.94Z" stroke="#233239" stroke-width="1.33333" stroke-miterlimit="10" stroke-linecap="round" stroke-linejoin="round"/>
<path d="M384.726 288.332C381.922 284.409 383.422 275.351 386.727 264.892C378.045 279.435 367.644 292.82 355.589 304.426C358.388 302.909 409.504 297.897 444.477 303.421C462.044 305.386 477.822 308.22 492.232 311.254L487.237 309.993C487.237 309.993 424.165 297.788 404.111 296.438C384.058 295.086 384.726 288.332 384.726 288.332Z" fill="#233239"/>
<path d="M384.726 288.332C381.922 284.409 383.422 275.351 386.727 264.892C378.045 279.435 367.644 292.82 355.589 304.426C358.388 302.909 409.504 297.897 444.477 303.421C462.044 305.386 477.822 308.22 492.232 311.254L487.237 309.993C487.237 309.993 424.165 297.788 404.111 296.438C384.058 295.086 384.726 288.332 384.726 288.332Z" stroke="#233239" stroke-width="1.33333" stroke-miterlimit="10" stroke-linecap="round" stroke-linejoin="round"/>
<path d="M504.635 351.556L501.274 356.461L507.621 362.876C507.621 362.876 500.153 377.591 495.3 394.946C490.445 412.303 486.337 421.358 486.337 421.358C486.337 421.358 473.267 430.037 474.014 434.564C474.762 439.092 493.805 451.544 497.913 454.939C502.021 458.336 509.116 462.108 515.091 459.09C521.064 456.071 520.691 452.298 520.691 448.148C520.691 443.998 521.064 439.092 521.064 439.092C521.064 439.092 541.602 401.361 544.963 389.665C548.324 377.968 549.818 357.97 555.046 355.707C560.273 353.442 574.836 353.819 577.077 347.782C579.317 341.746 589.804 317.482 589.804 317.482L534.134 307.033C534.134 307.033 521.064 317.598 500.9 313.07L518.077 328.54L504.635 351.556Z" fill="white"/>
<path d="M504.635 351.556L501.274 356.461L507.621 362.876C507.621 362.876 500.153 377.591 495.3 394.946C490.445 412.303 486.337 421.358 486.337 421.358C486.337 421.358 473.267 430.037 474.014 434.564C474.762 439.092 493.805 451.544 497.913 454.939C502.021 458.336 509.116 462.108 515.091 459.09C521.064 456.071 520.691 452.298 520.691 448.148C520.691 443.998 521.064 439.092 521.064 439.092C521.064 439.092 541.602 401.361 544.963 389.665C548.324 377.968 549.818 357.97 555.046 355.707C560.273 353.442 574.836 353.819 577.077 347.782C579.317 341.746 589.804 317.482 589.804 317.482L534.134 307.033C534.134 307.033 521.064 317.598 500.9 313.07L518.077 328.54L504.635 351.556Z" stroke="#233239" stroke-width="1.33333" stroke-miterlimit="10" stroke-linecap="round" stroke-linejoin="round"/>
<path d="M500.9 313.07L518.078 328.539L504.635 351.556L501.274 356.46L503.632 358.843L511.356 358.348C511.356 358.348 531.234 333.06 533.471 327.571C535.707 322.083 534.134 307.033 534.134 307.033C534.134 307.033 521.065 317.598 500.9 313.07Z" fill="#EDEDED"/>
<path d="M500.9 313.07L518.078 328.539L504.635 351.556L501.274 356.46L503.632 358.843L511.356 358.348C511.356 358.348 531.234 333.06 533.471 327.571C535.707 322.083 534.134 307.033 534.134 307.033C534.134 307.033 521.065 317.598 500.9 313.07Z" stroke="#233239" stroke-width="1.33333" stroke-miterlimit="10" stroke-linecap="round" stroke-linejoin="round"/>
<path d="M516.966 320.616C516.966 320.616 517.713 326.276 512.858 330.803C508.005 335.331 499.789 346.651 500.91 347.405C502.03 348.16 504.644 351.555 504.644 351.555L509.498 353.065C509.498 353.065 521.821 334.954 522.194 330.426C522.568 325.899 516.966 320.616 516.966 320.616Z" fill="#EDEDED"/>
<path d="M516.966 320.616C516.966 320.616 517.713 326.276 512.858 330.803C508.005 335.331 499.789 346.651 500.91 347.405C502.03 348.16 504.644 351.555 504.644 351.555L509.498 353.065C509.498 353.065 521.821 334.954 522.194 330.426C522.568 325.899 516.966 320.616 516.966 320.616Z" stroke="#233239" stroke-width="1.33333" stroke-miterlimit="10" stroke-linecap="round" stroke-linejoin="round"/>
<path d="M501.274 356.461L511.356 358.347L520.318 365.893L507.622 362.875L501.274 356.461Z" fill="#233239"/>
<path d="M501.274 356.461L511.356 358.347L520.318 365.893L507.622 362.875L501.274 356.461Z" stroke="#233239" stroke-width="1.33333" stroke-miterlimit="10" stroke-linecap="round" stroke-linejoin="round"/>
<path d="M494.179 427.396C498.287 424 499.034 416.453 504.635 403.247C510.235 390.042 520.318 365.894 520.318 365.894L507.622 362.876C507.622 362.876 500.154 377.591 495.299 394.947C490.445 412.303 486.337 421.359 486.337 421.359C486.337 421.359 473.268 430.036 474.015 434.565C474.761 439.093 493.806 451.544 497.913 454.939C500.162 456.8 503.309 458.764 506.676 459.674C501.747 455.865 485.076 441.446 484.097 436.828C482.976 431.546 490.072 430.791 494.179 427.396Z" fill="#EDEDED"/>
<path d="M494.179 427.396C498.287 424 499.034 416.453 504.635 403.247C510.235 390.042 520.318 365.894 520.318 365.894L507.622 362.876C507.622 362.876 500.154 377.591 495.299 394.947C490.445 412.303 486.337 421.359 486.337 421.359C486.337 421.359 473.268 430.036 474.015 434.565C474.761 439.093 493.806 451.544 497.913 454.939C500.162 456.8 503.309 458.764 506.676 459.674C501.747 455.865 485.076 441.446 484.097 436.828C482.976 431.546 490.072 430.791 494.179 427.396Z" stroke="#233239" stroke-width="1.33333" stroke-miterlimit="10" stroke-linecap="round" stroke-linejoin="round"/>
<path d="M516.966 320.616L514.352 317.976H510.618L516.592 325.144C516.592 325.144 516.592 323.257 516.966 320.616Z" fill="#233239"/>
<path d="M516.966 320.616L514.352 317.976H510.618L516.592 325.144C516.592 325.144 516.592 323.257 516.966 320.616Z" stroke="#233239" stroke-width="1.33333" stroke-miterlimit="10" stroke-linecap="round" stroke-linejoin="round"/>
<path d="M484.339 437.527L474.023 434.124C474.021 434.27 473.993 434.425 474.016 434.564C474.762 439.092 493.807 451.544 497.915 454.939C500.164 456.799 503.311 458.765 506.678 459.673C501.974 456.039 486.586 442.748 484.339 437.527Z" fill="#233239"/>
<path d="M484.339 437.527L474.023 434.124C474.021 434.27 473.993 434.425 474.016 434.564C474.762 439.092 493.807 451.544 497.915 454.939C500.164 456.799 503.311 458.765 506.678 459.673C501.974 456.039 486.586 442.748 484.339 437.527Z" stroke="#233239" stroke-width="1.33333" stroke-miterlimit="10" stroke-linecap="round" stroke-linejoin="round"/>
<path d="M500.9 347.405L508.221 349.063L509.489 353.065L504.635 351.556L500.9 347.405Z" fill="#233239"/>
<path d="M500.9 347.405L508.221 349.063L509.489 353.065L504.635 351.556L500.9 347.405Z" stroke="#233239" stroke-width="1.33333" stroke-miterlimit="10" stroke-linecap="round" stroke-linejoin="round"/>
<path d="M508.217 349.063C508.217 349.063 519.23 335.758 519.47 330.437L508.217 349.063Z" fill="#233239"/>
<path d="M508.217 349.063C508.217 349.063 519.23 335.758 519.47 330.437" stroke="#233239" stroke-width="1.33333" stroke-miterlimit="10" stroke-linecap="round" stroke-linejoin="round"/>
</g>
<path d="M636.148 329.643C636.148 329.643 633.719 345.652 633.653 350.419C633.587 355.187 630.049 388.781 632.47 392.614C634.892 396.448 634.233 400.029 635.688 402.374C637.143 404.718 638.109 406.207 638.109 406.207C638.109 406.207 641.8 427.442 642.993 432.679C644.185 437.917 643.735 437.723 643.446 440.174C643.156 442.627 646.099 444.215 646.099 444.215C646.099 444.215 643.257 447.93 642.286 449.982C641.315 452.034 635.041 453.305 632.04 454.376C629.039 455.446 628.967 457.884 629.662 458.505C630.356 459.126 632.77 459.199 632.77 459.199L662.867 457.343C664.464 457.244 665.696 455.892 665.658 454.276C665.624 452.869 665.574 451.239 665.505 450.099C665.358 447.674 664.736 444.614 664.478 443.967C664.22 443.319 663.691 441.803 663.504 438.717C663.317 435.63 659.124 431.464 658.8 429.714C658.475 427.963 658.828 419.312 656.822 411.47C654.815 403.628 648.83 384.304 648.791 383.642C648.75 382.981 654.819 364.941 654.819 364.941C654.819 364.941 667.378 347.192 668.44 346.552C669.502 345.913 676.32 333.986 676.167 331.897C676.013 329.808 674.54 325.785 662.885 322.807C651.23 319.829 645.121 324.419 643.741 325.432C642.359 326.446 636.148 329.643 636.148 329.643Z" fill="#233239"/>
<path d="M636.148 329.643C636.148 329.643 633.719 345.652 633.653 350.419C633.587 355.187 630.049 388.781 632.47 392.614C634.892 396.448 634.233 400.029 635.688 402.374C637.143 404.718 638.109 406.207 638.109 406.207C638.109 406.207 641.8 427.442 642.993 432.679C644.185 437.917 643.735 437.723 643.446 440.174C643.156 442.627 646.099 444.215 646.099 444.215C646.099 444.215 643.257 447.93 642.286 449.982C641.315 452.034 635.041 453.305 632.04 454.376C629.039 455.446 628.967 457.884 629.662 458.505C630.356 459.126 632.77 459.199 632.77 459.199L662.867 457.343C664.464 457.244 665.696 455.892 665.658 454.276C665.624 452.869 665.574 451.239 665.505 450.099C665.358 447.674 664.736 444.614 664.478 443.967C664.22 443.319 663.691 441.803 663.504 438.717C663.317 435.63 659.124 431.464 658.8 429.714C658.475 427.963 658.828 419.312 656.822 411.47C654.815 403.628 648.83 384.304 648.791 383.642C648.75 382.981 654.819 364.941 654.819 364.941C654.819 364.941 667.378 347.192 668.44 346.552C669.502 345.913 676.32 333.986 676.167 331.897C676.013 329.808 674.54 325.785 662.885 322.807C651.23 319.829 645.121 324.419 643.741 325.432C642.359 326.446 636.148 329.643 636.148 329.643Z" stroke="#233239" stroke-width="1.33333" stroke-miterlimit="10" stroke-linecap="round" stroke-linejoin="round"/>
<path d="M646.098 444.215C646.098 444.215 643.257 447.931 642.286 449.983C641.314 452.033 635.041 453.305 632.04 454.375C629.039 455.446 628.968 457.884 629.662 458.505C630.356 459.126 632.769 459.198 632.769 459.198L643.882 460.563L663.145 457.566C664.622 457.336 665.699 456.035 665.663 454.525C665.63 453.065 665.578 451.307 665.505 450.1C665.471 449.533 665.409 448.931 665.333 448.334C664.546 448.256 663.688 448.164 662.754 448.057C655.256 447.191 646.098 444.215 646.098 444.215Z" fill="#EA6C56"/>
<path d="M646.098 444.215C646.098 444.215 643.257 447.931 642.286 449.983C641.314 452.033 635.041 453.305 632.04 454.375C629.039 455.446 628.968 457.884 629.662 458.505C630.356 459.126 632.769 459.198 632.769 459.198L643.882 460.563L663.145 457.566C664.622 457.336 665.699 456.035 665.663 454.525C665.63 453.065 665.578 451.307 665.505 450.1C665.471 449.533 665.409 448.931 665.333 448.334C664.546 448.256 663.688 448.164 662.754 448.057C655.256 447.191 646.098 444.215 646.098 444.215Z" stroke="#233239" stroke-width="1.33333" stroke-miterlimit="10" stroke-linecap="round" stroke-linejoin="round"/>
<path d="M682.923 434.832L682.53 443.507C682.53 443.507 676.361 453.989 675.577 455.161C674.795 456.334 676.609 457.071 678.406 457.586C680.202 458.103 692.009 452.252 694.227 449.852C696.445 447.453 700.628 442.232 700.628 442.232C700.628 442.232 707.39 436.354 706.611 434.868C705.833 433.381 697.509 428.086 697.509 428.086L682.923 434.832Z" fill="#EA6C56"/>
<path d="M682.923 434.832L682.53 443.507C682.53 443.507 676.361 453.989 675.577 455.161C674.795 456.334 676.609 457.071 678.406 457.586C680.202 458.103 692.009 452.252 694.227 449.852C696.445 447.453 700.628 442.232 700.628 442.232C700.628 442.232 707.39 436.354 706.611 434.868C705.833 433.381 697.509 428.086 697.509 428.086L682.923 434.832Z" stroke="#233239" stroke-width="1.33333" stroke-miterlimit="10" stroke-linecap="round" stroke-linejoin="round"/>
<path d="M645.733 333.091C645.733 333.091 643.741 354.529 643.701 356.748C643.661 358.967 642.573 383.433 645.161 388.316C647.75 393.198 661.024 413.597 661.024 413.597C661.024 413.597 675.308 427.484 676.233 428.072C677.157 428.661 676.629 430.255 677.135 431.099C677.643 431.944 680.328 432.609 680.328 432.609C680.328 432.609 681.214 435.416 681.738 436.481C682.263 437.546 684.988 435.99 689.273 434.749C693.559 433.509 697.506 428.085 697.506 428.085C697.506 428.085 696.332 424.416 695.843 423.791C695.353 423.167 697.114 423.243 694.868 419.883C692.622 416.524 690.973 415.109 690.973 415.109L670.116 390.463L667.221 384.498C667.221 384.498 667.526 374.722 667.184 373.2C666.841 371.676 665.502 368.685 665.448 368.025C665.395 367.364 673.269 345.44 673.562 343.643C673.855 341.846 677.26 335.138 677.299 332.919C677.338 330.7 674.021 327.65 674.021 327.65C674.021 327.65 663.808 323.398 660.104 323.704C656.401 324.01 655.295 323.88 653.005 325.399C650.716 326.918 647.008 329.884 647.008 329.884L645.733 333.091Z" fill="#847E7E"/>
<path d="M645.733 333.091C645.733 333.091 643.741 354.529 643.701 356.748C643.661 358.967 642.573 383.433 645.161 388.316C647.75 393.198 661.024 413.597 661.024 413.597C661.024 413.597 675.308 427.484 676.233 428.072C677.157 428.661 676.629 430.255 677.135 431.099C677.643 431.944 680.328 432.609 680.328 432.609C680.328 432.609 681.214 435.416 681.738 436.481C682.263 437.546 684.988 435.99 689.273 434.749C693.559 433.509 697.506 428.085 697.506 428.085C697.506 428.085 696.332 424.416 695.843 423.791C695.353 423.167 697.114 423.243 694.868 419.883C692.622 416.524 690.973 415.109 690.973 415.109L670.116 390.463L667.221 384.498C667.221 384.498 667.526 374.722 667.184 373.2C666.841 371.676 665.502 368.685 665.448 368.025C665.395 367.364 673.269 345.44 673.562 343.643C673.855 341.846 677.26 335.138 677.299 332.919C677.338 330.7 674.021 327.65 674.021 327.65C674.021 327.65 663.808 323.398 660.104 323.704C656.401 324.01 655.295 323.88 653.005 325.399C650.716 326.918 647.008 329.884 647.008 329.884L645.733 333.091Z" stroke="#233239" stroke-width="1.33333" stroke-miterlimit="10" stroke-linecap="round" stroke-linejoin="round"/>
<path d="M665.507 382.259C665.507 382.259 659.931 380.961 657.935 380.875C655.939 380.789 656.013 382.171 661.615 383.335" stroke="#233239" stroke-width="1.33333" stroke-miterlimit="10" stroke-linecap="round" stroke-linejoin="round"/>
<path d="M662.536 333.262C662.536 333.262 662.826 346.051 660.78 351.496C658.734 356.941 657.325 364.093 656.514 369.436C655.703 374.779 658.093 373.577 657.967 375.094C657.841 376.612 655.306 379.083 655.306 379.083" stroke="#233239" stroke-width="1.33333" stroke-miterlimit="10" stroke-linecap="round" stroke-linejoin="round"/>
<path d="M661.132 386.64C661.132 386.64 663.467 393.984 669.588 402.021C675.71 410.057 685.636 419.034 686.045 421.011C686.454 422.987 685.421 425.584 685.421 425.584C685.421 425.584 689.373 425.257 689.741 426.734C690.109 428.211 690.992 429.897 690.992 429.897" stroke="#233239" stroke-width="1.33333" stroke-miterlimit="10" stroke-linecap="round" stroke-linejoin="round"/>
<path d="M679.07 226.668C679.07 226.668 676.743 232.895 676.439 234.274C676.135 235.651 676.113 238.347 676.366 239.368C676.618 240.389 677.063 243.59 677.063 243.59L659.507 252.295L659.832 245.396C657.976 241.7 657.226 240.088 655.685 239.5C654.144 238.912 650.956 239.406 649.833 237.638C649.299 236.797 649.508 231.537 649.736 229.419C649.965 227.3 650.547 225.744 650.547 225.744C650.547 225.744 648.638 224.446 648.795 223.083C648.953 221.72 650.388 221.272 651.53 220.854C652.671 220.436 653.389 220.212 653.915 219.559C654.44 218.905 654.073 218.196 655.473 215.955C656.874 213.715 660.168 212.625 660.168 212.625C660.168 212.625 662.76 211.906 667.115 212.501C671.469 213.096 677.811 221.563 678.547 222.982C679.284 224.402 679.07 226.668 679.07 226.668Z" fill="#C9C9C9"/>
<path d="M679.07 226.668C679.07 226.668 676.743 232.895 676.439 234.274C676.135 235.651 676.113 238.347 676.366 239.368C676.618 240.389 677.063 243.59 677.063 243.59L659.507 252.295L659.832 245.396C657.976 241.7 657.226 240.088 655.685 239.5C654.144 238.912 650.956 239.406 649.833 237.638C649.299 236.797 649.508 231.537 649.736 229.419C649.965 227.3 650.547 225.744 650.547 225.744C650.547 225.744 648.638 224.446 648.795 223.083C648.953 221.72 650.388 221.272 651.53 220.854C652.671 220.436 653.389 220.212 653.915 219.559C654.44 218.905 654.073 218.196 655.473 215.955C656.874 213.715 660.168 212.625 660.168 212.625C660.168 212.625 662.76 211.906 667.115 212.501C671.469 213.096 677.811 221.563 678.547 222.982C679.284 224.402 679.07 226.668 679.07 226.668Z" stroke="#233239" stroke-width="1.33333" stroke-miterlimit="10" stroke-linecap="round" stroke-linejoin="round"/>
<path d="M651.575 229.227L655.657 227.777C655.657 227.777 655.567 229.496 654.766 230.718C653.965 231.941 652.327 231.428 651.575 229.227Z" fill="#233239"/>
<path d="M651.575 229.227L655.657 227.777C655.657 227.777 655.567 229.496 654.766 230.718C653.965 231.941 652.327 231.428 651.575 229.227Z" stroke="#233239" stroke-width="1.33333" stroke-miterlimit="10" stroke-linecap="round" stroke-linejoin="round"/>
<path d="M655.524 219.704C655.294 220.276 655.394 220.859 655.747 221.004C656.1 221.148 656.573 220.801 656.803 220.228C657.034 219.655 656.933 219.074 656.58 218.929C656.227 218.784 655.754 219.131 655.524 219.704Z" fill="#233239"/>
<path d="M658.546 218.033C658.546 218.033 657.115 216.174 655.914 217.386" stroke="#233239" stroke-width="1.33333" stroke-miterlimit="10" stroke-linecap="round" stroke-linejoin="round"/>
<path d="M678.551 222.982C679.288 224.402 679.075 226.669 679.075 226.669C679.075 226.669 677.926 229.743 677.137 232.049C676.769 231.825 676.168 235.711 675.788 235.311C674.286 233.725 671.009 227.185 670.78 226.822C670.552 226.459 668.9 222.47 668.9 222.47C668.9 222.47 666.031 223.211 665.3 222.609C664.568 222.007 665.226 220.003 665.234 219.131C665.24 218.26 663.356 215.982 662.67 214.892C661.984 213.801 663.185 212.419 663.185 212.419L663.357 212.271C664.392 212.251 665.653 212.3 667.119 212.5C671.474 213.095 677.814 221.563 678.551 222.982Z" fill="#A6A6A6"/>
<path d="M678.551 222.982C679.288 224.402 679.075 226.669 679.075 226.669C679.075 226.669 677.926 229.743 677.137 232.049C676.769 231.825 676.168 235.711 675.788 235.311C674.286 233.725 671.009 227.185 670.78 226.822C670.552 226.459 668.9 222.47 668.9 222.47C668.9 222.47 666.031 223.211 665.3 222.609C664.568 222.007 665.226 220.003 665.234 219.131C665.24 218.26 663.356 215.982 662.67 214.892C661.984 213.801 663.185 212.419 663.185 212.419L663.357 212.271C664.392 212.251 665.653 212.3 667.119 212.5C671.474 213.095 677.814 221.563 678.551 222.982Z" stroke="#233239" stroke-width="1.33333" stroke-miterlimit="10" stroke-linecap="round" stroke-linejoin="round"/>
<path d="M666.789 222.879C666.789 222.879 670.835 219.895 671.434 224.321C672.032 228.747 668.965 230.322 667.09 230.815C665.216 231.309 664.873 229.4 664.873 229.4" fill="#C9C9C9"/>
<path d="M666.789 222.879C666.789 222.879 670.835 219.895 671.434 224.321C672.032 228.747 668.965 230.322 667.09 230.815C665.216 231.309 664.873 229.4 664.873 229.4" stroke="#233239" stroke-width="1.33333" stroke-miterlimit="10" stroke-linecap="round" stroke-linejoin="round"/>
<path d="M675.949 210.535C675.949 210.535 677.293 209.198 679.868 212.671C682.442 216.144 681.669 217.272 681.669 217.272C681.669 217.272 683.311 217.4 684.022 220.02C684.732 222.638 683.671 225.293 681.401 226.277C679.132 227.26 679.057 226.52 676.942 224.646C674.825 222.771 675.56 218.356 671.611 215.923C667.661 213.491 664.362 213.086 661.974 212.886C659.583 212.686 658.013 211.801 658.565 209.948C659.116 208.096 662.699 205.479 664.887 206.598C667.073 207.717 667.836 207.937 667.836 207.937C667.836 207.937 674.516 206.645 675.949 210.535Z" fill="#233239"/>
<path d="M675.949 210.535C675.949 210.535 677.293 209.198 679.868 212.671C682.442 216.144 681.669 217.272 681.669 217.272C681.669 217.272 683.311 217.4 684.022 220.02C684.732 222.638 683.671 225.293 681.401 226.277C679.132 227.26 679.057 226.52 676.942 224.646C674.825 222.771 675.56 218.356 671.611 215.923C667.661 213.491 664.362 213.086 661.974 212.886C659.583 212.686 658.013 211.801 658.565 209.948C659.116 208.096 662.699 205.479 664.887 206.598C667.073 207.717 667.836 207.937 667.836 207.937C667.836 207.937 674.516 206.645 675.949 210.535Z" stroke="#233239" stroke-width="1.33333" stroke-miterlimit="10" stroke-linecap="round" stroke-linejoin="round"/>
<path d="M658.971 253.782L632.663 261.498L625.069 259.155C625.023 259.474 624.965 259.794 624.931 260.113C624.282 266.164 623.824 269.493 623 273.47L632.062 279.439L660.877 281.988L658.971 253.782Z" fill="#233239"/>
<path d="M658.971 253.782L632.663 261.498L625.069 259.155C625.023 259.474 624.965 259.794 624.931 260.113C624.282 266.164 623.824 269.493 623 273.47L632.062 279.439L660.877 281.988L658.971 253.782Z" stroke="#233239" stroke-width="1.33333" stroke-miterlimit="10" stroke-linecap="round" stroke-linejoin="round"/>
<path d="M657.636 246.515C657.636 246.515 653.902 255.129 653.369 256.359C652.835 257.59 646.55 268.286 645.836 277.443C645.123 286.601 640.72 306.891 640.72 306.891L633.603 331.726C633.603 331.726 636.457 334.733 644.629 331.81C652.801 328.886 655.252 324.5 659.489 325.583C663.727 326.667 669.069 331.449 671.821 333.064C674.573 334.678 679.6 338.013 679.6 338.013C679.6 338.013 682.426 312.309 682.449 304.114C682.471 295.918 686.509 273.485 684.733 263.463C682.958 253.442 679.792 248.076 678.206 246.304C676.62 244.532 675.295 244.421 675.295 244.421C675.295 244.421 662.259 242.457 657.636 246.515Z" fill="white"/>
<path d="M657.636 246.515C657.636 246.515 653.902 255.129 653.369 256.359C652.835 257.59 646.55 268.286 645.836 277.443C645.123 286.601 640.72 306.891 640.72 306.891L633.603 331.726C633.603 331.726 636.457 334.733 644.629 331.81C652.801 328.886 655.252 324.5 659.489 325.583C663.727 326.667 669.069 331.449 671.821 333.064C674.573 334.678 679.6 338.013 679.6 338.013C679.6 338.013 682.426 312.309 682.449 304.114C682.471 295.918 686.509 273.485 684.733 263.463C682.958 253.442 679.792 248.076 678.206 246.304C676.62 244.532 675.295 244.421 675.295 244.421C675.295 244.421 662.259 242.457 657.636 246.515Z" stroke="#233239" stroke-width="1.33333" stroke-miterlimit="10" stroke-linecap="round" stroke-linejoin="round"/>
<path d="M660.505 285.673C660.505 285.673 668.434 300.696 676.859 304.703L660.505 285.673Z" fill="white"/>
<path d="M660.505 285.673C660.505 285.673 668.434 300.696 676.859 304.703" stroke="#233239" stroke-width="1.33333" stroke-miterlimit="10" stroke-linecap="round" stroke-linejoin="round"/>
<path d="M655.061 285.172L662.991 295.688L655.061 285.172Z" fill="white"/>
<path d="M655.061 285.172L662.991 295.688" stroke="#233239" stroke-width="1.33333" stroke-miterlimit="10" stroke-linecap="round" stroke-linejoin="round"/>
<path d="M679.984 247.039C679.984 247.039 680.055 240.843 677.708 239.648C675.362 238.452 665.652 241.872 662.415 243.094C659.177 244.317 654.823 246.024 654.823 246.024L655.168 254.166C655.168 254.166 663.088 249.904 665.647 247.652C667.421 246.091 677.335 245.455 679.984 247.039Z" fill="white"/>
<path d="M679.984 247.039C679.984 247.039 680.055 240.843 677.708 239.648C675.362 238.452 665.652 241.872 662.415 243.094C659.177 244.317 654.823 246.024 654.823 246.024L655.168 254.166C655.168 254.166 663.088 249.904 665.647 247.652C667.421 246.091 677.335 245.455 679.984 247.039Z" stroke="#233239" stroke-width="1.33333" stroke-miterlimit="10" stroke-linecap="round" stroke-linejoin="round"/>
<path d="M591.86 251.881C591.86 251.881 589.704 250.675 587.477 248.069C585.251 245.464 584.681 248.56 585.133 249.465C585.585 250.371 587.347 252.244 587.347 252.244L591.86 251.881Z" fill="#C9C9C9"/>
<path d="M591.86 251.881C591.86 251.881 589.704 250.675 587.477 248.069C585.251 245.464 584.681 248.56 585.133 249.465C585.585 250.371 587.347 252.244 587.347 252.244L591.86 251.881Z" stroke="#233239" stroke-width="1.33333" stroke-miterlimit="10" stroke-linecap="round" stroke-linejoin="round"/>
<path d="M612.236 260.447C612.236 260.447 598.734 255.292 597.748 254.815C596.762 254.338 591.575 251.782 589.947 251.436C588.317 251.09 581.159 250.959 579.829 251.002C578.501 251.045 577.301 251.738 578.201 252.907C579.101 254.077 582.916 253.082 582.916 253.082L588.231 254.034C588.231 254.034 578.286 255.594 576.872 256.33C575.457 257.066 576.829 258.365 580.044 257.716C583.259 257.066 584.717 256.547 584.717 256.547L587.331 257.37C587.331 257.37 581.33 259.709 579.487 260.531C577.643 261.354 577.729 262.914 579.486 262.784C581.243 262.653 582.572 261.485 583.216 261.354C583.859 261.225 588.103 261.268 588.103 261.268C588.103 261.268 582.144 262.697 581.758 264.127C581.372 265.555 582.744 265.729 584.115 264.777C585.487 263.824 585.916 263.737 586.773 263.564C587.631 263.39 591.875 263.434 591.875 263.434C591.875 263.434 597.105 262.828 597.747 262.698C598.39 262.568 613.05 271.319 613.05 271.319L612.236 260.447Z" fill="#C9C9C9"/>
<path d="M612.236 260.447C612.236 260.447 598.734 255.292 597.748 254.815C596.762 254.338 591.575 251.782 589.947 251.436C588.317 251.09 581.159 250.959 579.829 251.002C578.501 251.045 577.301 251.738 578.201 252.907C579.101 254.077 582.916 253.082 582.916 253.082L588.231 254.034C588.231 254.034 578.286 255.594 576.872 256.33C575.457 257.066 576.829 258.365 580.044 257.716C583.259 257.066 584.717 256.547 584.717 256.547L587.331 257.37C587.331 257.37 581.33 259.709 579.487 260.531C577.643 261.354 577.729 262.914 579.486 262.784C581.243 262.653 582.572 261.485 583.216 261.354C583.859 261.225 588.103 261.268 588.103 261.268C588.103 261.268 582.144 262.697 581.758 264.127C581.372 265.555 582.744 265.729 584.115 264.777C585.487 263.824 585.916 263.737 586.773 263.564C587.631 263.39 591.875 263.434 591.875 263.434C591.875 263.434 597.105 262.828 597.747 262.698C598.39 262.568 613.05 271.319 613.05 271.319L612.236 260.447Z" stroke="#233239" stroke-width="1.33333" stroke-miterlimit="10" stroke-linecap="round" stroke-linejoin="round"/>
<path d="M669.598 250.656C669.598 250.656 661.535 251.706 658.969 253.782C656.403 255.859 655.151 258.119 654.611 258.429C654.071 258.738 641.69 263.357 641.69 263.357L617.163 262.295L615.196 272.785C615.196 272.785 637.661 281.864 638.532 281.755C639.402 281.645 658.79 282.182 660.875 281.987C662.959 281.793 674.394 277.338 674.394 277.338" fill="white"/>
<path d="M669.598 250.656C669.598 250.656 661.535 251.706 658.969 253.782C656.403 255.859 655.151 258.119 654.611 258.429C654.071 258.738 641.69 263.357 641.69 263.357L617.163 262.295L615.196 272.785C615.196 272.785 637.661 281.864 638.532 281.755C639.402 281.645 658.79 282.182 660.875 281.987C662.959 281.793 674.394 277.338 674.394 277.338" stroke="#233239" stroke-width="1.33333" stroke-miterlimit="10" stroke-linecap="round" stroke-linejoin="round"/>
<path d="M641.747 268.977C641.747 268.977 649.487 273.577 657.859 274.719L641.747 268.977Z" fill="white"/>
<path d="M641.747 268.977C641.747 268.977 649.487 273.577 657.859 274.719" stroke="#233239" stroke-width="1.33333" stroke-miterlimit="10" stroke-linecap="round" stroke-linejoin="round"/>
<path d="M668.611 273.555C669.823 273.691 671.041 273.799 672.238 273.864L668.611 273.555Z" fill="white"/>
<path d="M668.611 273.555C669.823 273.691 671.041 273.799 672.238 273.864" stroke="#233239" stroke-width="1.33333" stroke-miterlimit="10" stroke-linecap="round" stroke-linejoin="round"/>
<path d="M652.138 270.286C652.138 270.286 657.995 271.965 664.876 273.048L652.138 270.286Z" fill="white"/>
<path d="M652.138 270.286C652.138 270.286 657.995 271.965 664.876 273.048" stroke="#233239" stroke-width="1.33333" stroke-miterlimit="10" stroke-linecap="round" stroke-linejoin="round"/>
<path d="M618.376 261.01C618.376 261.01 612.461 257.025 611.518 257.892C610.575 258.757 610.831 270.192 611.645 272.055C612.46 273.917 614.26 275.13 615.375 275.13C616.489 275.13 620.005 264.736 618.376 261.01Z" fill="white"/>
<path d="M618.376 261.01C618.376 261.01 612.461 257.025 611.518 257.892C610.575 258.757 610.831 270.192 611.645 272.055C612.46 273.917 614.26 275.13 615.375 275.13C616.489 275.13 620.005 264.736 618.376 261.01Z" stroke="#233239" stroke-width="1.33333" stroke-miterlimit="10" stroke-linecap="round" stroke-linejoin="round"/>
<path d="M663.146 457.566C664.623 457.336 665.699 456.034 665.664 454.525C665.655 454.127 665.644 453.706 665.633 453.279C661.535 454.592 650.148 458.059 644.767 457.849C640.143 457.669 633.351 456.765 629.66 456.234C629.139 457.188 629.263 458.148 629.663 458.505C630.357 459.126 632.77 459.198 632.77 459.198L643.882 460.563L663.146 457.566Z" fill="white"/>
<path d="M663.146 457.566C664.623 457.336 665.699 456.034 665.664 454.525C665.655 454.127 665.644 453.706 665.633 453.279C661.535 454.592 650.148 458.059 644.767 457.849C640.143 457.669 633.351 456.765 629.66 456.234C629.139 457.188 629.263 458.148 629.663 458.505C630.357 459.126 632.77 459.198 632.77 459.198L643.882 460.563L663.146 457.566Z" stroke="#233239" stroke-width="1.33333" stroke-miterlimit="10" stroke-linecap="round" stroke-linejoin="round"/>
<path d="M692.235 448.157C689.989 450.314 677.992 455.597 675.891 456.514C676.459 456.958 677.424 457.307 678.397 457.586C680.193 458.103 692.001 452.251 694.219 449.852C696.437 447.452 700.62 442.232 700.62 442.232C700.62 442.232 707.381 436.354 706.602 434.867C706.332 434.352 705.148 433.376 703.725 432.323C701.406 435.751 694.287 446.185 692.235 448.157Z" fill="white"/>
<path d="M692.235 448.157C689.989 450.314 677.992 455.597 675.891 456.514C676.459 456.958 677.424 457.307 678.397 457.586C680.193 458.103 692.001 452.251 694.219 449.852C696.437 447.452 700.62 442.232 700.62 442.232C700.62 442.232 707.381 436.354 706.602 434.867C706.332 434.352 705.148 433.376 703.725 432.323C701.406 435.751 694.287 446.185 692.235 448.157Z" stroke="#233239" stroke-width="1.33333" stroke-miterlimit="10" stroke-linecap="round" stroke-linejoin="round"/>
<mask id="mask5_4_1058" style="mask-type:luminance" maskUnits="userSpaceOnUse" x="0" y="13" width="835" height="484">
<path d="M0 13H835V496.665H0V13Z" fill="white"/>
</mask>
<g mask="url(#mask5_4_1058)">
<path d="M723.44 412.921C725.384 413.659 730.14 413.566 730.143 413.566C730.192 413.565 729.121 410.86 729.031 410.697C727.988 408.8 724.688 405.669 722.002 405.984C720.069 406.211 718.993 407.893 719.43 409.475C719.876 411.091 721.784 412.292 723.44 412.921Z" fill="#ECEE80"/>
<path d="M770.215 456.665C770.988 455.182 770.296 453.355 768.446 452.815C765.877 452.066 761.957 454.6 760.521 456.291C760.455 456.367 759.98 457.077 759.546 457.741H769.32C769.692 457.426 770.003 457.071 770.215 456.665Z" fill="#ECEE80"/>
<path d="M755.653 445.688C756.958 446.7 760.248 447.683 761.374 448.001C761.176 448.812 760.98 449.626 760.746 450.403C760.573 450.933 760.448 451.452 760.241 451.974C760.047 452.495 759.856 453.01 759.665 453.521C759.258 454.493 758.845 455.498 758.421 456.439C758.223 456.887 758.024 457.312 757.825 457.741H759.422C759.545 457.457 759.668 457.178 759.79 456.881C760.2 455.91 760.576 454.932 760.986 453.879C761.163 453.365 761.341 452.845 761.522 452.321C761.714 451.804 761.841 451.237 762.005 450.691C762.353 449.416 762.637 448.11 762.887 446.789C763.867 447.099 767.362 448.155 769.173 448.045C770.976 447.935 773.237 447.359 774.28 445.966C775.302 444.603 774.938 442.705 773.202 441.928C770.795 440.849 766.478 442.838 764.763 444.321C764.657 444.414 763.563 445.598 762.978 446.258C763.121 445.463 763.269 444.67 763.385 443.861C763.718 441.527 763.973 439.155 764.238 436.79C764.318 436.066 764.409 435.345 764.496 434.623C764.844 434.737 768.967 436.07 770.996 435.947C772.797 435.837 775.06 435.262 776.103 433.869C777.125 432.505 776.76 430.607 775.025 429.83C772.617 428.751 768.3 430.74 766.586 432.223C766.457 432.335 764.887 434.041 764.512 434.492C764.706 432.902 764.915 431.318 765.195 429.764C765.577 427.621 766.089 425.536 766.756 423.548C766.918 423.602 771.215 425.01 773.292 424.883C775.094 424.774 777.355 424.198 778.4 422.805C779.422 421.442 779.056 419.545 777.322 418.767C774.914 417.688 770.597 419.677 768.883 421.159C768.748 421.276 767.06 423.112 766.782 423.464C766.822 423.346 766.849 423.219 766.89 423.102C767.634 420.988 768.659 419.02 769.724 417.22C770.34 416.172 770.997 415.2 771.661 414.268C772.43 414.602 775.965 416.093 777.848 416.159C779.654 416.221 781.974 415.865 783.187 414.58C784.375 413.323 784.252 411.402 782.627 410.463C780.37 409.161 775.828 410.726 773.936 412.036C773.833 412.108 772.88 412.933 772.195 413.542C772.501 413.125 772.808 412.69 773.112 412.295C774.246 410.812 775.388 409.515 776.411 408.374C776.999 407.729 777.546 407.155 778.062 406.623C779.014 406.608 782.848 406.507 784.524 405.824C786.159 405.157 788.03 403.912 788.425 402.285C788.813 400.693 787.685 399.037 785.744 398.856C783.051 398.604 779.849 401.811 778.865 403.732C778.78 403.898 777.794 406.626 777.843 406.626C777.843 406.626 777.89 406.625 777.901 406.625C777.391 407.128 776.851 407.673 776.275 408.277C775.221 409.402 774.042 410.682 772.867 412.149C771.689 413.612 770.456 415.232 769.335 417.039C768.208 418.849 767.128 420.803 766.317 422.942C766.308 422.966 766.302 422.992 766.292 423.016C766.306 422.327 766.271 420.398 766.249 420.25C765.938 418.165 763.927 414.296 761.263 413.867C759.344 413.56 757.717 414.867 757.565 416.488C757.409 418.144 758.79 419.802 760.139 420.849C761.658 422.028 765.877 423.17 766.213 423.26C765.461 425.302 764.88 427.452 764.432 429.655C764.172 430.915 763.957 432.19 763.759 433.471C763.749 432.874 763.736 432.34 763.725 432.266C763.413 430.181 761.402 426.313 758.738 425.884C756.818 425.577 755.193 426.884 755.04 428.505C754.884 430.161 756.265 431.819 757.614 432.865C758.981 433.926 762.556 434.963 763.505 435.226C763.435 435.718 763.359 436.209 763.292 436.701C762.968 439.063 762.655 441.423 762.266 443.728C762.13 444.54 761.961 445.337 761.796 446.134C761.786 445.604 761.773 445.158 761.763 445.09C761.452 443.004 759.442 439.136 756.777 438.707C754.858 438.399 753.233 439.706 753.079 441.328C752.923 442.984 754.305 444.642 755.653 445.688Z" fill="#ECEE80"/>
<path d="M725.084 424.889C727.101 425.145 731.345 424.076 731.683 423.989C732.352 426.053 733.233 428.124 734.257 430.178C734.84 431.352 735.471 432.518 736.119 433.682C735.732 433.189 735.382 432.752 735.325 432.695C733.742 431.104 729.608 428.842 727.114 429.762C725.317 430.424 724.791 432.293 725.693 433.719C726.615 435.176 728.82 435.895 730.609 436.122C732.422 436.352 736.062 435.504 737.021 435.268C737.276 435.712 737.525 436.158 737.781 436.601C739.01 438.727 740.247 440.843 741.387 442.953C741.789 443.696 742.153 444.44 742.521 445.184C742.176 444.747 741.883 444.381 741.831 444.329C740.248 442.739 736.114 440.476 733.62 441.397C731.823 442.059 731.298 443.928 732.2 445.354C733.121 446.811 735.327 447.531 737.115 447.757C738.846 447.976 742.213 447.219 743.355 446.944C743.706 447.715 744.059 448.488 744.357 449.249C744.549 449.773 744.775 450.266 744.933 450.801C745.102 451.329 745.269 451.851 745.436 452.368C745.713 453.373 746.007 454.41 746.249 455.397C746.424 456.083 746.576 456.739 746.731 457.399C746.341 456.655 745.541 455.213 745.458 455.099C744.171 453.32 740.479 450.539 737.853 451.12C735.963 451.539 735.115 453.316 735.76 454.845C736.363 456.281 738.149 457.239 739.778 457.741H748.369C748.326 457.577 748.287 457.42 748.245 457.254C748.562 457.145 750.358 456.514 751.95 455.741C752.674 456.422 753.984 457.159 755.141 457.741H757.649C757.787 456.923 757.942 455.917 757.945 455.811C757.982 454.415 757.411 452.145 756.275 450.549C756.282 450.343 756.269 450.137 756.231 449.932C755.934 448.327 754.197 447.133 752.311 447.569C749.692 448.175 748.032 452.168 747.908 454.268C747.901 454.391 747.993 455.742 748.069 456.594C747.937 456.099 747.815 455.617 747.673 455.11C747.398 454.104 747.09 453.107 746.763 452.032C746.585 451.519 746.403 451 746.221 450.476C746.053 449.954 745.799 449.42 745.589 448.886C745.071 447.655 744.477 446.431 743.848 445.208C744.862 444.997 748.448 444.203 749.888 443.242C751.321 442.287 752.842 440.723 752.827 439.062C752.815 437.434 751.305 436.026 749.365 436.209C746.672 436.463 744.334 440.191 743.845 442.251C743.815 442.379 743.655 443.89 743.586 444.722C743.202 443.989 742.821 443.258 742.404 442.527C741.2 440.422 739.906 438.322 738.626 436.221C738.233 435.578 737.851 434.934 737.466 434.29C737.827 434.218 742.114 433.354 743.726 432.279C745.16 431.323 746.681 429.76 746.666 428.098C746.653 426.471 745.144 425.062 743.204 425.245C740.511 425.5 738.174 429.228 737.684 431.286C737.647 431.442 737.421 433.616 737.394 434.172C736.547 432.754 735.717 431.333 734.963 429.903C733.921 427.931 733.023 425.947 732.319 423.969C732.487 423.935 736.966 423.051 738.618 421.95C740.051 420.995 741.572 419.43 741.558 417.769C741.545 416.142 740.035 414.734 738.096 414.917C735.402 415.171 733.064 418.899 732.575 420.958C732.537 421.119 732.295 423.46 732.286 423.887C732.244 423.769 732.186 423.651 732.146 423.534C731.425 421.414 731.031 419.281 730.776 417.269C730.624 416.099 730.555 414.974 730.516 413.879C731.37 413.788 735.266 413.337 736.878 412.489C738.423 411.675 740.133 410.267 740.329 408.614C740.522 406.995 739.2 405.452 737.247 405.449C734.539 405.444 731.744 408.927 730.998 410.927C730.957 411.035 730.685 412.18 730.502 413.017C730.493 412.522 730.473 412.012 730.475 411.538C730.478 409.757 730.609 408.127 730.737 406.685C730.817 405.865 730.909 405.125 731.003 404.434C731.787 403.965 734.921 402.044 735.885 400.669C736.824 399.329 737.594 397.394 736.892 395.848C736.204 394.335 734.213 393.494 732.478 394.273C730.071 395.354 729.439 399.563 729.836 401.637C729.872 401.816 730.78 404.565 730.821 404.54C730.821 404.54 730.859 404.518 730.868 404.512C730.763 405.176 730.659 405.889 730.562 406.67C730.397 408.114 730.227 409.746 730.178 411.532C730.124 413.318 730.124 415.259 730.336 417.304C730.546 419.354 730.886 421.502 731.566 423.674C731.575 423.698 731.586 423.724 731.594 423.748C731.168 423.166 729.914 421.574 729.801 421.461C728.218 419.872 724.085 417.608 721.591 418.528C719.794 419.192 719.267 421.06 720.169 422.486C721.091 423.943 723.296 424.663 725.084 424.889Z" fill="#ECEE80"/>
<path d="M771.541 413.83C771.584 413.852 772.407 411.083 772.435 410.903C772.769 408.822 772.006 404.628 769.565 403.605C767.808 402.867 765.843 403.754 765.203 405.283C764.549 406.844 765.378 408.761 766.36 410.079C767.513 411.626 771.538 413.828 771.541 413.83Z" fill="#ECEE80"/>
<path d="M73.6263 412.921C75.5702 413.659 80.3263 413.566 80.3297 413.566C80.3787 413.565 79.3076 410.86 79.2175 410.697C78.1743 408.8 74.8744 405.669 72.189 405.984C70.2551 406.211 69.1797 407.893 69.6161 409.475C70.0625 411.091 71.9697 412.292 73.6263 412.921Z" fill="#ECEE80"/>
<path d="M120.4 456.665C121.173 455.182 120.481 453.355 118.631 452.815C116.062 452.066 112.142 454.6 110.705 456.291C110.641 456.367 110.165 457.077 109.731 457.741H119.505C119.877 457.426 120.189 457.071 120.4 456.665Z" fill="#ECEE80"/>
<path d="M105.837 445.688C107.142 446.7 110.432 447.683 111.558 448.001C111.36 448.812 111.164 449.626 110.931 450.403C110.757 450.933 110.632 451.452 110.425 451.974C110.231 452.495 110.04 453.01 109.85 453.521C109.442 454.493 109.03 455.498 108.605 456.439C108.407 456.887 108.208 457.312 108.009 457.741H109.606C109.729 457.457 109.852 457.178 109.974 456.881C110.384 455.91 110.76 454.931 111.17 453.879C111.347 453.365 111.525 452.845 111.705 452.321C111.898 451.804 112.025 451.237 112.189 450.691C112.538 449.416 112.821 448.11 113.072 446.789C114.051 447.099 117.546 448.155 119.357 448.045C121.16 447.935 123.421 447.359 124.464 445.966C125.486 444.603 125.122 442.705 123.388 441.928C120.98 440.849 116.662 442.838 114.947 444.321C114.841 444.414 113.747 445.598 113.162 446.258C113.305 445.463 113.453 444.67 113.569 443.861C113.902 441.527 114.157 439.155 114.422 436.79C114.502 436.066 114.593 435.345 114.68 434.623C115.028 434.737 119.151 436.07 121.18 435.947C122.981 435.837 125.242 435.262 126.287 433.869C127.309 432.505 126.944 430.607 125.209 429.83C122.801 428.751 118.485 430.74 116.77 432.223C116.641 432.335 115.071 434.041 114.696 434.492C114.89 432.901 115.099 431.318 115.379 429.764C115.761 427.621 116.273 425.536 116.94 423.548C117.102 423.602 121.399 425.01 123.476 424.883C125.278 424.774 127.539 424.198 128.584 422.805C129.606 421.442 129.24 419.545 127.506 418.767C125.098 417.688 120.781 419.677 119.067 421.159C118.932 421.276 117.244 423.112 116.965 423.464C117.006 423.346 117.033 423.219 117.074 423.102C117.818 420.988 118.843 419.02 119.908 417.22C120.524 416.172 121.181 415.2 121.845 414.268C122.614 414.602 126.148 416.093 128.032 416.159C129.838 416.221 132.159 415.865 133.371 414.58C134.559 413.323 134.436 411.402 132.811 410.463C130.554 409.161 126.012 410.726 124.12 412.036C124.017 412.108 123.064 412.933 122.379 413.542C122.685 413.125 122.992 412.69 123.296 412.295C124.43 410.812 125.572 409.515 126.595 408.374C127.183 407.729 127.73 407.155 128.246 406.623C129.198 406.608 133.031 406.507 134.708 405.824C136.344 405.156 138.214 403.912 138.609 402.285C138.997 400.693 137.869 399.037 135.928 398.856C133.235 398.604 130.033 401.811 129.049 403.732C128.964 403.898 127.978 406.626 128.027 406.626C128.027 406.626 128.074 406.625 128.085 406.625C127.575 407.128 127.035 407.673 126.459 408.277C125.405 409.402 124.226 410.682 123.051 412.149C121.874 413.612 120.64 415.232 119.519 417.039C118.392 418.849 117.312 420.803 116.501 422.942C116.492 422.966 116.485 422.992 116.476 423.016C116.491 422.327 116.455 420.398 116.433 420.25C116.122 418.165 114.111 414.296 111.447 413.867C109.528 413.56 107.901 414.867 107.749 416.488C107.593 418.144 108.974 419.802 110.323 420.849C111.842 422.028 116.061 423.17 116.397 423.26C115.646 425.302 115.064 427.452 114.616 429.655C114.356 430.915 114.141 432.19 113.943 433.471C113.933 432.874 113.92 432.34 113.908 432.266C113.597 430.181 111.586 426.313 108.922 425.884C107.002 425.577 105.377 426.884 105.224 428.505C105.068 430.161 106.449 431.819 107.798 432.865C109.165 433.926 112.74 434.963 113.689 435.226C113.619 435.718 113.544 436.209 113.476 436.701C113.152 439.063 112.839 441.423 112.45 443.728C112.314 444.54 112.145 445.337 111.98 446.134C111.97 445.604 111.957 445.158 111.947 445.09C111.636 443.004 109.626 439.136 106.962 438.707C105.042 438.399 103.417 439.706 103.263 441.328C103.107 442.984 104.49 444.642 105.837 445.688Z" fill="#ECEE80"/>
<path d="M75.2742 424.889C77.2905 425.145 81.5356 424.076 81.873 423.989C82.5421 426.053 83.4227 428.124 84.447 430.178C85.0304 431.352 85.6605 432.518 86.3085 433.682C85.9221 433.189 85.5714 432.752 85.5158 432.695C83.9315 431.104 79.7977 428.842 77.3038 429.762C75.5069 430.424 74.9814 432.293 75.8832 433.719C76.8039 435.176 79.0095 435.895 80.7986 436.122C82.6122 436.352 86.2517 435.504 87.2114 435.268C87.4663 435.712 87.7135 436.158 87.9707 436.601C89.1998 438.727 90.4367 440.843 91.5768 442.953C91.9787 443.696 92.3427 444.44 92.7112 445.184C92.3661 444.747 92.0733 444.381 92.021 444.329C90.4378 442.739 86.304 440.476 83.8102 441.397C82.0132 442.059 81.4877 443.928 82.3895 445.354C83.3114 446.811 85.5158 447.53 87.3049 447.757C89.0361 447.976 92.4029 447.219 93.5451 446.944C93.8947 447.715 94.2488 448.488 94.5471 449.249C94.7386 449.773 94.9646 450.266 95.1227 450.801C95.2919 451.329 95.459 451.851 95.626 452.368C95.9032 453.373 96.1971 454.41 96.4387 455.397C96.6135 456.083 96.766 456.739 96.9208 457.399C96.53 456.655 95.7306 455.213 95.6482 455.099C94.3612 453.32 90.6694 450.539 88.043 451.12C86.1526 451.539 85.3054 453.316 85.95 454.844C86.5534 456.281 88.3403 457.239 89.968 457.741H98.5585C98.5162 457.577 98.4783 457.42 98.4349 457.254C98.7511 457.145 100.548 456.514 102.14 455.741C102.864 456.422 104.174 457.159 105.331 457.741H107.84C107.977 456.923 108.132 455.917 108.135 455.811C108.172 454.415 107.601 452.145 106.465 450.549C106.472 450.343 106.459 450.136 106.421 449.932C106.125 448.327 104.387 447.133 102.501 447.569C99.8822 448.175 98.2222 452.168 98.0975 454.268C98.0898 454.391 98.1833 455.742 98.259 456.594C98.1265 456.099 98.0051 455.617 97.8626 455.11C97.5876 454.104 97.2804 453.107 96.953 452.032C96.7749 451.519 96.5934 451 96.4109 450.476C96.2439 449.954 95.9889 449.42 95.7785 448.886C95.2608 447.655 94.6674 446.431 94.0383 445.208C95.0515 444.997 98.6375 444.203 100.078 443.242C101.511 442.287 103.032 440.723 103.017 439.062C103.005 437.434 101.495 436.026 99.5549 436.209C96.8617 436.463 94.5238 440.191 94.035 442.251C94.0049 442.379 93.8446 443.89 93.7756 444.722C93.3915 443.989 93.0107 443.258 92.5943 442.527C91.3897 440.422 90.096 438.322 88.8157 436.221C88.4227 435.578 88.0408 434.934 87.6556 434.29C88.0174 434.218 92.3038 433.354 93.9159 432.279C95.3498 431.323 96.8707 429.76 96.8562 428.098C96.8439 426.471 95.3343 425.062 93.3937 425.245C90.7006 425.5 88.3637 429.228 87.8738 431.286C87.8371 431.442 87.6111 433.616 87.5843 434.172C86.7371 432.754 85.9066 431.333 85.1528 429.903C84.1108 427.931 83.2134 425.947 82.5087 423.969C82.6768 423.935 87.1557 423.051 88.8079 421.95C90.2408 420.995 91.7616 419.43 91.7482 417.769C91.7349 416.142 90.2252 414.734 88.2857 414.917C85.5915 415.171 83.2535 418.899 82.7647 420.958C82.7269 421.119 82.4853 423.46 82.4764 423.887C82.4341 423.769 82.3762 423.651 82.3361 423.534C81.6147 421.414 81.2217 419.281 80.9656 417.268C80.8142 416.099 80.7451 414.974 80.7062 413.879C81.5601 413.788 85.4557 413.337 87.0678 412.489C88.6131 411.675 90.3231 410.267 90.5191 408.614C90.7117 406.995 89.3891 405.452 87.4374 405.449C84.7287 405.444 81.9342 408.927 81.1871 410.927C81.1471 411.035 80.8754 412.18 80.6917 413.017C80.6828 412.522 80.6628 412.012 80.665 411.538C80.6683 409.757 80.7986 408.127 80.9266 406.685C81.0068 405.865 81.0992 405.125 81.1927 404.434C81.9765 403.965 85.1105 402.044 86.0747 400.669C87.0143 399.329 87.7836 397.394 87.0811 395.848C86.3942 394.335 84.4024 393.494 82.6679 394.273C80.2608 395.354 79.6285 399.563 80.0259 401.637C80.0616 401.816 80.97 404.565 81.0112 404.54C81.0112 404.54 81.0491 404.518 81.058 404.512C80.9522 405.176 80.8487 405.889 80.7518 406.67C80.5871 408.114 80.4156 409.746 80.3677 411.532C80.3143 413.318 80.3143 415.259 80.5258 417.304C80.7362 419.354 81.0758 421.502 81.7561 423.674C81.7638 423.698 81.7761 423.723 81.7839 423.748C81.3575 423.166 80.1028 421.574 79.9914 421.461C78.4083 419.872 74.2745 417.608 71.7806 418.528C69.9837 419.192 69.4571 421.06 70.3589 422.486C71.2807 423.943 73.4862 424.663 75.2742 424.889Z" fill="#ECEE80"/>
<path d="M121.738 413.829C121.78 413.852 122.603 411.083 122.632 410.903C122.965 408.822 122.202 404.628 119.762 403.605C118.005 402.867 116.04 403.754 115.4 405.283C114.745 406.844 115.574 408.761 116.556 410.079C117.71 411.626 121.734 413.828 121.738 413.829Z" fill="#ECEE80"/>
<path d="M357.975 383.804C361.547 385.16 370.284 384.989 370.291 384.989C370.382 384.987 368.414 380.019 368.248 379.718C366.329 376.233 360.268 370.481 355.335 371.059C351.782 371.476 349.805 374.567 350.607 377.474C351.426 380.443 354.932 382.649 357.975 383.804Z" fill="#620E28"/>
<path d="M443.902 464.175C445.322 461.451 444.051 458.092 440.651 457.101C435.933 455.723 428.73 460.38 426.091 463.487C425.971 463.628 425.097 464.932 424.3 466.151H442.258C442.94 465.572 443.514 464.919 443.902 464.175Z" fill="#620E28"/>
<path d="M417.143 444.006C419.54 445.867 425.584 447.672 427.655 448.255C427.291 449.746 426.93 451.241 426.501 452.671C426.183 453.641 425.954 454.596 425.572 455.556C425.215 456.513 424.864 457.461 424.515 458.399C423.767 460.185 423.008 462.031 422.228 463.758C421.864 464.583 421.499 465.363 421.134 466.151H424.068C424.294 465.63 424.52 465.116 424.745 464.571C425.497 462.788 426.189 460.989 426.94 459.055C427.266 458.112 427.595 457.156 427.925 456.192C428.278 455.243 428.512 454.202 428.813 453.197C429.454 450.856 429.974 448.457 430.435 446.03C432.234 446.598 438.656 448.54 441.982 448.337C445.294 448.134 449.449 447.077 451.367 444.519C453.244 442.013 452.575 438.527 449.387 437.098C444.963 435.116 437.031 438.77 433.881 441.495C433.685 441.664 431.676 443.84 430.6 445.054C430.865 443.593 431.136 442.136 431.349 440.65C431.961 436.362 432.428 432.004 432.915 427.659C433.063 426.328 433.23 425.004 433.391 423.677C434.028 423.885 441.605 426.337 445.331 426.109C448.642 425.908 452.797 424.85 454.714 422.291C456.591 419.786 455.922 416.3 452.734 414.872C448.31 412.889 440.379 416.543 437.228 419.267C436.991 419.473 434.108 422.607 433.419 423.436C433.775 420.513 434.16 417.606 434.674 414.751C435.377 410.813 436.317 406.981 437.542 403.33C437.84 403.427 445.734 406.016 449.55 405.783C452.862 405.581 457.017 404.524 458.934 401.965C460.812 399.46 460.142 395.973 456.954 394.544C452.53 392.562 444.6 396.217 441.449 398.941C441.201 399.155 438.1 402.529 437.589 403.175C437.663 402.958 437.712 402.726 437.787 402.51C439.154 398.626 441.038 395.011 442.995 391.702C444.127 389.777 445.333 387.993 446.551 386.279C447.966 386.893 454.459 389.633 457.922 389.753C461.239 389.868 465.501 389.213 467.73 386.854C469.914 384.542 469.689 381.013 466.701 379.29C462.554 376.896 454.209 379.773 450.733 382.18C450.545 382.311 448.793 383.826 447.533 384.946C448.098 384.18 448.662 383.38 449.219 382.656C451.302 379.931 453.402 377.547 455.281 375.45C456.361 374.264 457.365 373.211 458.315 372.234C460.064 372.207 467.107 372.02 470.186 370.764C473.191 369.539 476.628 367.252 477.355 364.265C478.065 361.34 475.995 358.297 472.429 357.964C467.48 357.5 461.598 363.393 459.79 366.922C459.634 367.227 457.821 372.239 457.912 372.239C457.912 372.239 457.996 372.238 458.019 372.238C457.08 373.161 456.089 374.161 455.031 375.273C453.094 377.339 450.929 379.69 448.77 382.386C446.605 385.075 444.34 388.051 442.28 391.371C440.21 394.696 438.227 398.287 436.735 402.215C436.717 402.26 436.707 402.308 436.69 402.353C436.715 401.085 436.652 397.541 436.61 397.269C436.039 393.44 432.344 386.331 427.45 385.544C423.923 384.978 420.936 387.378 420.655 390.358C420.368 393.401 422.908 396.446 425.384 398.369C428.176 400.535 435.927 402.635 436.545 402.8C435.163 406.553 434.097 410.501 433.27 414.55C432.795 416.863 432.399 419.206 432.037 421.561C432.018 420.464 431.992 419.484 431.971 419.348C431.399 415.517 427.705 408.409 422.811 407.623C419.283 407.056 416.298 409.457 416.016 412.436C415.729 415.479 418.268 418.525 420.744 420.447C423.257 422.397 429.824 424.301 431.569 424.785C431.441 425.689 431.301 426.591 431.177 427.495C430.581 431.836 430.006 436.171 429.293 440.405C429.043 441.898 428.734 443.361 428.43 444.824C428.412 443.851 428.387 443.031 428.37 442.907C427.798 439.076 424.103 431.967 419.208 431.182C415.682 430.615 412.695 433.016 412.414 435.995C412.127 439.038 414.667 442.084 417.143 444.006Z" fill="#620E28"/>
<path d="M360.989 405.793C364.694 406.263 372.492 404.298 373.112 404.139C374.343 407.932 375.96 411.737 377.841 415.509C378.912 417.666 380.071 419.811 381.263 421.948C380.552 421.042 379.908 420.238 379.804 420.134C376.895 417.213 369.3 413.055 364.719 414.745C361.417 415.963 360.451 419.397 362.108 422.016C363.8 424.692 367.853 426.015 371.138 426.431C374.471 426.853 381.158 425.295 382.921 424.861C383.389 425.678 383.844 426.496 384.315 427.311C386.573 431.217 388.847 435.106 390.941 438.981C391.68 440.346 392.349 441.714 393.025 443.081C392.393 442.277 391.853 441.605 391.758 441.51C388.849 438.589 381.254 434.431 376.671 436.122C373.371 437.339 372.404 440.773 374.062 443.393C375.754 446.069 379.806 447.391 383.092 447.807C386.273 448.211 392.459 446.82 394.557 446.314C395.2 447.731 395.85 449.15 396.399 450.549C396.75 451.512 397.164 452.418 397.455 453.401C397.767 454.37 398.074 455.329 398.38 456.279C398.889 458.127 399.429 460.031 399.874 461.844C400.196 463.104 400.474 464.309 400.759 465.522C400.042 464.156 398.574 461.507 398.421 461.298C396.057 458.028 389.274 452.919 384.449 453.987C380.974 454.756 379.42 458.021 380.602 460.83C381.712 463.468 384.993 465.228 387.985 466.151H403.768C403.691 465.851 403.621 465.56 403.542 465.257C404.124 465.056 407.424 463.896 410.348 462.476C411.679 463.728 414.086 465.083 416.211 466.151H420.82C421.073 464.649 421.358 462.8 421.363 462.606C421.432 460.039 420.383 455.869 418.295 452.937C418.308 452.558 418.283 452.18 418.214 451.805C417.669 448.854 414.477 446.661 411.011 447.464C406.2 448.575 403.15 455.913 402.921 459.769C402.908 459.997 403.079 462.479 403.218 464.045C402.976 463.135 402.753 462.251 402.489 461.317C401.985 459.469 401.42 457.636 400.818 455.664C400.491 454.72 400.158 453.767 399.823 452.804C399.515 451.843 399.047 450.862 398.662 449.88C397.71 447.621 396.619 445.37 395.463 443.125C397.325 442.737 403.913 441.278 406.56 439.514C409.194 437.758 411.987 434.885 411.962 431.832C411.937 428.842 409.165 426.255 405.599 426.592C400.65 427.058 396.356 433.908 395.458 437.691C395.402 437.927 395.108 440.703 394.982 442.232C394.274 440.886 393.576 439.541 392.81 438.2C390.598 434.33 388.221 430.472 385.868 426.614C385.147 425.432 384.445 424.248 383.736 423.065C384.401 422.933 392.277 421.345 395.239 419.37C397.874 417.614 400.667 414.741 400.641 411.688C400.617 408.698 397.845 406.112 394.28 406.447C389.331 406.914 385.037 413.764 384.138 417.546C384.07 417.832 383.655 421.828 383.606 422.848C382.049 420.242 380.522 417.632 379.14 415.004C377.225 411.383 375.576 407.738 374.281 404.103C374.589 404.042 382.818 402.417 385.853 400.394C388.487 398.638 391.28 395.765 391.256 392.712C391.231 389.722 388.458 387.135 384.893 387.472C379.944 387.939 375.65 394.788 374.752 398.57C374.682 398.867 374.238 403.167 374.221 403.952C374.144 403.736 374.037 403.519 373.964 403.302C372.638 399.407 371.915 395.489 371.445 391.791C371.168 389.644 371.041 387.578 370.969 385.565C372.537 385.398 379.694 384.57 382.658 383.012C385.497 381.517 388.637 378.929 388.998 375.892C389.351 372.919 386.923 370.081 383.337 370.076C378.359 370.068 373.224 376.467 371.854 380.14C371.778 380.34 371.279 382.444 370.941 383.98C370.925 383.072 370.889 382.134 370.893 381.263C370.9 377.992 371.138 374.997 371.373 372.347C371.521 370.841 371.69 369.482 371.862 368.211C373.303 367.35 379.06 363.819 380.832 361.295C382.56 358.832 383.972 355.277 382.682 352.437C381.418 349.657 377.759 348.112 374.574 349.543C370.152 351.529 368.988 359.263 369.72 363.073C369.784 363.402 371.453 368.452 371.529 368.408C371.529 368.408 371.599 368.366 371.616 368.356C371.422 369.576 371.23 370.885 371.052 372.32C370.751 374.971 370.437 377.97 370.348 381.253C370.248 384.534 370.248 388.101 370.638 391.858C371.023 395.625 371.649 399.57 372.898 403.561C372.913 403.606 372.935 403.652 372.948 403.696C372.167 402.628 369.861 399.703 369.655 399.495C366.747 396.575 359.152 392.417 354.569 394.107C351.268 395.325 350.301 398.758 351.959 401.379C353.652 404.055 357.705 405.377 360.989 405.793Z" fill="#620E28"/>
<path d="M446.345 385.474C446.423 385.515 447.934 380.429 447.988 380.098C448.601 376.272 447.197 368.569 442.716 366.687C439.486 365.332 435.876 366.962 434.7 369.771C433.498 372.64 435.021 376.16 436.825 378.582C438.944 381.425 446.34 385.471 446.345 385.474Z" fill="#620E28"/>
</g>
</svg>
