<svg width="385" height="385" viewBox="0 0 385 385" fill="none" xmlns="http://www.w3.org/2000/svg">
<path d="M181.732 11.1033C187.625 5.02699 197.375 5.02699 203.268 11.1033L229.975 38.6422C233.643 42.4241 239.026 44.0047 244.156 42.806L281.512 34.0778C289.754 32.152 297.957 37.4234 299.629 45.721L307.208 83.3271C308.249 88.4916 311.923 92.7315 316.886 94.4967L353.031 107.35C361.006 110.186 365.057 119.055 361.977 126.94L348.022 162.674C346.105 167.581 346.904 173.134 350.125 177.303L373.583 207.657C378.759 214.355 377.371 224.006 370.518 228.974L339.459 251.49C335.193 254.582 332.863 259.685 333.319 264.934L336.642 303.152C337.375 311.584 330.99 318.953 322.539 319.427L284.237 321.577C278.977 321.872 274.257 324.905 271.804 329.568L253.937 363.515C249.995 371.006 240.64 373.753 233.274 369.583L199.89 350.683C195.305 348.088 189.695 348.088 185.11 350.683L151.726 369.583C144.36 373.753 135.005 371.006 131.063 363.515L113.196 329.568C110.743 324.905 106.023 321.872 100.763 321.577L62.4611 319.427C54.0099 318.953 47.6248 311.584 48.358 303.152L51.6811 264.934C52.1375 259.685 49.8069 254.582 45.5415 251.49L14.4821 228.974C7.62899 224.006 6.24138 214.355 11.4172 207.657L34.875 177.303C38.0964 173.134 38.8949 167.581 36.9783 162.674L23.0226 126.94C19.9433 119.055 23.9938 110.186 31.969 107.35L68.1137 94.4967C73.0775 92.7315 76.7514 88.4916 77.7922 83.3271L85.371 45.721C87.0432 37.4234 95.2457 32.152 103.488 34.0778L140.844 42.806C145.974 44.0047 151.357 42.4241 155.025 38.6422L181.732 11.1033Z" fill="#620E28"/>
<path d="M158.348 158.944H167.336V166H149.024V136.264H158.348V158.944ZM179.594 136.264V166H170.27V136.264H179.594ZM213.751 136.264L203.755 166H191.701L181.705 136.264H191.617L197.749 156.718L203.839 136.264H213.751ZM225.162 143.698V147.352H234.402V154.366H225.162V158.566H235.662V166H215.838V136.264H235.662V143.698H225.162ZM100.272 224.506H90.3605L88.8905 229H79.1045L89.9825 199.264H100.734L111.57 229H101.742L100.272 224.506ZM98.0045 217.492L95.3165 209.218L92.6285 217.492H98.0045ZM122.803 199.264V216.022C122.803 217.394 123.097 218.486 123.685 219.298C124.301 220.082 125.281 220.474 126.625 220.474C127.969 220.474 128.963 220.082 129.607 219.298C130.251 218.486 130.573 217.394 130.573 216.022V199.264H139.855V216.022C139.855 218.85 139.267 221.272 138.091 223.288C136.915 225.276 135.305 226.774 133.261 227.782C131.217 228.79 128.935 229.294 126.415 229.294C123.895 229.294 121.655 228.79 119.695 227.782C117.763 226.774 116.251 225.276 115.159 223.288C114.067 221.3 113.521 218.878 113.521 216.022V199.264H122.803ZM143.036 214.09C143.036 211.15 143.624 208.532 144.8 206.236C146.004 203.94 147.712 202.162 149.924 200.902C152.136 199.614 154.74 198.97 157.736 198.97C160.312 198.97 162.608 199.46 164.624 200.44C166.668 201.392 168.32 202.75 169.58 204.514C170.868 206.278 171.722 208.336 172.142 210.688H162.314C161.866 209.708 161.222 208.952 160.382 208.42C159.57 207.86 158.632 207.58 157.568 207.58C156 207.58 154.754 208.168 153.83 209.344C152.934 210.52 152.486 212.102 152.486 214.09C152.486 216.078 152.934 217.66 153.83 218.836C154.754 220.012 156 220.6 157.568 220.6C158.632 220.6 159.57 220.334 160.382 219.802C161.222 219.242 161.866 218.472 162.314 217.492H172.142C171.722 219.844 170.868 221.902 169.58 223.666C168.32 225.43 166.668 226.802 164.624 227.782C162.608 228.734 160.312 229.21 157.736 229.21C154.74 229.21 152.136 228.58 149.924 227.32C147.712 226.032 146.004 224.24 144.8 221.944C143.624 219.648 143.036 217.03 143.036 214.09ZM198.851 199.264V206.656H190.955V229H181.631V206.656H173.819V199.264H198.851ZM210.704 199.264V229H201.38V199.264H210.704ZM229.405 229.294C226.605 229.294 224.029 228.636 221.677 227.32C219.353 226.004 217.505 224.184 216.133 221.86C214.761 219.536 214.075 216.918 214.075 214.006C214.075 211.094 214.761 208.476 216.133 206.152C217.505 203.828 219.353 202.022 221.677 200.734C224.029 199.418 226.605 198.76 229.405 198.76C232.205 198.76 234.767 199.418 237.091 200.734C239.415 202.022 241.249 203.828 242.593 206.152C243.965 208.476 244.651 211.094 244.651 214.006C244.651 216.918 243.965 219.536 242.593 221.86C241.249 224.184 239.401 226.004 237.049 227.32C234.725 228.636 232.177 229.294 229.405 229.294ZM229.405 220.6C231.253 220.6 232.681 220.012 233.689 218.836C234.697 217.632 235.201 216.022 235.201 214.006C235.201 211.962 234.697 210.352 233.689 209.176C232.681 207.972 231.253 207.37 229.405 207.37C227.529 207.37 226.087 207.972 225.079 209.176C224.071 210.352 223.567 211.962 223.567 214.006C223.567 216.022 224.071 217.632 225.079 218.836C226.087 220.012 227.529 220.6 229.405 220.6ZM276.533 229H267.209L257.339 214.048V229H248.015V199.264H257.339L267.209 214.468V199.264H276.533V229ZM292.38 229.294C288.824 229.294 285.884 228.468 283.56 226.816C281.264 225.136 280.018 222.686 279.822 219.466H289.734C289.874 221.174 290.63 222.028 292.002 222.028C292.506 222.028 292.926 221.916 293.262 221.692C293.626 221.44 293.808 221.062 293.808 220.558C293.808 219.858 293.43 219.298 292.674 218.878C291.918 218.43 290.742 217.926 289.146 217.366C287.242 216.694 285.66 216.036 284.4 215.392C283.168 214.748 282.104 213.81 281.208 212.578C280.312 211.346 279.878 209.764 279.906 207.832C279.906 205.9 280.396 204.262 281.376 202.918C282.384 201.546 283.742 200.51 285.45 199.81C287.186 199.11 289.132 198.76 291.288 198.76C294.928 198.76 297.812 199.6 299.94 201.28C302.096 202.96 303.23 205.326 303.342 208.378H293.304C293.276 207.538 293.066 206.936 292.674 206.572C292.282 206.208 291.806 206.026 291.246 206.026C290.854 206.026 290.532 206.166 290.28 206.446C290.028 206.698 289.902 207.062 289.902 207.538C289.902 208.21 290.266 208.77 290.994 209.218C291.75 209.638 292.94 210.156 294.564 210.772C296.44 211.472 297.98 212.144 299.184 212.788C300.416 213.432 301.48 214.328 302.376 215.476C303.272 216.624 303.72 218.066 303.72 219.802C303.72 221.622 303.272 223.26 302.376 224.716C301.48 226.144 300.178 227.264 298.47 228.076C296.762 228.888 294.732 229.294 292.38 229.294Z" fill="#EA6C56"/>
</svg>
