<svg width="667" height="667" viewBox="0 0 667 667" fill="none" xmlns="http://www.w3.org/2000/svg">
<g clip-path="url(#clip0_34_217)">
<mask id="mask0_34_217" style="mask-type:luminance" maskUnits="userSpaceOnUse" x="0" y="2" width="667" height="667">
<path d="M0 2H666.667V668.667H0V2Z" fill="white"/>
</mask>
<g mask="url(#mask0_34_217)">
<path d="M89.2982 528.167C89.2982 528.167 87.0102 513.5 82.5102 511.667C78.0102 509.833 83.3435 523 83.3435 523C83.3435 523 76.0102 516 71.6768 517.333C67.3435 518.667 82.6768 528.167 82.6768 528.167H89.2982Z" fill="#E7E7E7" fill-opacity="0.2"/>
<path d="M246.981 548.952C246.981 548.952 242.043 528.719 228.765 524.767C215.487 520.815 205.273 529.343 205.273 529.343C205.273 529.343 202.049 521.231 194.467 520.399C186.887 519.567 180.35 525.183 180.35 525.183C180.35 525.183 174.222 500.639 153.385 498.975C132.547 497.311 124.785 520.399 124.785 520.399C124.785 520.399 120.709 515.104 110.694 517.231C100.679 519.359 97.2579 529.551 97.2579 529.551C97.2579 529.551 84.3365 522.091 72.2845 528.108C60.2312 534.127 57.5752 548.952 57.5752 548.952H246.981Z" fill="#F0F0F0" fill-opacity="0.6"/>
<path d="M351.949 101.196C347.822 101.196 344.466 104.554 344.466 108.679V459.71C344.466 463.836 347.822 467.192 351.949 467.192H592.943C597.07 467.192 600.426 463.836 600.426 459.71V108.679C600.426 104.554 597.07 101.196 592.943 101.196H351.949ZM592.943 467.526H351.949C347.639 467.526 344.133 464.02 344.133 459.71V108.679C344.133 104.368 347.639 100.863 351.949 100.863H592.943C597.254 100.863 600.759 104.368 600.759 108.679V459.71C600.759 464.02 597.254 467.526 592.943 467.526Z" fill="#F0F0F0" fill-opacity="0.6"/>
<path d="M74.0445 101.196C69.9192 101.196 66.5618 104.554 66.5618 108.679V459.71C66.5618 463.836 69.9192 467.192 74.0445 467.192H315.041C319.166 467.192 322.523 463.836 322.523 459.71V108.679C322.523 104.554 319.166 101.196 315.041 101.196H74.0445ZM315.041 467.526H74.0445C69.7352 467.526 66.2285 464.02 66.2285 459.71V108.679C66.2285 104.368 69.7352 100.863 74.0445 100.863H315.041C319.35 100.863 322.857 104.368 322.857 108.679V459.71C322.857 464.02 319.35 467.526 315.041 467.526Z" fill="#F0F0F0" fill-opacity="0.6"/>
<path d="M666.667 549.285H0V548.952H666.667V549.285Z" fill="#F0F0F0" fill-opacity="0.6"/>
<path d="M505.538 187.518C503.001 181.6 496.599 170.54 483.377 167.522C471.277 164.762 462.137 180.052 454.635 181.177C447.133 182.304 447.966 178.925 432.962 173.292C420.131 168.476 411.527 181.002 408.487 187.518H505.538Z" fill="#F5F5F5" fill-opacity="0.1"/>
<path d="M211.875 163.169C211.875 163.169 211.875 149.7 198.646 149.136C192.324 148.866 184.6 154.045 179.722 145.857C174.058 136.349 164.146 130.685 155.227 134.364C145.371 138.429 139.783 154.009 130.162 152.734C120.542 151.458 102.17 145.054 92.6816 163.169H211.875Z" fill="#F5F5F5" fill-opacity="0.1"/>
<path d="M580.819 150.56C579.516 168.014 564.312 181.108 546.855 179.804C544.47 179.627 542.167 179.19 539.97 178.52C537.207 177.682 534.615 176.479 532.242 174.971C530.124 173.627 528.182 172.038 526.451 170.25C525.923 169.704 525.412 169.139 524.926 168.555C522.779 165.996 521.035 163.099 519.782 159.966C519.536 159.354 519.308 158.734 519.103 158.106C517.838 154.267 517.291 150.12 517.611 145.84C517.639 145.45 517.676 145.059 517.723 144.67C519.599 127.804 534.514 115.322 551.575 116.596C555.774 116.91 559.719 118.027 563.272 119.787C563.959 120.127 564.631 120.491 565.287 120.878C568.155 122.567 570.723 124.692 572.908 127.154C573.39 127.696 573.854 128.254 574.296 128.828C575.875 130.871 577.207 133.106 578.252 135.49C579.33 137.946 580.103 140.56 580.528 143.279C580.838 145.266 580.962 147.307 580.882 149.386C580.871 149.778 580.848 150.17 580.819 150.56Z" fill="#F5F5F5" fill-opacity="0.1"/>
<path d="M574.366 151.246C574.386 150.606 574.38 149.966 574.349 149.334C574.214 146.47 573.596 143.706 572.568 141.139C571.518 138.503 570.028 136.076 568.193 133.96C567.721 133.411 567.224 132.883 566.709 132.38C564.32 130.051 561.469 128.182 558.292 126.932C557.512 126.63 556.712 126.359 555.904 126.13C554.304 125.682 552.644 125.384 550.93 125.256C537.386 124.246 525.504 134.127 523.892 147.475C523.91 147.09 523.929 146.703 523.956 146.314C524.994 132.388 537.176 121.9 551.101 122.939C565.033 123.982 575.516 136.16 574.476 150.086C574.449 150.475 574.409 150.864 574.366 151.246Z" fill="#E1E1E1"/>
<mask id="mask1_34_217" style="mask-type:luminance" maskUnits="userSpaceOnUse" x="523" y="125" width="52" height="49">
<path d="M523.881 125.185H574.377V173.532H523.881V125.185Z" fill="white"/>
</mask>
<g mask="url(#mask1_34_217)">
<g opacity="0.300003">
<path d="M547.329 173.46C547.023 173.44 546.729 173.412 546.431 173.376L546.426 173.374C546.119 173.34 545.822 173.304 545.522 173.26C545.446 173.251 545.373 173.235 545.298 173.226C544.973 173.176 544.653 173.116 544.339 173.059C544.29 173.048 544.242 173.039 544.198 173.031C543.158 172.826 542.145 172.551 541.159 172.218C540.826 172.103 540.493 171.99 540.166 171.859C539.509 171.61 538.87 171.336 538.245 171.035L538.229 171.027C538.027 170.93 537.823 170.824 537.625 170.723C537.517 170.67 537.41 170.612 537.298 170.552C537.138 170.467 536.981 170.379 536.827 170.291C536.582 170.16 536.343 170.018 536.106 169.87C535.798 169.688 535.495 169.495 535.198 169.292C534.903 169.096 534.606 168.894 534.319 168.682C534.082 168.507 533.85 168.335 533.618 168.148C533.465 168.035 533.318 167.911 533.17 167.786C533.047 167.694 532.93 167.59 532.809 167.491C532.673 167.372 532.535 167.252 532.405 167.135C532.189 166.944 531.975 166.748 531.763 166.546C531.581 166.37 531.397 166.195 531.225 166.011C531.183 165.971 531.142 165.931 531.101 165.891C530.851 165.63 530.602 165.37 530.358 165.098C530.13 164.847 529.913 164.588 529.693 164.322C529.679 164.308 529.67 164.298 529.657 164.284C529.525 164.127 529.395 163.964 529.271 163.804C529.142 163.642 529.021 163.476 528.901 163.31C528.782 163.152 528.663 162.995 528.547 162.832C528.426 162.652 528.302 162.479 528.186 162.303C528.073 162.134 527.962 161.96 527.846 161.784C527.735 161.61 527.63 161.439 527.522 161.259C527.301 160.898 527.09 160.528 526.887 160.143C526.802 159.987 526.721 159.835 526.643 159.676C526.443 159.299 526.262 158.91 526.089 158.519C525.999 158.328 525.915 158.14 525.841 157.95C525.583 157.343 525.358 156.726 525.149 156.103C525.095 155.936 525.043 155.764 524.99 155.598C524.877 155.22 524.769 154.847 524.671 154.466C524.666 154.448 524.662 154.427 524.657 154.411C524.559 154.03 524.47 153.644 524.394 153.259C524.359 153.082 524.318 152.902 524.286 152.719C524.269 152.63 524.259 152.538 524.242 152.45C524.206 152.258 524.177 152.07 524.15 151.875C524.143 151.846 524.138 151.816 524.138 151.79C524.102 151.571 524.074 151.35 524.053 151.132C524.022 150.89 523.997 150.65 523.979 150.407C523.954 150.167 523.937 149.924 523.926 149.684C523.911 149.49 523.903 149.298 523.898 149.1C523.891 148.976 523.889 148.855 523.887 148.734C523.882 148.564 523.879 148.388 523.882 148.215C523.882 147.967 523.886 147.722 523.89 147.476C525.502 134.127 537.385 124.246 550.93 125.256C552.643 125.384 554.303 125.682 555.902 126.13C556.71 126.359 557.511 126.63 558.29 126.932C561.467 128.182 564.319 130.051 566.709 132.38C567.223 132.883 567.719 133.411 568.193 133.96C570.027 136.076 571.518 138.503 572.566 141.139C573.595 143.706 574.214 146.47 574.347 149.335C574.379 149.966 574.386 150.606 574.366 151.246C572.753 164.594 560.87 174.476 547.329 173.46Z" fill="black"/>
</g>
</g>
<path d="M547.33 173.46C547.024 173.44 546.73 173.412 546.432 173.376L546.427 173.374C546.12 173.34 545.823 173.304 545.523 173.26C545.447 173.251 545.374 173.235 545.299 173.226C544.974 173.176 544.654 173.116 544.34 173.059C544.291 173.048 544.243 173.039 544.199 173.031C543.162 172.82 542.146 172.551 541.16 172.218C540.827 172.103 540.494 171.99 540.167 171.859C539.51 171.61 538.871 171.336 538.246 171.035L537.991 170.911C537.866 170.851 537.748 170.788 537.626 170.723C537.518 170.67 537.411 170.612 537.299 170.552C537.139 170.467 536.982 170.379 536.828 170.291C536.583 170.16 536.344 170.018 536.107 169.87C535.799 169.688 535.496 169.495 535.199 169.292C534.904 169.096 534.607 168.894 534.32 168.682C534.083 168.507 533.851 168.335 533.619 168.148C533.466 168.035 533.319 167.911 533.171 167.786C533.048 167.694 532.931 167.59 532.81 167.491C532.674 167.372 532.536 167.252 532.406 167.135C532.19 166.944 531.976 166.748 531.764 166.546C531.582 166.37 531.398 166.195 531.226 166.011C531.184 165.971 531.143 165.931 531.102 165.891C530.852 165.63 530.603 165.37 530.359 165.098C530.131 164.847 529.914 164.588 529.694 164.322C529.68 164.308 529.671 164.298 529.658 164.284C529.526 164.127 529.396 163.964 529.272 163.804C529.143 163.642 529.022 163.476 528.902 163.31C528.783 163.152 528.664 162.995 528.548 162.832C528.427 162.652 528.303 162.479 528.187 162.303C528.074 162.134 527.963 161.96 527.847 161.784C527.736 161.61 527.631 161.439 527.523 161.259C527.302 160.898 527.091 160.528 526.888 160.143C526.803 159.987 526.722 159.835 526.644 159.676C526.444 159.299 526.263 158.91 526.09 158.519C526 158.328 525.916 158.14 525.842 157.95C525.584 157.343 525.359 156.726 525.15 156.103C525.096 155.936 525.044 155.764 524.991 155.598C524.878 155.22 524.77 154.847 524.672 154.466C524.667 154.448 524.663 154.427 524.658 154.411C524.56 154.03 524.471 153.644 524.395 153.259C524.36 153.082 524.319 152.902 524.287 152.719C524.27 152.63 524.26 152.538 524.243 152.45C524.207 152.258 524.178 152.07 524.151 151.875C524.144 151.846 524.139 151.816 524.139 151.79C524.103 151.571 524.075 151.35 524.054 151.132C524.023 150.89 523.998 150.65 523.98 150.407C523.955 150.167 523.938 149.924 523.927 149.684C523.912 149.49 523.904 149.298 523.899 149.1C523.892 148.976 523.89 148.855 523.888 148.734C523.883 148.564 523.88 148.388 523.883 148.215C523.883 147.967 523.887 147.722 523.891 147.476C525.503 134.127 537.386 124.246 550.931 125.256C552.644 125.384 554.304 125.682 555.903 126.13C556.711 126.359 557.512 126.63 558.291 126.932C561.468 128.182 564.32 130.051 566.71 132.38C567.224 132.883 567.72 133.411 568.194 133.96C570.028 136.076 571.519 138.503 572.567 141.139C573.596 143.706 574.215 146.47 574.348 149.335C574.38 149.966 574.387 150.606 574.367 151.246C572.754 164.594 560.871 174.476 547.33 173.46Z" fill="#F0F0F0" fill-opacity="0.6"/>
<path d="M551.658 162.795L551.345 166.992L546.014 166.593L546.313 162.585C542.549 162.076 538.958 160.781 536.794 159.213L540.153 152.925C542.538 154.585 545.794 155.78 548.706 155.997C551.239 156.185 552.186 155.724 552.254 154.817C552.502 151.489 537.67 153.081 538.406 143.213C538.726 138.941 542.094 135.58 548.359 135.173L548.667 131.053L553.998 131.451L553.697 135.496C556.474 135.971 559.143 136.892 561.209 138.263L558.041 144.528C555.531 143.009 553.121 142.183 550.814 142.011C548.206 141.816 547.318 142.511 547.25 143.417C547.013 146.593 561.842 145.04 561.114 154.795C560.81 158.877 557.595 162.212 551.658 162.795Z" fill="#E1E1E1"/>
<path d="M551.607 161.387L551.294 165.584L545.963 165.186L546.262 161.178C542.498 160.668 538.907 159.374 536.743 157.806L540.102 151.518C542.487 153.178 545.743 154.371 548.655 154.59C551.188 154.779 552.135 154.316 552.203 153.41C552.451 150.082 537.619 151.674 538.355 141.806C538.675 137.534 542.043 134.172 548.308 133.766L548.616 129.646L553.947 130.043L553.646 134.088C556.423 134.563 559.092 135.484 561.158 136.855L557.99 143.12C555.48 141.602 553.07 140.775 550.764 140.603C548.155 140.408 547.267 141.102 547.199 142.01C546.962 145.186 561.791 143.632 561.063 153.387C560.758 157.47 557.544 160.804 551.607 161.387Z" fill="#F5F5F5" fill-opacity="0.1"/>
<path d="M208.574 229.854C215.47 245.94 208.022 264.572 191.933 271.47C189.736 272.412 187.49 273.087 185.233 273.507C182.396 274.038 179.54 274.166 176.738 273.923C174.24 273.707 171.784 273.194 169.424 272.406C168.702 272.166 167.989 271.899 167.288 271.607C164.202 270.326 161.318 268.56 158.761 266.359C158.261 265.93 157.773 265.484 157.3 265.022C154.406 262.2 152.009 258.774 150.317 254.828C150.164 254.468 150.016 254.104 149.877 253.738C143.761 237.91 151.233 219.954 166.958 213.212C170.828 211.554 174.845 210.726 178.809 210.647C179.576 210.632 180.34 210.644 181.1 210.686C184.424 210.86 187.682 211.56 190.757 212.736C191.434 212.995 192.102 213.276 192.761 213.582C195.104 214.666 197.317 216.034 199.344 217.666C201.433 219.35 203.326 221.311 204.957 223.528C206.149 225.147 207.201 226.9 208.088 228.782C208.258 229.135 208.42 229.494 208.574 229.854Z" fill="#F5F5F5" fill-opacity="0.1"/>
<path d="M203.165 233.439C202.887 232.862 202.586 232.298 202.267 231.751C200.826 229.271 199.002 227.105 196.906 225.302C194.759 223.447 192.317 221.983 189.713 220.951C189.039 220.682 188.357 220.443 187.667 220.235C184.473 219.27 181.081 218.927 177.685 219.285C176.854 219.377 176.019 219.505 175.197 219.675C173.57 220.014 171.961 220.517 170.382 221.193C157.899 226.546 151.915 240.795 156.643 253.382C156.482 253.031 156.319 252.679 156.163 252.322C150.661 239.487 156.63 224.562 169.465 219.059C182.305 213.557 197.225 219.525 202.727 232.359C202.883 232.717 203.027 233.081 203.165 233.439Z" fill="#E1E1E1"/>
<mask id="mask2_34_217" style="mask-type:luminance" maskUnits="userSpaceOnUse" x="155" y="219" width="50" height="49">
<path d="M155.029 219.147H204.779V267.672H155.029V219.147Z" fill="white"/>
</mask>
<g mask="url(#mask2_34_217)">
<g opacity="0.300003">
<path d="M189.426 265.622C189.146 265.745 188.871 265.857 188.591 265.962H188.584C188.298 266.074 188.018 266.178 187.731 266.278C187.659 266.305 187.587 266.325 187.515 266.351C187.204 266.457 186.894 266.551 186.588 266.645C186.54 266.658 186.492 266.673 186.451 266.686C185.432 266.982 184.407 267.207 183.379 267.366C183.031 267.418 182.682 267.471 182.332 267.506C181.635 267.589 180.942 267.639 180.248 267.661H180.23C180.007 267.669 179.776 267.669 179.554 267.67C179.432 267.674 179.312 267.671 179.184 267.669C179.004 267.669 178.823 267.662 178.647 267.655C178.37 267.651 178.091 267.637 177.812 267.614C177.455 267.595 177.098 267.563 176.74 267.521C176.39 267.483 176.031 267.439 175.679 267.383C175.388 267.338 175.103 267.293 174.811 267.235C174.623 267.205 174.435 267.162 174.246 267.119C174.094 267.094 173.942 267.057 173.79 267.025C173.614 266.982 173.438 266.939 173.267 266.897C172.987 266.826 172.707 266.75 172.426 266.669C172.183 266.597 171.939 266.526 171.7 266.443C171.646 266.426 171.591 266.41 171.536 266.394C171.194 266.277 170.852 266.161 170.511 266.033C170.192 265.915 169.88 265.786 169.563 265.651C169.544 265.645 169.532 265.639 169.514 265.634C169.324 265.555 169.134 265.47 168.951 265.386C168.76 265.301 168.576 265.21 168.392 265.119C168.215 265.034 168.038 264.949 167.859 264.858C167.668 264.754 167.479 264.658 167.295 264.554C167.116 264.458 166.938 264.354 166.754 264.251C166.575 264.147 166.403 264.045 166.224 263.935C165.862 263.717 165.504 263.486 165.146 263.238C164.999 263.139 164.856 263.041 164.714 262.937C164.363 262.694 164.023 262.433 163.688 262.165C163.522 262.037 163.36 261.909 163.206 261.775C162.696 261.355 162.212 260.911 161.739 260.455C161.615 260.333 161.49 260.203 161.366 260.079C161.091 259.798 160.823 259.517 160.56 259.223C160.547 259.211 160.535 259.194 160.523 259.182C160.26 258.887 160.003 258.587 159.758 258.281C159.646 258.139 159.526 257.998 159.412 257.851C159.356 257.779 159.306 257.703 159.248 257.633C159.13 257.479 159.016 257.326 158.903 257.166C158.884 257.142 158.864 257.118 158.852 257.095C158.72 256.918 158.594 256.734 158.472 256.551C158.334 256.35 158.202 256.149 158.074 255.941C157.94 255.739 157.814 255.533 157.692 255.325C157.591 255.158 157.495 254.993 157.399 254.821C157.335 254.714 157.278 254.606 157.22 254.499C157.138 254.351 157.054 254.197 156.976 254.042C156.862 253.822 156.752 253.602 156.643 253.382C151.915 240.795 157.898 226.546 170.38 221.193C171.96 220.517 173.57 220.014 175.196 219.674C176.018 219.505 176.854 219.377 177.684 219.285C181.079 218.926 184.472 219.27 187.667 220.234C188.355 220.443 189.039 220.682 189.711 220.951C192.316 221.982 194.759 223.447 196.906 225.302C199.002 227.105 200.826 229.271 202.267 231.751C202.586 232.298 202.887 232.862 203.164 233.439C207.892 246.026 201.908 260.275 189.426 265.622Z" fill="black"/>
</g>
</g>
<path d="M189.426 265.622C189.146 265.745 188.871 265.857 188.591 265.962H188.584C188.298 266.074 188.018 266.178 187.731 266.278C187.659 266.305 187.587 266.325 187.515 266.351C187.204 266.457 186.894 266.551 186.588 266.645C186.54 266.658 186.492 266.673 186.451 266.686C185.432 266.977 184.407 267.207 183.379 267.366C183.031 267.418 182.682 267.471 182.332 267.506C181.635 267.589 180.942 267.639 180.248 267.661L179.964 267.669C179.826 267.674 179.692 267.671 179.554 267.67C179.432 267.674 179.312 267.671 179.184 267.669C179.004 267.669 178.823 267.662 178.647 267.655C178.37 267.651 178.091 267.637 177.812 267.614C177.455 267.595 177.098 267.563 176.74 267.521C176.39 267.483 176.031 267.439 175.679 267.383C175.388 267.338 175.103 267.293 174.811 267.235C174.623 267.205 174.435 267.162 174.246 267.119C174.094 267.094 173.942 267.057 173.79 267.025C173.614 266.982 173.438 266.939 173.267 266.897C172.987 266.826 172.707 266.75 172.426 266.669C172.183 266.597 171.939 266.526 171.7 266.443C171.646 266.426 171.591 266.41 171.536 266.394C171.194 266.277 170.852 266.161 170.511 266.033C170.192 265.915 169.88 265.786 169.563 265.651C169.544 265.645 169.532 265.639 169.514 265.634C169.324 265.555 169.134 265.47 168.951 265.386C168.76 265.301 168.576 265.21 168.392 265.119C168.215 265.034 168.038 264.949 167.859 264.858C167.668 264.754 167.479 264.658 167.295 264.554C167.116 264.458 166.938 264.354 166.754 264.251C166.575 264.147 166.403 264.045 166.224 263.935C165.862 263.717 165.504 263.486 165.146 263.238C164.999 263.139 164.856 263.041 164.714 262.937C164.363 262.694 164.023 262.433 163.688 262.165C163.522 262.037 163.36 261.909 163.206 261.775C162.696 261.355 162.212 260.911 161.739 260.455C161.615 260.333 161.49 260.203 161.366 260.079C161.091 259.798 160.823 259.517 160.56 259.223C160.547 259.211 160.535 259.194 160.523 259.182C160.26 258.887 160.003 258.587 159.758 258.281C159.646 258.139 159.526 257.998 159.412 257.851C159.356 257.779 159.306 257.703 159.248 257.633C159.13 257.479 159.016 257.326 158.903 257.166C158.884 257.142 158.864 257.118 158.852 257.095C158.72 256.918 158.594 256.734 158.472 256.551C158.334 256.35 158.202 256.149 158.074 255.941C157.94 255.739 157.814 255.533 157.692 255.325C157.591 255.158 157.495 254.993 157.399 254.821C157.335 254.714 157.278 254.606 157.22 254.499C157.138 254.351 157.054 254.197 156.976 254.042C156.862 253.822 156.752 253.602 156.643 253.382C151.915 240.795 157.898 226.546 170.38 221.193C171.96 220.517 173.57 220.014 175.196 219.674C176.018 219.505 176.854 219.377 177.684 219.285C181.079 218.926 184.472 219.27 187.667 220.234C188.355 220.443 189.039 220.682 189.711 220.951C192.316 221.982 194.759 223.447 196.906 225.302C199.002 227.105 200.826 229.271 202.267 231.751C202.586 232.298 202.887 232.862 203.164 233.439C207.892 246.026 201.908 260.275 189.426 265.622Z" fill="#F0F0F0" fill-opacity="0.6"/>
<path d="M188.346 254.162L190.005 258.03L185.091 260.137L183.507 256.444C179.933 257.728 176.15 258.236 173.506 257.842L173.585 250.714C176.467 251.086 179.907 250.644 182.59 249.493C184.925 248.492 185.553 247.646 185.194 246.809C183.879 243.744 171.454 251.998 167.555 242.904C165.867 238.966 167.305 234.43 172.677 231.178L171.049 227.381L175.962 225.274L177.559 229.002C180.243 228.141 183.037 227.728 185.501 227.992L185.581 235.01C182.654 234.822 180.134 235.201 178.009 236.112C175.605 237.142 175.137 238.168 175.495 239.005C176.75 241.932 189.19 233.71 193.045 242.701C194.658 246.465 193.345 250.906 188.346 254.162Z" fill="#E1E1E1"/>
<path d="M187.652 252.937L189.31 256.805L184.397 258.911L182.813 255.217C179.238 256.502 175.456 257.01 172.812 256.618L172.89 249.489C175.773 249.862 179.213 249.418 181.896 248.267C184.23 247.267 184.858 246.421 184.5 245.583C183.185 242.518 170.76 250.773 166.861 241.678C165.173 237.739 166.61 233.205 171.982 229.953L170.354 226.155L175.268 224.049L176.865 227.777C179.549 226.915 182.342 226.502 184.806 226.766L184.886 233.785C181.96 233.597 179.44 233.975 177.314 234.886C174.91 235.917 174.442 236.942 174.801 237.779C176.056 240.706 188.496 232.485 192.35 241.475C193.964 245.239 192.649 249.681 187.652 252.937Z" fill="#F5F5F5" fill-opacity="0.1"/>
<path d="M439.017 470.142V296.883H431.805L419.432 275.451L408.372 256.296V220.93H405.744V256.296L394.684 275.451L382.311 296.883H375.099V470.142H439.017Z" fill="#F5F5F5" fill-opacity="0.1"/>
<path d="M149.853 470.142V296.883H142.641L130.268 275.451L119.208 256.296V220.93H116.579V256.296L105.52 275.451L93.1466 296.883H85.9346V470.142H149.853Z" fill="#F5F5F5" fill-opacity="0.1"/>
<path d="M356.268 281.885H294.08V470.141H356.268V281.885Z" fill="#F5F5F5" fill-opacity="0.1"/>
<path d="M600.449 261.175H527.085V470.141H600.449V261.175Z" fill="#F5F5F5" fill-opacity="0.1"/>
<path d="M66.5625 470.141H95.1052V252.825H66.5625V470.141Z" fill="#F5F5F5" fill-opacity="0.1"/>
<path d="M247.338 470.142V285.418L173.974 315.56V470.142H247.338Z" fill="#F5F5F5" fill-opacity="0.1"/>
<path d="M529.821 470.142V252.482H522.134V236.43L516.47 233.863V190.74H513.738V232.626L460.787 208.63V252.482H455.502V470.142H529.821Z" fill="#F5F5F5" fill-opacity="0.1"/>
<path d="M302.163 296.883H238.244V470.141H302.163V296.883Z" fill="#E7E7E7" fill-opacity="0.2"/>
<path d="M255.373 312.132H245.456V307.479H255.373V312.132Z" fill="#F5F5F5" fill-opacity="0.1"/>
<path d="M275.161 312.132H265.244V307.479H275.161V312.132Z" fill="#F5F5F5" fill-opacity="0.1"/>
<path d="M294.95 312.132H285.032V307.479H294.95V312.132Z" fill="#F5F5F5" fill-opacity="0.1"/>
<path d="M255.373 323.644H245.456V318.991H255.373V323.644Z" fill="#F5F5F5" fill-opacity="0.1"/>
<path d="M275.161 323.644H265.244V318.991H275.161V323.644Z" fill="#F5F5F5" fill-opacity="0.1"/>
<path d="M294.95 323.644H285.032V318.991H294.95V323.644Z" fill="#F5F5F5" fill-opacity="0.1"/>
<path d="M255.373 335.155H245.456V330.501H255.373V335.155Z" fill="#F5F5F5" fill-opacity="0.1"/>
<path d="M275.161 335.155H265.244V330.501H275.161V335.155Z" fill="#F5F5F5" fill-opacity="0.1"/>
<path d="M294.95 335.155H285.032V330.501H294.95V335.155Z" fill="#F5F5F5" fill-opacity="0.1"/>
<path d="M255.373 346.667H245.456V342.013H255.373V346.667Z" fill="#F5F5F5" fill-opacity="0.1"/>
<path d="M275.161 346.667H265.244V342.013H275.161V346.667Z" fill="#F5F5F5" fill-opacity="0.1"/>
<path d="M294.95 346.667H285.032V342.013H294.95V346.667Z" fill="#F5F5F5" fill-opacity="0.1"/>
<path d="M255.373 358.179H245.456V353.525H255.373V358.179Z" fill="#F5F5F5" fill-opacity="0.1"/>
<path d="M275.161 358.179H265.244V353.525H275.161V358.179Z" fill="#F5F5F5" fill-opacity="0.1"/>
<path d="M294.95 358.179H285.032V353.525H294.95V358.179Z" fill="#F5F5F5" fill-opacity="0.1"/>
<path d="M255.373 369.691H245.456V365.037H255.373V369.691Z" fill="#F5F5F5" fill-opacity="0.1"/>
<path d="M275.161 369.691H265.244V365.037H275.161V369.691Z" fill="#F5F5F5" fill-opacity="0.1"/>
<path d="M294.95 369.691H285.032V365.037H294.95V369.691Z" fill="#F5F5F5" fill-opacity="0.1"/>
<path d="M255.373 381.203H245.456V376.549H255.373V381.203Z" fill="#F5F5F5" fill-opacity="0.1"/>
<path d="M275.161 381.203H265.244V376.549H275.161V381.203Z" fill="#F5F5F5" fill-opacity="0.1"/>
<path d="M294.95 381.203H285.032V376.549H294.95V381.203Z" fill="#F5F5F5" fill-opacity="0.1"/>
<path d="M255.373 392.715H245.456V388.061H255.373V392.715Z" fill="#F5F5F5" fill-opacity="0.1"/>
<path d="M275.161 392.715H265.244V388.061H275.161V392.715Z" fill="#F5F5F5" fill-opacity="0.1"/>
<path d="M294.95 392.715H285.032V388.061H294.95V392.715Z" fill="#F5F5F5" fill-opacity="0.1"/>
<path d="M255.373 404.227H245.456V399.573H255.373V404.227Z" fill="#F5F5F5" fill-opacity="0.1"/>
<path d="M275.161 404.227H265.244V399.573H275.161V404.227Z" fill="#F5F5F5" fill-opacity="0.1"/>
<path d="M294.95 404.227H285.032V399.573H294.95V404.227Z" fill="#F5F5F5" fill-opacity="0.1"/>
<path d="M255.373 415.739H245.456V411.085H255.373V415.739Z" fill="#F5F5F5" fill-opacity="0.1"/>
<path d="M275.161 415.739H265.244V411.085H275.161V415.739Z" fill="#F5F5F5" fill-opacity="0.1"/>
<path d="M294.95 415.739H285.032V411.085H294.95V415.739Z" fill="#F5F5F5" fill-opacity="0.1"/>
<path d="M255.373 427.251H245.456V422.597H255.373V427.251Z" fill="#F5F5F5" fill-opacity="0.1"/>
<path d="M275.161 427.251H265.244V422.597H275.161V427.251Z" fill="#F5F5F5" fill-opacity="0.1"/>
<path d="M294.95 427.251H285.032V422.597H294.95V427.251Z" fill="#F5F5F5" fill-opacity="0.1"/>
<path d="M255.373 438.761H245.456V434.108H255.373V438.761Z" fill="#F5F5F5" fill-opacity="0.1"/>
<path d="M275.161 438.761H265.244V434.108H275.161V438.761Z" fill="#F5F5F5" fill-opacity="0.1"/>
<path d="M294.95 438.761H285.032V434.108H294.95V438.761Z" fill="#F5F5F5" fill-opacity="0.1"/>
<path d="M130.481 296.883H66.5625V470.141H130.481V296.883Z" fill="#E7E7E7" fill-opacity="0.2"/>
<path d="M83.6937 312.132H73.7764V307.479H83.6937V312.132Z" fill="#F5F5F5" fill-opacity="0.1"/>
<path d="M103.482 312.132H93.5645V307.479H103.482V312.132Z" fill="#F5F5F5" fill-opacity="0.1"/>
<path d="M123.269 312.132H113.352V307.479H123.269V312.132Z" fill="#F5F5F5" fill-opacity="0.1"/>
<path d="M83.6937 323.644H73.7764V318.991H83.6937V323.644Z" fill="#F5F5F5" fill-opacity="0.1"/>
<path d="M103.482 323.644H93.5645V318.991H103.482V323.644Z" fill="#F5F5F5" fill-opacity="0.1"/>
<path d="M123.269 323.644H113.352V318.991H123.269V323.644Z" fill="#F5F5F5" fill-opacity="0.1"/>
<path d="M83.6937 335.155H73.7764V330.501H83.6937V335.155Z" fill="#F5F5F5" fill-opacity="0.1"/>
<path d="M103.482 335.155H93.5645V330.501H103.482V335.155Z" fill="#F5F5F5" fill-opacity="0.1"/>
<path d="M123.269 335.155H113.352V330.501H123.269V335.155Z" fill="#F5F5F5" fill-opacity="0.1"/>
<path d="M83.6937 346.667H73.7764V342.013H83.6937V346.667Z" fill="#F5F5F5" fill-opacity="0.1"/>
<path d="M103.482 346.667H93.5645V342.013H103.482V346.667Z" fill="#F5F5F5" fill-opacity="0.1"/>
<path d="M123.269 346.667H113.352V342.013H123.269V346.667Z" fill="#F5F5F5" fill-opacity="0.1"/>
<path d="M83.6937 358.179H73.7764V353.525H83.6937V358.179Z" fill="#F5F5F5" fill-opacity="0.1"/>
<path d="M103.482 358.179H93.5645V353.525H103.482V358.179Z" fill="#F5F5F5" fill-opacity="0.1"/>
<path d="M123.269 358.179H113.352V353.525H123.269V358.179Z" fill="#F5F5F5" fill-opacity="0.1"/>
<path d="M83.6937 369.691H73.7764V365.037H83.6937V369.691Z" fill="#F5F5F5" fill-opacity="0.1"/>
<path d="M103.482 369.691H93.5645V365.037H103.482V369.691Z" fill="#F5F5F5" fill-opacity="0.1"/>
<path d="M123.269 369.691H113.352V365.037H123.269V369.691Z" fill="#F5F5F5" fill-opacity="0.1"/>
<path d="M83.6937 381.203H73.7764V376.549H83.6937V381.203Z" fill="#F5F5F5" fill-opacity="0.1"/>
<path d="M103.482 381.203H93.5645V376.549H103.482V381.203Z" fill="#F5F5F5" fill-opacity="0.1"/>
<path d="M123.269 381.203H113.352V376.549H123.269V381.203Z" fill="#F5F5F5" fill-opacity="0.1"/>
<path d="M83.6937 392.715H73.7764V388.061H83.6937V392.715Z" fill="#F5F5F5" fill-opacity="0.1"/>
<path d="M103.482 392.715H93.5645V388.061H103.482V392.715Z" fill="#F5F5F5" fill-opacity="0.1"/>
<path d="M123.269 392.715H113.352V388.061H123.269V392.715Z" fill="#F5F5F5" fill-opacity="0.1"/>
<path d="M83.6937 404.227H73.7764V399.573H83.6937V404.227Z" fill="#F5F5F5" fill-opacity="0.1"/>
<path d="M103.482 404.227H93.5645V399.573H103.482V404.227Z" fill="#F5F5F5" fill-opacity="0.1"/>
<path d="M123.269 404.227H113.352V399.573H123.269V404.227Z" fill="#F5F5F5" fill-opacity="0.1"/>
<path d="M83.6937 415.739H73.7764V411.085H83.6937V415.739Z" fill="#F5F5F5" fill-opacity="0.1"/>
<path d="M103.482 415.739H93.5645V411.085H103.482V415.739Z" fill="#F5F5F5" fill-opacity="0.1"/>
<path d="M123.269 415.739H113.352V411.085H123.269V415.739Z" fill="#F5F5F5" fill-opacity="0.1"/>
<path d="M83.6937 427.251H73.7764V422.597H83.6937V427.251Z" fill="#F5F5F5" fill-opacity="0.1"/>
<path d="M103.482 427.251H93.5645V422.597H103.482V427.251Z" fill="#F5F5F5" fill-opacity="0.1"/>
<path d="M123.269 427.251H113.352V422.597H123.269V427.251Z" fill="#F5F5F5" fill-opacity="0.1"/>
<path d="M83.6937 438.761H73.7764V434.108H83.6937V438.761Z" fill="#F5F5F5" fill-opacity="0.1"/>
<path d="M103.482 438.761H93.5645V434.108H103.482V438.761Z" fill="#F5F5F5" fill-opacity="0.1"/>
<path d="M123.269 438.761H113.352V434.108H123.269V438.761Z" fill="#F5F5F5" fill-opacity="0.1"/>
<path d="M270.203 296.883H245.456L257.829 275.451L270.203 254.02L282.576 275.451L294.949 296.883H270.203Z" fill="#E7E7E7" fill-opacity="0.2"/>
<path d="M271.518 269.788H268.89V220.929H271.518V269.788Z" fill="#E7E7E7" fill-opacity="0.2"/>
<path d="M372.833 250.244H370.205V201.385H372.833V250.244Z" fill="#E7E7E7" fill-opacity="0.2"/>
<path d="M385.682 260.807H314.158V470.141H385.682V260.807Z" fill="#E7E7E7" fill-opacity="0.2"/>
<path d="M335.092 278.559H325.174V273.905H335.092V278.559Z" fill="#F5F5F5" fill-opacity="0.1"/>
<path d="M354.88 278.559H344.961V273.905H354.88V278.559Z" fill="#F5F5F5" fill-opacity="0.1"/>
<path d="M374.668 278.559H364.749V273.905H374.668V278.559Z" fill="#F5F5F5" fill-opacity="0.1"/>
<path d="M335.092 290.071H325.174V285.417H335.092V290.071Z" fill="#F5F5F5" fill-opacity="0.1"/>
<path d="M354.88 290.071H344.961V285.417H354.88V290.071Z" fill="#F5F5F5" fill-opacity="0.1"/>
<path d="M374.668 290.071H364.749V285.417H374.668V290.071Z" fill="#F5F5F5" fill-opacity="0.1"/>
<path d="M335.092 301.583H325.174V296.929H335.092V301.583Z" fill="#F5F5F5" fill-opacity="0.1"/>
<path d="M354.88 301.583H344.961V296.929H354.88V301.583Z" fill="#F5F5F5" fill-opacity="0.1"/>
<path d="M374.668 301.583H364.749V296.929H374.668V301.583Z" fill="#F5F5F5" fill-opacity="0.1"/>
<path d="M335.092 313.093H325.174V308.44H335.092V313.093Z" fill="#F5F5F5" fill-opacity="0.1"/>
<path d="M354.88 313.093H344.961V308.44H354.88V313.093Z" fill="#F5F5F5" fill-opacity="0.1"/>
<path d="M374.668 313.093H364.749V308.44H374.668V313.093Z" fill="#F5F5F5" fill-opacity="0.1"/>
<path d="M335.092 324.605H325.174V319.952H335.092V324.605Z" fill="#F5F5F5" fill-opacity="0.1"/>
<path d="M354.88 324.605H344.961V319.952H354.88V324.605Z" fill="#F5F5F5" fill-opacity="0.1"/>
<path d="M374.668 324.605H364.749V319.952H374.668V324.605Z" fill="#F5F5F5" fill-opacity="0.1"/>
<path d="M335.092 336.117H325.174V331.464H335.092V336.117Z" fill="#F5F5F5" fill-opacity="0.1"/>
<path d="M354.88 336.117H344.961V331.464H354.88V336.117Z" fill="#F5F5F5" fill-opacity="0.1"/>
<path d="M374.668 336.117H364.749V331.464H374.668V336.117Z" fill="#F5F5F5" fill-opacity="0.1"/>
<path d="M335.092 347.629H325.174V342.976H335.092V347.629Z" fill="#F5F5F5" fill-opacity="0.1"/>
<path d="M354.88 347.629H344.961V342.976H354.88V347.629Z" fill="#F5F5F5" fill-opacity="0.1"/>
<path d="M374.668 347.629H364.749V342.976H374.668V347.629Z" fill="#F5F5F5" fill-opacity="0.1"/>
<path d="M335.092 359.141H325.174V354.488H335.092V359.141Z" fill="#F5F5F5" fill-opacity="0.1"/>
<path d="M354.88 359.141H344.961V354.488H354.88V359.141Z" fill="#F5F5F5" fill-opacity="0.1"/>
<path d="M374.668 359.141H364.749V354.488H374.668V359.141Z" fill="#F5F5F5" fill-opacity="0.1"/>
<path d="M335.092 370.653H325.174V366H335.092V370.653Z" fill="#F5F5F5" fill-opacity="0.1"/>
<path d="M354.88 370.653H344.961V366H354.88V370.653Z" fill="#F5F5F5" fill-opacity="0.1"/>
<path d="M374.668 370.653H364.749V366H374.668V370.653Z" fill="#F5F5F5" fill-opacity="0.1"/>
<path d="M335.092 382.165H325.174V377.512H335.092V382.165Z" fill="#F5F5F5" fill-opacity="0.1"/>
<path d="M354.88 382.165H344.961V377.512H354.88V382.165Z" fill="#F5F5F5" fill-opacity="0.1"/>
<path d="M374.668 382.165H364.749V377.512H374.668V382.165Z" fill="#F5F5F5" fill-opacity="0.1"/>
<path d="M335.092 393.677H325.174V389.024H335.092V393.677Z" fill="#F5F5F5" fill-opacity="0.1"/>
<path d="M354.88 393.677H344.961V389.024H354.88V393.677Z" fill="#F5F5F5" fill-opacity="0.1"/>
<path d="M374.668 393.677H364.749V389.024H374.668V393.677Z" fill="#F5F5F5" fill-opacity="0.1"/>
<path d="M335.092 405.189H325.174V400.536H335.092V405.189Z" fill="#F5F5F5" fill-opacity="0.1"/>
<path d="M354.88 405.189H344.961V400.536H354.88V405.189Z" fill="#F5F5F5" fill-opacity="0.1"/>
<path d="M374.668 405.189H364.749V400.536H374.668V405.189Z" fill="#F5F5F5" fill-opacity="0.1"/>
<path d="M335.092 415.503H325.174V410.849H335.092V415.503Z" fill="#F5F5F5" fill-opacity="0.1"/>
<path d="M354.88 415.503H344.961V410.849H354.88V415.503Z" fill="#F5F5F5" fill-opacity="0.1"/>
<path d="M374.668 415.503H364.749V410.849H374.668V415.503Z" fill="#F5F5F5" fill-opacity="0.1"/>
<path d="M335.092 427.015H325.174V422.361H335.092V427.015Z" fill="#F5F5F5" fill-opacity="0.1"/>
<path d="M354.88 427.015H344.961V422.361H354.88V427.015Z" fill="#F5F5F5" fill-opacity="0.1"/>
<path d="M374.668 427.015H364.749V422.361H374.668V427.015Z" fill="#F5F5F5" fill-opacity="0.1"/>
<path d="M378.285 281.886H319.244V218.603L378.285 245.358V281.886Z" fill="#E7E7E7" fill-opacity="0.2"/>
<path d="M473.46 307.479H404.942V470.141H473.46V307.479Z" fill="#E7E7E7" fill-opacity="0.2"/>
<path d="M435.832 323.976H409.98V301.915H435.832V323.976Z" fill="#E7E7E7" fill-opacity="0.2"/>
<path d="M419.236 320.096H412.306V300.288H419.236V320.096Z" fill="#E7E7E7" fill-opacity="0.2"/>
<path d="M433.661 320.096H426.73V300.288H433.661V320.096Z" fill="#E7E7E7" fill-opacity="0.2"/>
<path d="M469.08 317.383H453.689V301.992H469.08V317.383Z" fill="#E7E7E7" fill-opacity="0.2"/>
<path d="M424.918 325.971H415.001V321.317H424.918V325.971Z" fill="#F5F5F5" fill-opacity="0.1"/>
<path d="M444.707 325.971H434.788V321.317H444.707V325.971Z" fill="#F5F5F5" fill-opacity="0.1"/>
<path d="M464.496 325.971H454.579V321.317H464.496V325.971Z" fill="#F5F5F5" fill-opacity="0.1"/>
<path d="M424.918 337.481H415.001V332.828H424.918V337.481Z" fill="#F5F5F5" fill-opacity="0.1"/>
<path d="M444.707 337.481H434.788V332.828H444.707V337.481Z" fill="#F5F5F5" fill-opacity="0.1"/>
<path d="M464.496 337.481H454.579V332.828H464.496V337.481Z" fill="#F5F5F5" fill-opacity="0.1"/>
<path d="M424.918 348.993H415.001V344.34H424.918V348.993Z" fill="#F5F5F5" fill-opacity="0.1"/>
<path d="M444.707 348.993H434.788V344.34H444.707V348.993Z" fill="#F5F5F5" fill-opacity="0.1"/>
<path d="M464.496 348.993H454.579V344.34H464.496V348.993Z" fill="#F5F5F5" fill-opacity="0.1"/>
<path d="M424.918 360.505H415.001V355.852H424.918V360.505Z" fill="#F5F5F5" fill-opacity="0.1"/>
<path d="M444.707 360.505H434.788V355.852H444.707V360.505Z" fill="#F5F5F5" fill-opacity="0.1"/>
<path d="M464.496 360.505H454.579V355.852H464.496V360.505Z" fill="#F5F5F5" fill-opacity="0.1"/>
<path d="M424.918 372.017H415.001V367.364H424.918V372.017Z" fill="#F5F5F5" fill-opacity="0.1"/>
<path d="M444.707 372.017H434.788V367.364H444.707V372.017Z" fill="#F5F5F5" fill-opacity="0.1"/>
<path d="M464.496 372.017H454.579V367.364H464.496V372.017Z" fill="#F5F5F5" fill-opacity="0.1"/>
<path d="M424.918 383.529H415.001V378.876H424.918V383.529Z" fill="#F5F5F5" fill-opacity="0.1"/>
<path d="M444.707 383.529H434.788V378.876H444.707V383.529Z" fill="#F5F5F5" fill-opacity="0.1"/>
<path d="M464.496 383.529H454.579V378.876H464.496V383.529Z" fill="#F5F5F5" fill-opacity="0.1"/>
<path d="M424.918 395.041H415.001V390.388H424.918V395.041Z" fill="#F5F5F5" fill-opacity="0.1"/>
<path d="M444.707 395.041H434.788V390.388H444.707V395.041Z" fill="#F5F5F5" fill-opacity="0.1"/>
<path d="M464.496 395.041H454.579V390.388H464.496V395.041Z" fill="#F5F5F5" fill-opacity="0.1"/>
<path d="M424.918 406.553H415.001V401.9H424.918V406.553Z" fill="#F5F5F5" fill-opacity="0.1"/>
<path d="M444.707 406.553H434.788V401.9H444.707V406.553Z" fill="#F5F5F5" fill-opacity="0.1"/>
<path d="M464.496 406.553H454.579V401.9H464.496V406.553Z" fill="#F5F5F5" fill-opacity="0.1"/>
<path d="M424.918 418.065H415.001V413.412H424.918V418.065Z" fill="#F5F5F5" fill-opacity="0.1"/>
<path d="M444.707 418.065H434.788V413.412H444.707V418.065Z" fill="#F5F5F5" fill-opacity="0.1"/>
<path d="M464.496 418.065H454.579V413.412H464.496V418.065Z" fill="#F5F5F5" fill-opacity="0.1"/>
<path d="M424.918 429.576H415.001V424.923H424.918V429.576Z" fill="#F5F5F5" fill-opacity="0.1"/>
<path d="M444.707 429.576H434.788V424.923H444.707V429.576Z" fill="#F5F5F5" fill-opacity="0.1"/>
<path d="M464.496 429.576H454.579V424.923H464.496V429.576Z" fill="#F5F5F5" fill-opacity="0.1"/>
<path d="M424.918 441.088H415.001V436.435H424.918V441.088Z" fill="#F5F5F5" fill-opacity="0.1"/>
<path d="M444.707 441.088H434.788V436.435H444.707V441.088Z" fill="#F5F5F5" fill-opacity="0.1"/>
<path d="M464.496 441.088H454.579V436.435H464.496V441.088Z" fill="#F5F5F5" fill-opacity="0.1"/>
<path d="M424.918 452.6H415.001V447.947H424.918V452.6Z" fill="#F5F5F5" fill-opacity="0.1"/>
<path d="M444.707 452.6H434.788V447.947H444.707V452.6Z" fill="#F5F5F5" fill-opacity="0.1"/>
<path d="M464.496 452.6H454.579V447.947H464.496V452.6Z" fill="#F5F5F5" fill-opacity="0.1"/>
<path d="M208.2 307.479H139.683V470.141H208.2V307.479Z" fill="#E7E7E7" fill-opacity="0.2"/>
<path d="M170.571 323.976H144.719V301.915H170.571V323.976Z" fill="#E7E7E7" fill-opacity="0.2"/>
<path d="M153.976 320.096H147.045V300.288H153.976V320.096Z" fill="#E7E7E7" fill-opacity="0.2"/>
<path d="M168.4 320.096H161.47V300.288H168.4V320.096Z" fill="#E7E7E7" fill-opacity="0.2"/>
<path d="M203.818 317.383H188.428V301.992H203.818V317.383Z" fill="#E7E7E7" fill-opacity="0.2"/>
<path d="M159.659 325.971H149.741V321.317H159.659V325.971Z" fill="#F5F5F5" fill-opacity="0.1"/>
<path d="M179.447 325.971H169.529V321.317H179.447V325.971Z" fill="#F5F5F5" fill-opacity="0.1"/>
<path d="M199.235 325.971H189.316V321.317H199.235V325.971Z" fill="#F5F5F5" fill-opacity="0.1"/>
<path d="M159.659 337.481H149.741V332.828H159.659V337.481Z" fill="#F5F5F5" fill-opacity="0.1"/>
<path d="M179.447 337.481H169.529V332.828H179.447V337.481Z" fill="#F5F5F5" fill-opacity="0.1"/>
<path d="M199.235 337.481H189.316V332.828H199.235V337.481Z" fill="#F5F5F5" fill-opacity="0.1"/>
<path d="M159.659 348.993H149.741V344.34H159.659V348.993Z" fill="#F5F5F5" fill-opacity="0.1"/>
<path d="M179.447 348.993H169.529V344.34H179.447V348.993Z" fill="#F5F5F5" fill-opacity="0.1"/>
<path d="M199.235 348.993H189.316V344.34H199.235V348.993Z" fill="#F5F5F5" fill-opacity="0.1"/>
<path d="M159.659 360.505H149.741V355.852H159.659V360.505Z" fill="#F5F5F5" fill-opacity="0.1"/>
<path d="M179.447 360.505H169.529V355.852H179.447V360.505Z" fill="#F5F5F5" fill-opacity="0.1"/>
<path d="M199.235 360.505H189.316V355.852H199.235V360.505Z" fill="#F5F5F5" fill-opacity="0.1"/>
<path d="M159.659 372.017H149.741V367.364H159.659V372.017Z" fill="#F5F5F5" fill-opacity="0.1"/>
<path d="M179.447 372.017H169.529V367.364H179.447V372.017Z" fill="#F5F5F5" fill-opacity="0.1"/>
<path d="M199.235 372.017H189.316V367.364H199.235V372.017Z" fill="#F5F5F5" fill-opacity="0.1"/>
<path d="M159.659 383.529H149.741V378.876H159.659V383.529Z" fill="#F5F5F5" fill-opacity="0.1"/>
<path d="M179.447 383.529H169.529V378.876H179.447V383.529Z" fill="#F5F5F5" fill-opacity="0.1"/>
<path d="M199.235 383.529H189.316V378.876H199.235V383.529Z" fill="#F5F5F5" fill-opacity="0.1"/>
<path d="M159.659 395.041H149.741V390.388H159.659V395.041Z" fill="#F5F5F5" fill-opacity="0.1"/>
<path d="M179.447 395.041H169.529V390.388H179.447V395.041Z" fill="#F5F5F5" fill-opacity="0.1"/>
<path d="M199.235 395.041H189.316V390.388H199.235V395.041Z" fill="#F5F5F5" fill-opacity="0.1"/>
<path d="M159.659 406.553H149.741V401.9H159.659V406.553Z" fill="#F5F5F5" fill-opacity="0.1"/>
<path d="M179.447 406.553H169.529V401.9H179.447V406.553Z" fill="#F5F5F5" fill-opacity="0.1"/>
<path d="M199.235 406.553H189.316V401.9H199.235V406.553Z" fill="#F5F5F5" fill-opacity="0.1"/>
<path d="M159.659 418.065H149.741V413.412H159.659V418.065Z" fill="#F5F5F5" fill-opacity="0.1"/>
<path d="M179.447 418.065H169.529V413.412H179.447V418.065Z" fill="#F5F5F5" fill-opacity="0.1"/>
<path d="M199.235 418.065H189.316V413.412H199.235V418.065Z" fill="#F5F5F5" fill-opacity="0.1"/>
<path d="M159.659 429.576H149.741V424.923H159.659V429.576Z" fill="#F5F5F5" fill-opacity="0.1"/>
<path d="M179.447 429.576H169.529V424.923H179.447V429.576Z" fill="#F5F5F5" fill-opacity="0.1"/>
<path d="M199.235 429.576H189.316V424.923H199.235V429.576Z" fill="#F5F5F5" fill-opacity="0.1"/>
<path d="M159.659 441.088H149.741V436.435H159.659V441.088Z" fill="#F5F5F5" fill-opacity="0.1"/>
<path d="M179.447 441.088H169.529V436.435H179.447V441.088Z" fill="#F5F5F5" fill-opacity="0.1"/>
<path d="M199.235 441.088H189.316V436.435H199.235V441.088Z" fill="#F5F5F5" fill-opacity="0.1"/>
<path d="M159.659 452.6H149.741V447.947H159.659V452.6Z" fill="#F5F5F5" fill-opacity="0.1"/>
<path d="M179.447 452.6H169.529V447.947H179.447V452.6Z" fill="#F5F5F5" fill-opacity="0.1"/>
<path d="M199.235 452.6H189.316V447.947H199.235V452.6Z" fill="#F5F5F5" fill-opacity="0.1"/>
<path d="M600.449 286.208H493.813V470.143H600.449V286.208Z" fill="#E7E7E7" fill-opacity="0.2"/>
<path d="M514.596 306.376H504.678V301.723H514.596V306.376Z" fill="#F5F5F5" fill-opacity="0.1"/>
<path d="M534.384 306.376H524.467V301.723H534.384V306.376Z" fill="#F5F5F5" fill-opacity="0.1"/>
<path d="M554.173 306.376H544.256V301.723H554.173V306.376Z" fill="#F5F5F5" fill-opacity="0.1"/>
<path d="M514.596 317.888H504.678V313.235H514.596V317.888Z" fill="#F5F5F5" fill-opacity="0.1"/>
<path d="M534.384 317.888H524.467V313.235H534.384V317.888Z" fill="#F5F5F5" fill-opacity="0.1"/>
<path d="M554.173 317.888H544.256V313.235H554.173V317.888Z" fill="#F5F5F5" fill-opacity="0.1"/>
<path d="M514.596 329.399H504.678V324.745H514.596V329.399Z" fill="#F5F5F5" fill-opacity="0.1"/>
<path d="M534.384 329.399H524.467V324.745H534.384V329.399Z" fill="#F5F5F5" fill-opacity="0.1"/>
<path d="M554.173 329.399H544.256V324.745H554.173V329.399Z" fill="#F5F5F5" fill-opacity="0.1"/>
<path d="M514.596 340.911H504.678V336.257H514.596V340.911Z" fill="#F5F5F5" fill-opacity="0.1"/>
<path d="M534.384 340.911H524.467V336.257H534.384V340.911Z" fill="#F5F5F5" fill-opacity="0.1"/>
<path d="M554.173 340.911H544.256V336.257H554.173V340.911Z" fill="#F5F5F5" fill-opacity="0.1"/>
<path d="M514.596 352.423H504.678V347.769H514.596V352.423Z" fill="#F5F5F5" fill-opacity="0.1"/>
<path d="M534.384 352.423H524.467V347.769H534.384V352.423Z" fill="#F5F5F5" fill-opacity="0.1"/>
<path d="M554.173 352.423H544.256V347.769H554.173V352.423Z" fill="#F5F5F5" fill-opacity="0.1"/>
<path d="M514.596 363.935H504.678V359.281H514.596V363.935Z" fill="#F5F5F5" fill-opacity="0.1"/>
<path d="M534.384 363.935H524.467V359.281H534.384V363.935Z" fill="#F5F5F5" fill-opacity="0.1"/>
<path d="M554.173 363.935H544.256V359.281H554.173V363.935Z" fill="#F5F5F5" fill-opacity="0.1"/>
<path d="M514.596 375.447H504.678V370.793H514.596V375.447Z" fill="#F5F5F5" fill-opacity="0.1"/>
<path d="M534.384 375.447H524.467V370.793H534.384V375.447Z" fill="#F5F5F5" fill-opacity="0.1"/>
<path d="M554.173 375.447H544.256V370.793H554.173V375.447Z" fill="#F5F5F5" fill-opacity="0.1"/>
<path d="M514.596 386.959H504.678V382.305H514.596V386.959Z" fill="#F5F5F5" fill-opacity="0.1"/>
<path d="M534.384 386.959H524.467V382.305H534.384V386.959Z" fill="#F5F5F5" fill-opacity="0.1"/>
<path d="M554.173 386.959H544.256V382.305H554.173V386.959Z" fill="#F5F5F5" fill-opacity="0.1"/>
<path d="M514.596 398.471H504.678V393.817H514.596V398.471Z" fill="#F5F5F5" fill-opacity="0.1"/>
<path d="M534.384 398.471H524.467V393.817H534.384V398.471Z" fill="#F5F5F5" fill-opacity="0.1"/>
<path d="M554.173 398.471H544.256V393.817H554.173V398.471Z" fill="#F5F5F5" fill-opacity="0.1"/>
<path d="M514.596 409.983H504.678V405.329H514.596V409.983Z" fill="#F5F5F5" fill-opacity="0.1"/>
<path d="M534.384 409.983H524.467V405.329H534.384V409.983Z" fill="#F5F5F5" fill-opacity="0.1"/>
<path d="M554.173 409.983H544.256V405.329H554.173V409.983Z" fill="#F5F5F5" fill-opacity="0.1"/>
<path d="M514.596 421.495H504.678V416.841H514.596V421.495Z" fill="#F5F5F5" fill-opacity="0.1"/>
<path d="M534.384 421.495H524.467V416.841H534.384V421.495Z" fill="#F5F5F5" fill-opacity="0.1"/>
<path d="M554.173 421.495H544.256V416.841H554.173V421.495Z" fill="#F5F5F5" fill-opacity="0.1"/>
<path d="M514.596 433.005H504.678V428.352H514.596V433.005Z" fill="#F5F5F5" fill-opacity="0.1"/>
<path d="M534.384 433.005H524.467V428.352H534.384V433.005Z" fill="#F5F5F5" fill-opacity="0.1"/>
<path d="M554.173 433.005H544.256V428.352H554.173V433.005Z" fill="#F5F5F5" fill-opacity="0.1"/>
<path d="M573.05 306.376H563.131V301.723H573.05V306.376Z" fill="#F5F5F5" fill-opacity="0.1"/>
<path d="M592.838 306.376H582.919V301.723H592.838V306.376Z" fill="#F5F5F5" fill-opacity="0.1"/>
<path d="M573.05 317.888H563.131V313.235H573.05V317.888Z" fill="#F5F5F5" fill-opacity="0.1"/>
<path d="M592.838 317.888H582.919V313.235H592.838V317.888Z" fill="#F5F5F5" fill-opacity="0.1"/>
<path d="M573.05 329.399H563.131V324.745H573.05V329.399Z" fill="#F5F5F5" fill-opacity="0.1"/>
<path d="M592.838 329.399H582.919V324.745H592.838V329.399Z" fill="#F5F5F5" fill-opacity="0.1"/>
<path d="M573.05 340.911H563.131V336.257H573.05V340.911Z" fill="#F5F5F5" fill-opacity="0.1"/>
<path d="M592.838 340.911H582.919V336.257H592.838V340.911Z" fill="#F5F5F5" fill-opacity="0.1"/>
<path d="M573.05 352.423H563.131V347.769H573.05V352.423Z" fill="#F5F5F5" fill-opacity="0.1"/>
<path d="M592.838 352.423H582.919V347.769H592.838V352.423Z" fill="#F5F5F5" fill-opacity="0.1"/>
<path d="M573.05 363.935H563.131V359.281H573.05V363.935Z" fill="#F5F5F5" fill-opacity="0.1"/>
<path d="M592.838 363.935H582.919V359.281H592.838V363.935Z" fill="#F5F5F5" fill-opacity="0.1"/>
<path d="M573.05 375.447H563.131V370.793H573.05V375.447Z" fill="#F5F5F5" fill-opacity="0.1"/>
<path d="M592.838 375.447H582.919V370.793H592.838V375.447Z" fill="#F5F5F5" fill-opacity="0.1"/>
<path d="M573.05 386.959H563.131V382.305H573.05V386.959Z" fill="#F5F5F5" fill-opacity="0.1"/>
<path d="M592.838 386.959H582.919V382.305H592.838V386.959Z" fill="#F5F5F5" fill-opacity="0.1"/>
<path d="M573.05 398.471H563.131V393.817H573.05V398.471Z" fill="#F5F5F5" fill-opacity="0.1"/>
<path d="M592.838 398.471H582.919V393.817H592.838V398.471Z" fill="#F5F5F5" fill-opacity="0.1"/>
<path d="M573.05 409.983H563.131V405.329H573.05V409.983Z" fill="#F5F5F5" fill-opacity="0.1"/>
<path d="M592.838 409.983H582.919V405.329H592.838V409.983Z" fill="#F5F5F5" fill-opacity="0.1"/>
<path d="M573.05 421.495H563.131V416.841H573.05V421.495Z" fill="#F5F5F5" fill-opacity="0.1"/>
<path d="M592.838 421.495H582.919V416.841H592.838V421.495Z" fill="#F5F5F5" fill-opacity="0.1"/>
<path d="M573.05 433.005H563.131V428.352H573.05V433.005Z" fill="#F5F5F5" fill-opacity="0.1"/>
<path d="M592.838 433.005H582.919V428.352H592.838V433.005Z" fill="#F5F5F5" fill-opacity="0.1"/>
<path d="M587.879 528.167C587.879 528.167 590.167 513.5 594.667 511.667C599.167 509.833 593.834 523 593.834 523C593.834 523 601.167 516 605.5 517.333C609.834 518.667 594.5 528.167 594.5 528.167H587.879Z" fill="#E7E7E7" fill-opacity="0.2"/>
<path d="M430.196 548.952C430.196 548.952 435.134 528.719 448.412 524.767C461.69 520.815 471.904 529.343 471.904 529.343C471.904 529.343 475.128 521.231 482.71 520.399C490.29 519.567 496.827 525.183 496.827 525.183C496.827 525.183 502.955 500.639 523.792 498.975C544.63 497.311 552.392 520.399 552.392 520.399C552.392 520.399 556.468 515.104 566.483 517.231C576.498 519.359 579.919 529.551 579.919 529.551C579.919 529.551 592.84 522.091 604.894 528.108C616.946 534.127 619.602 548.952 619.602 548.952H430.196Z" fill="#F0F0F0" fill-opacity="0.6"/>
</g>
<mask id="mask3_34_217" style="mask-type:luminance" maskUnits="userSpaceOnUse" x="0" y="2" width="667" height="667">
<path d="M0 2H666.667V668.667H0V2Z" fill="white"/>
</mask>
<g mask="url(#mask3_34_217)">
<path d="M612.65 580.126C612.65 584.598 486.095 588.222 329.983 588.222C173.871 588.222 47.3164 584.598 47.3164 580.126C47.3164 575.654 173.871 572.03 329.983 572.03C486.095 572.03 612.65 575.654 612.65 580.126Z" fill="#F0F0F0"/>
</g>
<mask id="mask4_34_217" style="mask-type:luminance" maskUnits="userSpaceOnUse" x="0" y="2" width="667" height="667">
<path d="M0 2H666.667V668.667H0V2Z" fill="white"/>
</mask>
<g mask="url(#mask4_34_217)">
<path d="M125.475 566.012C127.976 567.469 134.348 572.1 138.98 575.534H154.74C152.423 571.49 149.635 566.99 146.464 562.62C146.463 562.617 146.463 562.614 146.461 562.612C137.928 550.858 126.773 540.181 115.499 542.76C108.293 544.408 105.947 554.641 125.475 566.012Z" fill="#EA6C56"/>
<mask id="mask5_34_217" style="mask-type:luminance" maskUnits="userSpaceOnUse" x="110" y="542" width="45" height="34">
<path d="M110.251 542.372H154.74V575.534H110.251V542.372Z" fill="white"/>
</mask>
<g mask="url(#mask5_34_217)">
<g opacity="0.199997">
<path d="M125.475 566.012C127.976 567.469 134.348 572.1 138.98 575.534H154.74C152.423 571.49 149.635 566.99 146.464 562.62C146.463 562.617 146.463 562.614 146.461 562.612C137.928 550.858 126.773 540.181 115.499 542.76C108.293 544.408 105.947 554.641 125.475 566.012Z" fill="black"/>
</g>
</g>
<path d="M138.649 562.611C138.651 562.614 138.65 562.617 138.653 562.619C140.863 567.022 142.822 571.383 144.547 575.534H161.051C159.081 550.707 152.399 514.03 130.23 509.078C119.789 506.743 110.347 518.657 128.786 545.679C132.491 551.109 135.775 556.887 138.649 562.611Z" fill="#EA6C56"/>
<path d="M564.349 566.012C561.848 567.469 555.476 572.1 550.844 575.534H535.084C537.401 571.49 540.189 566.99 543.36 562.62C543.361 562.617 543.361 562.614 543.363 562.612C551.896 550.858 563.051 540.181 574.325 542.76C581.531 544.408 583.877 554.641 564.349 566.012Z" fill="#EA6C56"/>
<path d="M551.176 562.611C551.175 562.614 551.175 562.617 551.172 562.619C548.961 567.022 547.003 571.383 545.277 575.534H528.773C530.744 550.707 537.425 514.03 559.595 509.078C570.036 506.743 579.477 518.657 561.039 545.679C557.335 551.109 554.049 556.887 551.176 562.611Z" fill="#EA6C56"/>
</g>
<mask id="mask6_34_217" style="mask-type:luminance" maskUnits="userSpaceOnUse" x="0" y="2" width="667" height="667">
<path d="M0 2H666.667V668.667H0V2Z" fill="white"/>
</mask>
<g mask="url(#mask6_34_217)">
<path d="M216.029 495.199C216.029 495.199 247.525 476.525 232.823 465.215C222.916 457.595 211.092 480.531 216.029 495.199Z" fill="#EA6C56"/>
<path d="M204.454 492.418C204.454 492.418 164.463 494.38 171.803 478.796C177.06 467.632 199.943 477.621 204.454 492.418Z" fill="#EA6C56"/>
<path d="M205.602 479.767C205.602 479.767 213.121 440.827 195.054 444.788C182.196 447.607 191.326 473.457 205.602 479.767Z" fill="#EA6C56"/>
<path d="M230.902 542.278C231.04 542.36 231.217 542.366 231.364 542.28C231.58 542.152 231.652 541.874 231.524 541.66C223.094 527.349 214.182 503.5 208.19 486.013C201.694 467.054 197.137 451.285 197.092 451.128C197.022 450.888 196.772 450.749 196.53 450.818C196.29 450.888 196.152 451.138 196.221 451.378C196.266 451.536 200.829 467.326 207.333 486.306C213.338 503.833 222.276 527.744 230.744 542.118C230.784 542.186 230.838 542.241 230.902 542.278Z" fill="#1A2E35"/>
<path d="M218.09 515.107C218.274 515.216 218.514 515.183 218.66 515.016C218.826 514.828 218.807 514.543 218.62 514.378C218.518 514.287 208.319 505.358 199.45 502.594C199.211 502.52 198.956 502.654 198.883 502.892C198.808 503.131 198.942 503.384 199.18 503.459C207.864 506.164 217.92 514.968 218.022 515.056C218.043 515.076 218.066 515.092 218.09 515.107Z" fill="#1A2E35"/>
<path d="M201.496 505.557C203.389 504.226 203.82 501.621 202.457 499.736C201.328 498.173 199.319 497.597 197.587 498.206C197.231 498.33 196.887 498.506 196.563 498.733C194.669 500.064 194.239 502.669 195.601 504.554C195.711 504.706 195.829 504.849 195.956 504.982C197.385 506.5 199.756 506.78 201.496 505.557Z" fill="#EA6C56"/>
<mask id="mask7_34_217" style="mask-type:luminance" maskUnits="userSpaceOnUse" x="194" y="497" width="10" height="10">
<path d="M194.807 497.968H203.255V506.323H194.807V497.968Z" fill="white"/>
</mask>
<g mask="url(#mask7_34_217)">
<g opacity="0.5">
<path d="M201.497 505.557C203.39 504.226 203.821 501.621 202.458 499.736C201.329 498.173 199.32 497.597 197.588 498.206C197.232 498.33 196.888 498.506 196.564 498.733C194.67 500.064 194.24 502.669 195.602 504.554C195.712 504.706 195.83 504.849 195.957 504.982C197.386 506.5 199.757 506.78 201.497 505.557Z" fill="white"/>
</g>
</g>
<path d="M221.874 524.122C221.955 524.17 222.054 524.194 222.155 524.182C222.403 524.154 222.583 523.93 222.555 523.682C221.778 516.78 231.618 503.198 231.718 503.061C231.866 502.86 231.821 502.576 231.619 502.429C231.418 502.281 231.134 502.325 230.986 502.528C230.571 503.096 220.838 516.534 221.654 523.784C221.671 523.93 221.755 524.053 221.874 524.122Z" fill="#1A2E35"/>
<path d="M233.115 505.724C230.819 506.113 228.623 504.586 228.21 502.312C227.866 500.426 228.856 498.618 230.515 497.834C230.855 497.673 231.224 497.556 231.616 497.489C233.911 497.1 236.107 498.626 236.522 500.901C236.555 501.085 236.576 501.268 236.584 501.45C236.683 503.513 235.224 505.365 233.115 505.724Z" fill="#EA6C56"/>
<mask id="mask8_34_217" style="mask-type:luminance" maskUnits="userSpaceOnUse" x="228" y="497" width="9" height="9">
<path d="M228.143 497.429H236.589V505.784H228.143V497.429Z" fill="white"/>
</mask>
<g mask="url(#mask8_34_217)">
<g opacity="0.5">
<path d="M233.116 505.724C230.82 506.113 228.624 504.586 228.211 502.312C227.867 500.426 228.857 498.618 230.516 497.834C230.856 497.673 231.225 497.556 231.617 497.489C233.912 497.1 236.108 498.626 236.523 500.901C236.556 501.085 236.577 501.268 236.585 501.45C236.684 503.513 235.225 505.365 233.116 505.724Z" fill="white"/>
</g>
</g>
<path d="M213.255 502.611C213.295 502.635 213.34 502.653 213.388 502.663C213.632 502.718 213.875 502.563 213.928 502.319C216.676 489.881 228.659 475.423 228.779 475.278C228.94 475.086 228.914 474.801 228.722 474.641C228.53 474.479 228.244 474.506 228.084 474.698C228.054 474.734 224.992 478.414 221.631 483.599C218.52 488.395 214.507 495.502 213.044 502.123C213 502.319 213.091 502.514 213.255 502.611Z" fill="#1A2E35"/>
<path d="M212.075 499.408C212.239 499.506 212.452 499.492 212.604 499.36C212.792 499.195 212.811 498.91 212.647 498.72C209.136 494.698 203.079 490.499 194.643 486.243C188.378 483.082 183.064 481.068 183.012 481.048C182.778 480.96 182.516 481.078 182.428 481.312C182.34 481.547 182.459 481.807 182.692 481.896C182.902 481.975 203.763 489.918 211.964 499.316C211.998 499.354 212.035 499.384 212.075 499.408Z" fill="#1A2E35"/>
<path d="M427.311 488.48C427.311 488.48 403.788 460.42 421.41 454.624C433.28 450.72 436.832 476.279 427.311 488.48Z" fill="#EA6C56"/>
<path d="M439.154 489.695C439.154 489.695 476.233 504.804 474.474 487.668C473.216 475.392 448.316 477.23 439.154 489.695Z" fill="#EA6C56"/>
<path d="M442.266 477.378C442.266 477.378 448.083 438.149 463.815 447.876C475.011 454.798 457.826 476.16 442.266 477.378Z" fill="#EA6C56"/>
<path d="M397.669 527.965C397.512 527.996 397.344 527.944 397.233 527.813C397.072 527.623 397.097 527.336 397.288 527.175C409.985 516.469 426.301 496.924 437.752 482.413C450.167 466.68 459.695 453.315 459.789 453.181C459.935 452.977 460.217 452.929 460.421 453.075C460.625 453.22 460.672 453.503 460.527 453.707C460.432 453.84 450.892 467.224 438.463 482.973C426.987 497.519 410.628 517.113 397.872 527.868C397.812 527.919 397.741 527.951 397.669 527.965Z" fill="#1A2E35"/>
<path d="M418.766 506.579C418.557 506.62 418.341 506.51 418.258 506.304C418.164 506.072 418.276 505.808 418.508 505.715C418.634 505.664 431.217 500.62 440.501 500.954C440.75 500.963 440.946 501.174 440.937 501.423C440.928 501.672 440.718 501.868 440.468 501.859C431.378 501.532 418.972 506.504 418.848 506.555C418.821 506.566 418.793 506.574 418.766 506.579Z" fill="#1A2E35"/>
<path d="M437.588 503.071C436.242 501.188 436.7 498.587 438.61 497.26C440.194 496.16 442.281 496.283 443.713 497.432C444.008 497.667 444.274 497.947 444.504 498.268C445.85 500.151 445.392 502.752 443.482 504.079C443.328 504.187 443.168 504.282 443.005 504.366C441.153 505.323 438.824 504.802 437.588 503.071Z" fill="#EA6C56"/>
<mask id="mask9_34_217" style="mask-type:luminance" maskUnits="userSpaceOnUse" x="436" y="496" width="10" height="9">
<path d="M436.815 496.499H445.275V504.84H436.815V496.499Z" fill="white"/>
</mask>
<g mask="url(#mask9_34_217)">
<g opacity="0.5">
<path d="M437.588 503.071C436.242 501.188 436.7 498.587 438.61 497.26C440.194 496.16 442.281 496.283 443.713 497.432C444.008 497.667 444.274 497.947 444.504 498.268C445.85 500.151 445.392 502.752 443.482 504.079C443.328 504.187 443.168 504.282 443.005 504.366C441.153 505.323 438.824 504.802 437.588 503.071Z" fill="white"/>
</g>
</g>
<path d="M412.207 513.83C412.114 513.848 412.014 513.838 411.922 513.794C411.696 513.684 411.602 513.414 411.711 513.188C414.732 506.934 409.951 490.858 409.903 490.696C409.831 490.456 409.967 490.204 410.206 490.132C410.444 490.06 410.698 490.195 410.77 490.435C410.972 491.108 415.7 507.014 412.527 513.583C412.462 513.715 412.342 513.803 412.207 513.83Z" fill="#1A2E35"/>
<path d="M407.702 492.745C409.738 493.874 412.316 493.161 413.462 491.153C414.411 489.488 414.075 487.453 412.77 486.164C412.503 485.9 412.194 485.666 411.846 485.473C409.81 484.345 407.231 485.057 406.087 487.065C405.994 487.228 405.914 487.394 405.846 487.562C405.068 489.476 405.83 491.708 407.702 492.745Z" fill="#EA6C56"/>
<mask id="mask10_34_217" style="mask-type:luminance" maskUnits="userSpaceOnUse" x="405" y="484" width="10" height="10">
<path d="M405.544 484.937H414.004V493.281H405.544V484.937Z" fill="white"/>
</mask>
<g mask="url(#mask10_34_217)">
<g opacity="0.5">
<path d="M407.702 492.745C409.738 493.874 412.316 493.161 413.462 491.153C414.411 489.488 414.075 487.453 412.77 486.164C412.503 485.9 412.194 485.666 411.846 485.473C409.81 484.345 407.231 485.057 406.087 487.065C405.994 487.228 405.914 487.394 405.846 487.562C405.068 489.476 405.83 491.708 407.702 492.745Z" fill="white"/>
</g>
</g>
<path d="M427.47 496.393C427.424 496.403 427.376 496.404 427.326 496.399C427.078 496.368 426.901 496.143 426.932 495.895C428.464 483.248 421.953 465.636 421.886 465.46C421.798 465.225 421.918 464.964 422.152 464.876C422.388 464.788 422.648 464.908 422.736 465.143C422.752 465.187 424.42 469.673 425.872 475.68C427.216 481.236 428.646 489.271 427.832 496.004C427.806 496.203 427.657 496.356 427.47 496.393Z" fill="#1A2E35"/>
<path d="M429.645 493.763C429.459 493.8 429.261 493.716 429.163 493.541C429.039 493.324 429.116 493.048 429.333 492.924C433.98 490.292 441.087 488.34 450.456 487.121C457.416 486.216 463.095 486.079 463.152 486.077C463.401 486.071 463.609 486.269 463.615 486.52C463.621 486.769 463.421 486.977 463.172 486.983C462.948 486.988 440.633 487.565 429.78 493.712C429.737 493.737 429.692 493.753 429.645 493.763Z" fill="#1A2E35"/>
</g>
<mask id="mask11_34_217" style="mask-type:luminance" maskUnits="userSpaceOnUse" x="0" y="2" width="667" height="667">
<path d="M0 2H666.667V668.667H0V2Z" fill="white"/>
</mask>
<g mask="url(#mask11_34_217)">
<path d="M183.132 524.191C183.132 524.191 184.473 508.428 178.154 507.489C171.836 506.552 177.67 521.977 177.67 521.977C177.67 521.977 171.096 513.732 166.696 517.413C162.297 521.095 177.649 527.519 177.649 527.519L183.132 524.191Z" fill="#EA6C56"/>
<path d="M436.193 554C436.193 554 456.211 534.667 459.544 534.667C462.877 534.667 488.637 535.333 500.757 534.667C512.877 534 526.211 546 536.877 554C547.544 562 576.211 569.333 576.211 569.333L580.877 576.667H436.193V554Z" fill="#1A2E35"/>
<mask id="mask12_34_217" style="mask-type:luminance" maskUnits="userSpaceOnUse" x="436" y="534" width="145" height="43">
<path d="M436.2 534.64H580.88V576.667H436.2V534.64Z" fill="white"/>
</mask>
<g mask="url(#mask12_34_217)">
<g opacity="0.399994">
<path d="M580.88 576.667H436.2V554C436.2 554 456.214 534.667 459.547 534.667C460.24 534.667 461.88 534.693 464.16 534.733C472.934 534.88 491.147 535.2 500.76 534.667C512.88 534 526.214 546 536.88 554C547.547 562 576.214 569.333 576.214 569.333L580.214 575.613L580.88 576.667Z" fill="white"/>
</g>
</g>
<mask id="mask13_34_217" style="mask-type:luminance" maskUnits="userSpaceOnUse" x="436" y="534" width="145" height="43">
<path d="M436.2 534.667H580.88V576.667H436.2V534.667Z" fill="white"/>
</mask>
<g mask="url(#mask13_34_217)">
<g opacity="0.199997">
<path d="M580.88 576.667H436.2V554C436.2 554 456.214 534.667 459.547 534.667C460.24 534.667 461.88 534.693 464.16 534.733C464.96 547.093 476.454 556.333 489.027 554.053C489.134 554.04 489.227 554.013 489.334 554C494.254 553.107 511 555.667 516.334 564.333C521.667 573 547.134 572.027 547.134 572.027C547.134 572.027 570.414 573.093 580.214 575.613L580.88 576.667Z" fill="black"/>
</g>
</g>
<mask id="mask14_34_217" style="mask-type:luminance" maskUnits="userSpaceOnUse" x="118" y="517" width="152" height="60">
<path d="M118.965 517.732H269.187V576.667H118.965V517.732Z" fill="white"/>
</mask>
<g mask="url(#mask14_34_217)">
<g opacity="0.5">
<path d="M261.187 554.889C261.187 554.889 238.076 522.445 232.297 518.889C226.52 515.333 204.743 521.112 190.076 521.112C175.409 521.112 166.964 541.825 158.076 545.556C149.187 549.286 118.964 576.666 118.964 576.666H269.187L261.187 554.889Z" fill="white"/>
</g>
</g>
<path d="M261.187 554.889C261.187 554.889 238.076 522.445 232.297 518.889C226.52 515.333 204.743 521.112 190.076 521.112C175.409 521.112 166.964 541.825 158.076 545.556C149.187 549.286 118.964 576.666 118.964 576.666H269.187L261.187 554.889Z" fill="#1A2E35"/>
<mask id="mask15_34_217" style="mask-type:luminance" maskUnits="userSpaceOnUse" x="118" y="517" width="152" height="60">
<path d="M118.96 517.743H269.187V576.667H118.96V517.743Z" fill="white"/>
</mask>
<g mask="url(#mask15_34_217)">
<g opacity="0.399994">
<path d="M269.187 576.667H118.96C118.96 576.667 119.933 575.787 121.573 574.32C129.093 567.627 150.773 548.613 158.08 545.56C166.96 541.827 175.413 521.107 190.08 521.107C203.693 521.107 223.44 516.133 230.813 518.28C231.387 518.427 231.88 518.64 232.293 518.893C238.08 522.44 261.187 554.893 261.187 554.893L269.187 576.667Z" fill="white"/>
</g>
</g>
<mask id="mask16_34_217" style="mask-type:luminance" maskUnits="userSpaceOnUse" x="118" y="518" width="152" height="59">
<path d="M118.96 518.28H269.187V576.667H118.96V518.28Z" fill="white"/>
</mask>
<g mask="url(#mask16_34_217)">
<g opacity="0.199997">
<path d="M269.187 576.667H118.96C118.96 576.667 119.933 575.787 121.573 574.32C129.2 573.32 146.373 570.827 151.013 568C157.027 564.333 186 560.667 200.667 563C215.333 565.333 214.667 542.667 222 536.667C226.48 533 229.307 524.4 230.813 518.28C231.387 518.427 231.88 518.64 232.293 518.893C238.08 522.44 261.187 554.893 261.187 554.893L269.187 576.667Z" fill="black"/>
</g>
</g>
</g>
<mask id="mask17_34_217" style="mask-type:luminance" maskUnits="userSpaceOnUse" x="0" y="2" width="667" height="667">
<path d="M0 2H666.667V668.667H0V2Z" fill="white"/>
</mask>
<g mask="url(#mask17_34_217)">
<path d="M305.334 113.689C305.334 126.334 295.084 136.586 282.437 136.586C269.792 136.586 259.541 126.334 259.541 113.689C259.541 101.044 269.792 90.7917 282.437 90.7917C295.084 90.7917 305.334 101.044 305.334 113.689Z" fill="#EA6C56"/>
<mask id="mask18_34_217" style="mask-type:luminance" maskUnits="userSpaceOnUse" x="259" y="90" width="47" height="47">
<path d="M259.541 90.7919H305.334V136.585H259.541V90.7919Z" fill="white"/>
</mask>
<g mask="url(#mask18_34_217)">
<g opacity="0.699997">
<path d="M305.334 113.689C305.334 126.334 295.084 136.586 282.437 136.586C269.792 136.586 259.541 126.334 259.541 113.689C259.541 101.044 269.792 90.7917 282.437 90.7917C295.084 90.7917 305.334 101.044 305.334 113.689Z" fill="white"/>
</g>
</g>
<path d="M282.437 91.2633C270.072 91.2633 260.012 101.323 260.012 113.689C260.012 126.054 270.072 136.115 282.437 136.115C294.803 136.115 304.864 126.054 304.864 113.689C304.864 101.323 294.803 91.2633 282.437 91.2633ZM282.437 137.057C269.552 137.057 259.069 126.574 259.069 113.689C259.069 100.803 269.552 90.3206 282.437 90.3206C295.323 90.3206 305.805 100.803 305.805 113.689C305.805 126.574 295.323 137.057 282.437 137.057Z" fill="#EA6C56"/>
<path d="M280.254 127.313C278.737 127.313 277.553 126.129 277.553 124.611C277.553 123.094 278.737 121.91 280.254 121.91C281.736 121.91 282.92 123.094 282.92 124.611C282.92 126.129 281.736 127.313 280.254 127.313ZM282.622 100.962C287.582 100.962 290.95 103.886 290.95 108.697C290.95 113.915 287.249 116.21 282.29 116.21L282.142 119.134H278.478L278.293 113.323H279.514C283.697 113.323 286.916 112.583 286.916 108.697C286.916 106.106 285.325 104.515 282.66 104.515C280.032 104.515 278.368 105.995 278.368 108.586H274.408C274.37 104.107 277.59 100.962 282.622 100.962Z" fill="#EA6C56"/>
<path d="M299.313 129.238L307.255 131.784C307.671 131.917 308.033 131.469 307.816 131.089L303.311 123.206C302.023 125.792 300.695 127.862 299.313 129.238Z" fill="#EA6C56"/>
</g>
<mask id="mask19_34_217" style="mask-type:luminance" maskUnits="userSpaceOnUse" x="0" y="2" width="667" height="667">
<path d="M0 2H666.667V668.667H0V2Z" fill="white"/>
</mask>
<g mask="url(#mask19_34_217)">
<path d="M438.995 537.117C438.995 537.117 435.828 521.617 441.995 519.951C448.161 518.284 444.161 534.284 444.161 534.284C444.161 534.284 449.731 525.329 454.529 528.473C459.328 531.617 444.828 539.784 444.828 539.784L438.995 537.117Z" fill="#DEE21B"/>
<path d="M284.639 499.899C284.639 499.899 283.381 484.129 276.995 484.238C270.608 484.347 278.889 498.61 278.889 498.61C278.889 498.61 271.053 491.551 267.316 495.903C263.577 500.255 279.773 504.079 279.773 504.079L284.639 499.899Z" fill="#DEE21B"/>
<mask id="mask20_34_217" style="mask-type:luminance" maskUnits="userSpaceOnUse" x="266" y="484" width="19" height="21">
<path d="M266.756 484.237H284.639V504.08H266.756V484.237Z" fill="white"/>
</mask>
<g mask="url(#mask20_34_217)">
<g opacity="0.300003">
<path d="M284.639 499.899C284.639 499.899 283.381 484.129 276.995 484.238C270.608 484.347 278.889 498.61 278.889 498.61C278.889 498.61 271.053 491.551 267.316 495.903C263.577 500.255 279.773 504.079 279.773 504.079L284.639 499.899Z" fill="white"/>
</g>
</g>
<path d="M232.21 576.667C232.21 576.667 249.987 522.889 258.877 517.732C278.367 506.425 291.894 482.303 294.877 480.667C308.907 472.967 360.151 474.075 379.958 477.148C399.766 480.223 416.21 524.84 427.766 526.309C439.321 527.777 461.543 555.333 462.877 558C464.21 560.667 462.877 576.667 462.877 576.667H232.21Z" fill="#1A2E35"/>
<mask id="mask21_34_217" style="mask-type:luminance" maskUnits="userSpaceOnUse" x="232" y="474" width="232" height="103">
<path d="M232.213 474.82H463.472V576.667H232.213V474.82Z" fill="white"/>
</mask>
<g mask="url(#mask21_34_217)">
<g opacity="0.5">
<path d="M462.88 576.667H232.213C232.213 576.667 249.986 522.893 258.88 517.733C278.373 506.427 291.893 482.307 294.88 480.667C308.906 472.973 360.146 474.08 379.96 477.147C389.253 478.6 397.8 489.187 405.453 500.16C413.333 511.467 420.266 523.2 426.066 525.8C426.64 526.067 427.2 526.24 427.76 526.307C439.32 527.773 461.546 555.333 462.88 558C464.213 560.667 462.88 576.667 462.88 576.667Z" fill="white"/>
</g>
</g>
<mask id="mask22_34_217" style="mask-type:luminance" maskUnits="userSpaceOnUse" x="374" y="500" width="53" height="27">
<path d="M374.591 500.16H426.067V526.143H374.591V500.16Z" fill="white"/>
</mask>
<g mask="url(#mask22_34_217)">
<g opacity="0.199997">
<path d="M426.066 525.8C420.826 525.507 414.68 525.387 408.666 525.747C393.333 526.667 381.333 525.72 376.44 525.52C371.56 525.333 376.92 515.427 385.68 511.493C391.493 508.88 399.92 504.08 405.453 500.16C413.333 511.467 420.266 523.2 426.066 525.8Z" fill="black"/>
</g>
</g>
<mask id="mask23_34_217" style="mask-type:luminance" maskUnits="userSpaceOnUse" x="253" y="544" width="200" height="33">
<path d="M253.213 544.988H452.88V576.667H253.213V544.988Z" fill="white"/>
</mask>
<g mask="url(#mask23_34_217)">
<g opacity="0.199997">
<path d="M452.88 576.667H253.213C263.413 569.467 287.4 553.453 299.693 553.107C315.56 552.667 331.306 567.333 349.866 560.667C368.44 554 394.472 544.615 407.058 545C430.74 545.724 448.266 562.293 452.88 576.667Z" fill="black"/>
</g>
</g>
<path d="M321.224 180.537C327.028 171.587 330.263 168.623 344.955 172.025C359.648 175.427 361.138 164.322 358.371 161.611C355.603 158.901 356.552 158.123 358.003 155.541C359.455 152.958 360.279 151.435 359.272 149.629C358.266 147.822 357.41 146.633 359.716 143.827C362.023 141.022 360.308 131.993 360.308 131.993L344.211 116.185C344.211 116.185 333.207 115.393 328.784 121.242C324.363 127.09 325.159 131.018 321.154 132.654C317.658 134.079 316.944 138.643 317.427 141.223C318.028 144.445 316.088 146.089 313.164 146.562C309.631 147.134 308.03 150.199 308.03 152.553C308.03 154.63 306.959 156.69 303.963 156.905C301.535 157.078 297.507 159.718 297.33 164.607C297.116 170.527 291.838 171.454 294.976 179.762C298.818 189.933 314.734 190.546 321.224 180.537Z" fill="#1A2E35"/>
<path d="M400.812 188.11C400.789 188.556 400.767 189.034 400.664 189.708C400.641 189.857 400.607 190.04 400.561 190.245C400.527 190.428 400.459 190.666 400.389 190.894C400.333 191.101 400.219 191.432 400.128 191.67L399.899 192.173C399.831 192.321 399.751 192.493 399.613 192.709C399.215 193.417 398.484 194.49 397.103 195.414C396.429 195.87 395.573 196.258 394.741 196.476C394.307 196.589 393.908 196.658 393.508 196.704C393.303 196.726 393.109 196.738 392.904 196.749H392.732L391.853 196.726C391.591 196.716 391.192 196.692 391.032 196.658L389.856 196.486L388.909 196.304C387.688 196.03 386.696 195.745 385.691 195.46C383.74 194.878 381.925 194.25 380.133 193.612C376.584 192.31 373.16 190.941 369.783 189.502C369.429 189.354 369.064 189.206 368.709 189.046C367.465 188.51 366.211 187.962 364.979 187.414C364.511 187.209 364.053 187.004 363.597 186.786C361.92 186.033 360.253 185.257 358.599 184.458C355.689 183.078 352.813 181.64 349.938 180.133L351.717 162.433C358.12 165.412 370.171 171.54 376.527 174.621C379.528 176.06 382.541 177.52 385.508 178.844C385.029 175.74 384.447 172.556 383.876 169.384L379.46 145.384L387.277 142.85C390.187 149.594 393.2 159.352 395.563 166.325C396.761 169.794 397.868 173.309 398.86 176.961C399.375 178.786 399.841 180.646 400.231 182.656C400.413 183.672 400.607 184.721 400.72 185.942C400.777 186.581 400.824 187.232 400.812 188.11Z" fill="#E06752"/>
<mask id="mask24_34_217" style="mask-type:luminance" maskUnits="userSpaceOnUse" x="358" y="172" width="6" height="15">
<path d="M358.371 172.739H363.598V186.787H358.371V172.739Z" fill="white"/>
</mask>
<g mask="url(#mask24_34_217)">
<g opacity="0.199997">
<path d="M363.598 186.787C361.92 186.033 360.254 185.257 358.599 184.459L358.371 172.739C358.622 173.423 360.288 180.852 362.924 185.508C363.164 185.931 363.392 186.364 363.598 186.787Z" fill="black"/>
</g>
</g>
<path d="M402.748 135.571H362.733V139.811H402.748V135.571Z" fill="#1A2E35"/>
<path d="M379.465 145.378C379.465 145.378 374.927 141.845 374.406 140.431C373.885 139.018 376.043 135.681 377.085 135.749C378.545 135.845 376.638 139.543 376.638 139.543L385.602 139.81C385.602 139.81 387.313 139.985 387.275 142.849C384.997 144.786 382.471 145.894 379.465 145.378Z" fill="#FFC4BE"/>
<path d="M375.299 136.296C375.299 136.296 374.332 134.146 375.596 133.55C376.861 132.955 384.225 133.303 385.973 134.226C387.721 135.15 386.755 137.678 385.416 137.994C384.077 138.311 376.897 139.08 375.299 136.296Z" fill="#FFC4BE"/>
<path d="M415.514 142.383H391.02V132.999H415.514V142.383Z" fill="#5E0D26"/>
<mask id="mask25_34_217" style="mask-type:luminance" maskUnits="userSpaceOnUse" x="391" y="132" width="25" height="11">
<path d="M391.02 132.999H415.514V142.383H391.02V132.999Z" fill="white"/>
</mask>
<g mask="url(#mask25_34_217)">
<g opacity="0.300003">
<path d="M415.514 142.383H391.02V132.999H415.514V142.383Z" fill="white"/>
</g>
</g>
<path d="M442.705 143.941H406.716V131.439H442.705V143.941Z" fill="#5E0D26"/>
<path d="M443.332 145.908H440.835V130.081H443.332V145.908Z" fill="#5E0D26"/>
<mask id="mask26_34_217" style="mask-type:luminance" maskUnits="userSpaceOnUse" x="440" y="130" width="4" height="16">
<path d="M440.835 130.08H443.332V145.908H440.835V130.08Z" fill="white"/>
</mask>
<g mask="url(#mask26_34_217)">
<g opacity="0.399994">
<path d="M443.332 145.908H440.835V130.081H443.332V145.908Z" fill="black"/>
</g>
</g>
<path d="M362.734 140.764H360.236V134.616H362.734V140.764Z" fill="#5E0D26"/>
<path d="M351.557 456.252L354.305 469.391H361.219L361.977 456.252H351.557Z" fill="#FFC4BE"/>
<path d="M380.987 478.684C380.756 474.403 378.92 473.126 376.604 472.979C374.195 472.827 365.674 469.94 365.674 469.94C365.674 469.94 363.964 467.222 362.398 466.67C360.83 466.118 359.24 467.735 359.24 467.735L354.916 467.204C354.916 467.204 353.682 465.25 352.728 466.963C351.252 469.616 351.172 476.962 351.242 478.684H380.987Z" fill="#620E28"/>
<path d="M380.461 477.566C378.661 477.558 376.869 477.55 375.069 477.541C367.206 477.503 359.345 477.457 351.482 477.418C351.181 477.419 351.258 476.959 351.557 476.966C352.086 476.973 352.625 476.97 353.154 476.975C353.157 476.958 353.17 476.931 353.182 476.914C354.725 474.447 353.836 471.942 351.784 470.693C351.542 470.555 351.848 470.154 352.078 470.301C354.3 471.653 355.194 474.333 353.632 476.973C354.742 476.985 355.846 476.987 356.958 476.99C364.812 477.029 372.673 477.075 380.537 477.114C380.837 477.113 380.76 477.573 380.461 477.566Z" fill="black"/>
<path d="M364.308 471.791C365.583 470.35 367.39 469.942 368.659 471.029C368.864 471.205 369.16 470.809 368.958 470.635C367.5 469.387 365.398 469.93 363.954 471.561C363.742 471.801 364.098 472.029 364.308 471.791Z" fill="white"/>
<path d="M366.721 472.558C367.995 471.117 369.802 470.709 371.071 471.795C371.277 471.971 371.573 471.575 371.37 471.401C369.911 470.154 367.81 470.695 366.366 472.327C366.154 472.567 366.51 472.795 366.721 472.558Z" fill="white"/>
<path d="M369.217 473.325C370.491 471.883 372.297 471.475 373.567 472.562C373.773 472.737 374.069 472.342 373.866 472.167C372.407 470.921 370.306 471.462 368.862 473.094C368.65 473.334 369.006 473.562 369.217 473.325Z" fill="white"/>
<path d="M366.04 356.176C366.097 391.724 362.479 459.627 362.479 459.627L351.797 459.855C351.797 459.855 333.927 399.098 340.431 357.043C338.823 349.786 337.407 342.962 336.163 336.559C335.399 332.622 334.703 328.845 334.075 325.215C331.907 312.845 330.468 302.231 329.544 293.137C329.213 289.953 328.951 286.962 328.745 284.143C326.36 251.094 331.679 242.341 331.679 242.341L360.733 242.455C360.733 242.455 365.948 297.929 366.04 356.176Z" fill="#1A2E35"/>
<mask id="mask27_34_217" style="mask-type:luminance" maskUnits="userSpaceOnUse" x="329" y="263" width="7" height="63">
<path d="M329.544 263.544H335.292V325.216H329.544V263.544Z" fill="white"/>
</mask>
<g mask="url(#mask27_34_217)">
<g opacity="0.199997">
<path d="M334.075 325.215C331.907 312.845 330.468 302.231 329.544 293.137L333.675 263.545C333.675 263.545 337.031 299.755 334.075 325.215Z" fill="black"/>
</g>
</g>
<path d="M363.614 462.135L364.106 457.563H349.873L350.522 462.135H363.614Z" fill="#1A2E35"/>
<path d="M302.464 456.399L305.252 469.452H312.167L312.884 456.399H302.464Z" fill="#FFC4BE"/>
<path d="M331.96 478.684C331.716 474.431 329.876 473.162 327.56 473.016C325.151 472.866 316.62 469.996 316.62 469.996C316.62 469.996 314.904 467.296 313.335 466.748C311.765 466.199 310.18 467.806 310.18 467.806L305.855 467.279C305.855 467.279 304.615 465.338 303.667 467.039C302.197 469.675 302.14 476.974 302.215 478.684H331.96Z" fill="#5E0D26"/>
<path d="M331.431 477.573C329.631 477.565 327.839 477.557 326.039 477.549C318.177 477.511 310.314 477.465 302.451 477.427C302.151 477.428 302.227 476.971 302.526 476.977C303.055 476.984 303.594 476.981 304.123 476.987C304.126 476.969 304.139 476.944 304.15 476.927C305.686 474.476 304.79 471.987 302.734 470.745C302.491 470.608 302.795 470.209 303.027 470.355C305.253 471.699 306.155 474.361 304.601 476.984C305.711 476.996 306.814 476.999 307.927 477.001C315.781 477.04 323.642 477.087 331.506 477.124C331.806 477.123 331.73 477.58 331.431 477.573Z" fill="black"/>
<path d="M315.261 471.836C316.532 470.406 318.336 469.999 319.609 471.079C319.816 471.254 320.11 470.86 319.906 470.687C318.445 469.448 316.345 469.987 314.905 471.608C314.694 471.846 315.052 472.072 315.261 471.836Z" fill="white"/>
<path d="M317.676 472.598C318.947 471.166 320.751 470.761 322.024 471.839C322.229 472.014 322.525 471.622 322.321 471.449C320.86 470.21 318.76 470.747 317.32 472.369C317.109 472.607 317.467 472.834 317.676 472.598Z" fill="white"/>
<path d="M320.174 473.36C321.445 471.928 323.249 471.522 324.522 472.602C324.729 472.776 325.023 472.384 324.819 472.21C323.358 470.97 321.258 471.51 319.818 473.132C319.607 473.369 319.965 473.596 320.174 473.36Z" fill="white"/>
<path d="M295.696 285.413C295.42 298.566 296.008 315.582 298.213 337.481C298.853 343.843 299.631 350.622 300.567 357.838C290.131 399.621 302.327 459.983 302.327 459.983L313.028 459.747C313.028 459.747 322.997 392.289 326.261 356.974C331.609 299.111 331.572 243.993 331.572 243.993L302.524 243.879C302.524 243.879 296.392 252.577 295.696 285.413Z" fill="#1A2E35"/>
<path d="M313.933 462.243L314.851 457.701H300.618L300.842 462.243H313.933Z" fill="#1A2E35"/>
<path d="M361.81 246.467C361.81 251.773 322.864 254.28 299.69 246.64C300.077 245.2 300.624 242.693 300.957 241.24C301.13 240.56 301.29 239.867 301.437 239.16C301.917 236.84 302.304 234.307 302.65 231.56C302.65 231.453 302.677 231.307 302.704 231.187C303.104 227.68 303.384 223.867 303.53 219.747C303.584 218.24 303.624 216.707 303.637 215.12C303.65 213.6 303.65 212.04 303.624 210.427C303.61 209.347 303.597 208.253 303.557 207.133C303.53 206.213 303.49 205.293 303.437 204.347C303.344 201.987 303.197 199.56 302.997 197.08C302.797 194.52 302.557 191.92 302.25 189.24V189.227C301.704 184.373 300.984 179.347 300.077 174.173C298.77 166.88 304.104 160.093 311.464 159.573C313.45 159.44 315.53 159.347 317.677 159.307C319.81 159.293 321.85 159.24 323.85 159.24C329.53 159.213 334.664 159.347 340.05 160C340.45 160.053 340.85 160.107 341.277 160.16C343.29 160.427 345.33 160.76 347.33 161.093C355.89 162.573 359.597 168.507 359.89 178.773C360.224 190.173 368.89 197.307 357.93 204.973C356.517 214.707 361.81 231.52 361.81 246.467Z" fill="#EA6C56"/>
<mask id="mask28_34_217" style="mask-type:luminance" maskUnits="userSpaceOnUse" x="303" y="194" width="7" height="26">
<path d="M303.53 194.64H309.744V219.747H303.53V194.64Z" fill="white"/>
</mask>
<g mask="url(#mask28_34_217)">
<g opacity="0.199997">
<path d="M303.637 215.12C303.65 213.6 303.65 212.04 303.624 210.427C303.61 209.347 303.597 208.253 303.557 207.133L309.744 194.64L303.53 219.747C303.584 218.24 303.624 216.707 303.637 215.12Z" fill="black"/>
</g>
</g>
<path d="M301.476 165.932C301.476 165.932 286.955 211.527 283.877 215.334C278.904 221.486 251.099 238.279 251.099 238.279L252.245 247.678C252.245 247.678 284.885 240.318 295.632 225.815C302.339 216.764 315.852 178.008 315.852 178.008L301.476 165.932Z" fill="#EA6C56"/>
<path d="M357.154 142.19C357.154 142.19 363.647 133.283 358.005 124.858C352.361 116.433 343.21 119.942 343.21 119.942L357.154 142.19Z" fill="#1A2E35"/>
<path d="M341.417 163.035C341.464 163.179 341.525 163.325 341.62 163.475C343.487 166.419 339.976 171.811 339.976 171.811C340.277 171.872 339.664 171.789 339.976 171.811C339.976 171.811 335.103 167.927 334.303 167.063C334.3 167.059 334.296 167.055 334.293 167.051C330.444 162.873 326.303 159.708 326.303 159.708C331.131 157.121 332.895 147.932 333.343 142.191L340.837 151.732L342.24 153.816C341.561 155.016 340.956 156.264 340.615 157.5C340.061 159.419 340.299 160.039 341.417 163.035Z" fill="#FFC4BE"/>
<mask id="mask29_34_217" style="mask-type:luminance" maskUnits="userSpaceOnUse" x="336" y="151" width="7" height="7">
<path d="M336.118 151.732H342.239V157.5H336.118V151.732Z" fill="white"/>
</mask>
<g mask="url(#mask29_34_217)">
<g opacity="0.199997">
<path d="M340.615 157.5C340.955 156.263 341.562 155.016 342.241 153.815L340.837 151.732L336.118 151.84C336.118 151.84 337.357 155.65 340.615 157.5Z" fill="black"/>
</g>
</g>
<path d="M331.971 131.96C331.22 141.394 330.706 145.37 334.663 150.822C340.618 159.022 352.147 157.836 355.648 148.808C358.799 140.68 359.498 126.619 351.042 121.636C342.71 116.726 332.722 122.527 331.971 131.96Z" fill="#FFC4BE"/>
<path d="M334.044 138.135C329.315 136.878 331.173 131.993 331.173 131.993L338.139 133.073C338.139 133.073 338.773 139.382 334.044 138.135Z" fill="#1A2E35"/>
<path d="M353.139 122.512C353.139 122.512 353.017 127.728 346.619 128.007C340.22 128.284 340.704 138.073 333.616 136.247C324.864 133.993 328.18 126.519 330.291 123.277C331.632 121.217 345.951 108.855 353.139 122.512Z" fill="#1A2E35"/>
<path d="M351.716 146.499C351.716 146.499 347.121 144.42 346.11 142.42C346.11 142.42 345.436 145.999 347.844 147.318C350.252 148.638 351.716 146.499 351.716 146.499Z" fill="white"/>
<path d="M347.494 136.167C347.388 136.929 347.705 137.603 348.202 137.673C348.7 137.743 349.19 137.182 349.297 136.421C349.404 135.659 349.088 134.985 348.589 134.915C348.092 134.845 347.601 135.406 347.494 136.167Z" fill="#1A2E35"/>
<path d="M355.232 137.426C355.125 138.187 355.442 138.862 355.94 138.931C356.437 139.002 356.928 138.44 357.034 137.679C357.141 136.918 356.825 136.243 356.326 136.174C355.829 136.103 355.338 136.664 355.232 137.426Z" fill="#1A2E35"/>
<path d="M356.101 136.184L358.003 135.914C358.003 135.914 356.865 137.211 356.101 136.184Z" fill="#1A2E35"/>
<path d="M352.39 137.268C352.39 137.268 353.42 139.471 354.598 141.423C354.981 142.058 354.696 142.892 353.988 143.123C352.774 143.518 351.508 143.595 351.508 143.595L352.39 137.268Z" fill="#FF857F"/>
<path d="M327.734 137.971C328.319 139.879 329.626 141.21 330.954 141.79C332.951 142.663 334.304 140.528 334.047 138.131C333.814 135.975 332.494 132.922 330.347 133.082C328.23 133.238 327.064 135.79 327.734 137.971Z" fill="#FFC4BE"/>
<path d="M332.723 140.432C332.723 141.136 332.152 141.707 331.448 141.707C330.745 141.707 330.175 141.136 330.175 140.432C330.175 139.728 330.745 139.157 331.448 139.157C332.152 139.157 332.723 139.728 332.723 140.432Z" fill="white"/>
<path d="M345.409 133.12C345.528 133.12 345.648 133.072 345.736 132.979C347.118 131.513 348.757 131.791 348.776 131.792C349.018 131.835 349.256 131.675 349.301 131.428C349.345 131.183 349.182 130.949 348.937 130.904C348.85 130.888 346.794 130.54 345.078 132.359C344.908 132.54 344.917 132.825 345.097 132.997C345.185 133.08 345.297 133.12 345.409 133.12Z" fill="#1A2E35"/>
<path d="M358.783 134.489C358.895 134.498 359.01 134.468 359.106 134.39C359.299 134.234 359.33 133.95 359.174 133.756C357.607 131.81 355.531 131.993 355.442 132.002C355.194 132.028 355.012 132.248 355.038 132.497C355.063 132.744 355.283 132.925 355.531 132.901C355.612 132.893 357.226 132.774 358.47 134.322C358.551 134.422 358.664 134.48 358.783 134.489Z" fill="#1A2E35"/>
<path d="M348.363 134.926L350.266 134.656C350.266 134.656 349.127 135.953 348.363 134.926Z" fill="#1A2E35"/>
<path d="M327.453 159.237C327.453 159.237 324.426 157.324 320.147 159.277L328.993 172.739C328.993 172.739 327.93 169.895 332.131 170.265C336.333 170.637 339.977 171.811 339.977 171.811C339.977 171.811 332.061 163.68 327.453 159.237Z" fill="#EA6C56"/>
<mask id="mask30_34_217" style="mask-type:luminance" maskUnits="userSpaceOnUse" x="320" y="158" width="20" height="15">
<path d="M320.148 158.399H339.978V172.739H320.148V158.399Z" fill="white"/>
</mask>
<g mask="url(#mask30_34_217)">
<g opacity="0.300003">
<path d="M327.453 159.237C327.453 159.237 324.426 157.324 320.147 159.277L328.993 172.739C328.993 172.739 327.93 169.895 332.131 170.265C336.333 170.637 339.977 171.811 339.977 171.811C339.977 171.811 332.061 163.68 327.453 159.237Z" fill="white"/>
</g>
</g>
<path d="M340.427 160.054C340.427 160.054 342.83 167.39 339.977 171.811C339.977 171.811 345.398 168.538 346.825 168.891C348.25 169.243 347.894 171.455 347.894 171.455C347.894 171.455 350.415 166.819 348.87 163.466C347.323 160.114 340.427 160.054 340.427 160.054Z" fill="#EA6C56"/>
<mask id="mask31_34_217" style="mask-type:luminance" maskUnits="userSpaceOnUse" x="339" y="160" width="11" height="12">
<path d="M339.978 160.053H349.371V171.811H339.978V160.053Z" fill="white"/>
</mask>
<g mask="url(#mask31_34_217)">
<g opacity="0.300003">
<path d="M340.427 160.054C340.427 160.054 342.83 167.39 339.977 171.811C339.977 171.811 345.398 168.538 346.825 168.891C348.25 169.243 347.894 171.455 347.894 171.455C347.894 171.455 350.415 166.819 348.87 163.466C347.323 160.114 340.427 160.054 340.427 160.054Z" fill="white"/>
</g>
</g>
<path d="M246.855 537.907L245.052 542.124L244.744 154.728H246.855V537.907Z" fill="#1A2E35"/>
<path d="M247.306 161.938C247.306 161.938 226.66 154.629 212.845 168.174C187.53 192.994 175.402 179.717 175.402 179.717C175.402 179.717 180.68 206.892 207.21 193.57C227.949 183.157 247.306 189.686 247.306 189.686C248.334 189.686 248.334 161.938 247.306 161.938Z" fill="#DEE21B"/>
<path d="M248.48 154.728C248.48 156.208 247.28 157.408 245.8 157.408C244.319 157.408 243.119 156.208 243.119 154.728C243.119 153.248 244.319 152.048 245.8 152.048C247.28 152.048 248.48 153.248 248.48 154.728Z" fill="#DEE21B"/>
<mask id="mask32_34_217" style="mask-type:luminance" maskUnits="userSpaceOnUse" x="243" y="152" width="6" height="6">
<path d="M243.118 152.048H248.479V157.409H243.118V152.048Z" fill="white"/>
</mask>
<g mask="url(#mask32_34_217)">
<g opacity="0.300003">
<path d="M248.479 154.728C248.479 156.208 247.279 157.408 245.799 157.408C244.318 157.408 243.118 156.208 243.118 154.728C243.118 153.248 244.318 152.048 245.799 152.048C247.279 152.048 248.479 153.248 248.479 154.728Z" fill="white"/>
</g>
</g>
<path d="M252.163 238.334C252.163 238.334 248.686 237.349 247.063 237.018C245.442 236.689 242.177 239.586 242.423 240.706C242.771 242.277 245.846 240.358 245.846 240.358L246.025 250.848C246.025 250.848 248.33 250.373 250.607 248.904C255.947 245.669 255.002 240.48 252.163 238.334Z" fill="#FFC4BE"/>
<path d="M245.06 238.698C245.06 238.698 242.716 237.594 242.037 238.972C241.359 240.35 241.597 248.448 242.579 250.385C243.559 252.324 246.356 251.31 246.729 249.846C247.103 248.381 248.087 240.509 245.06 238.698Z" fill="#FFC4BE"/>
</g>
</g>
<defs>
<clipPath id="clip0_34_217">
<rect width="666.667" height="666.667" fill="white"/>
</clipPath>
</defs>
</svg>
