<svg width="38" height="33" viewBox="0 0 38 33" fill="none" xmlns="http://www.w3.org/2000/svg">
<rect x="0.709275" y="-0.00792798" width="8.94559" height="7.6169" transform="matrix(0.701397 -0.712771 0.717153 0.696915 11.8581 10.872)" stroke="#FDFFA8"/>
<rect x="0.709275" y="-0.00792798" width="3.45511" height="10.3191" rx="1.72756" transform="matrix(0.701397 -0.712771 0.717153 0.696915 17.7995 3.67869)" stroke="#FDFFA8"/>
<rect x="0.709275" y="-0.00792798" width="3.45511" height="10.3191" rx="1.72756" transform="matrix(0.701397 -0.712771 0.717153 0.696915 7.86006 12.7971)" stroke="#FDFFA8"/>
<rect x="-0.00929159" y="-0.704826" width="1.97598" height="5.04965" rx="0.987989" transform="matrix(-0.718549 -0.695476 0.699966 -0.714176 21.6161 15.1755)" stroke="#FDFFA8"/>
<path d="M1.48625 32.2373C1.39422 32.2377 1.31387 32.1751 1.29173 32.0858C0.959796 30.7467 1.97298 29.4517 3.35255 29.4517L15.9719 29.4518C17.3206 29.4518 18.3169 30.7093 18.0084 32.0222C17.9882 32.1083 17.9115 32.1693 17.8231 32.1696L1.48625 32.2373Z" stroke="#FDFFA8"/>
<path d="M3.32977 29.3488C3.22567 29.3492 3.13594 29.2756 3.116 29.1734C2.85222 27.8213 3.88854 26.5647 5.2662 26.5663L13.8882 26.5762C15.236 26.5778 16.2533 27.7998 16.0104 29.1255C15.9923 29.2246 15.9061 29.2967 15.8054 29.2971L3.32977 29.3488Z" stroke="#FDFFA8"/>
<path d="M34.5006 22.022C35.4742 22.8328 35.6153 24.2689 34.8178 25.2505C33.8911 26.3911 32.1438 26.3982 31.2065 25.2651L23.0497 15.4043C22.6658 14.9401 22.7149 14.2585 23.1616 13.854C23.5815 13.4737 24.2198 13.4607 24.6554 13.8235L34.5006 22.022Z" stroke="#FDFFA8"/>
<path d="M3.13281 11.4788L5.22295 13.4842" stroke="#FDFFA8" stroke-linecap="round"/>
<path d="M1.33203 16.9519L4.23708 16.9087" stroke="#FDFFA8" stroke-linecap="round"/>
<path d="M3.23828 21.9656L5.22527 19.8591" stroke="#FDFFA8" stroke-linecap="round"/>
</svg>
